<?xml version="1.0" standalone="no"?>
<!DOCTYPE svg PUBLIC "-//W3C//DTD SVG 1.1//EN" "http://www.w3.org/Graphics/SVG/1.1/DTD/svg11.dtd" >
<svg>
<metadata>
Created by FontForge 20110222 at Sun Dec 28 16:43:58 2014
 By deploy user
Part of the digitally encoded machine readable outline data for producing the Typefaces provided is copyrighted (c) 2006 Linotype GmbH, www.linotype.com. All rights reserved. This software is the property of Linotype GmbH, and may not be reproduced, used, displayed, modified, disclosed or transferred without the express written approval of Linotype GmbH.  Copyright (c) 1988, 1990, 1993 Adobe Systems Incorporated. All Rights Reserved. Helvetica is a trademark of Heidelberger Druckmaschinen AG, exclusively licensed through Linotype GmbH, and may be registered in certain jurisdictions. This typeface is original artwork of Linotype Design Studio. The design may be protected in certain jurisdictions.
</metadata>
<defs>
<font id="HelveticaNeueLTCom-ThCnO" horiz-adv-x="426" >
  <font-face 
    font-family="HelveticaNeueLT Com 37 ThCn"
    font-weight="250"
    font-style="italic"
    font-stretch="condensed"
    units-per-em="1000"
    panose-1="2 11 4 6 2 2 2 3 2 4"
    ascent="714"
    descent="-286"
    x-height="523"
    cap-height="714"
    bbox="-169 -217 1060 920"
    underline-thickness="50"
    underline-position="-50"
    slope="-12"
    unicode-range="U+000D-FB02"
  />
<missing-glyph horiz-adv-x="512" 
d="M222 117v67h56v-67h-56zM225 234l-2 17q0 55 13 81t46 59q32 31 41 47.5t9 35.5q0 36 -22.5 60.5t-53.5 24.5t-53.5 -22t-28.5 -73l-50 8q7 71 44 104t91 33q53 0 88.5 -36t35.5 -95q0 -32 -12.5 -58.5t-50.5 -61.5q-37 -33 -43 -52t-6 -72h-46zM462 50v617h-412v-617
h412zM512 718v-718h-512v718h512z" />
    <glyph glyph-name="IJ" unicode="IJ" horiz-adv-x="579" 
d="M209 714h42l-148 -714h-42zM276 187q-5 -19 -6.5 -36t-1.5 -31q0 -98 90 -98q24 0 47 6.5t43.5 22.5t36 43.5t24.5 68.5l115 551h42l-115 -551q-19 -90 -72 -132.5t-125 -42.5t-100 33t-28 89q0 19 2.5 39.5t7.5 43.5l3 16h42z" />
    <glyph glyph-name="ij" unicode="ij" horiz-adv-x="288" 
d="M203 714h38l-21 -102h-38zM163 523h38l-108 -523h-38zM343 714h38l-21 -102h-38zM73 -142q7 -1 14 -1.5t14 -0.5q11 0 23 2.5t23 10t19.5 22t13.5 39.5l123 593h38l-122 -589q-14 -64 -46 -88t-72 -24q-9 0 -17.5 0.5t-17.5 1.5z" />
    <glyph glyph-name="napostrophe" unicode="&#x22;n" horiz-adv-x="407" 
d="M159 523h38l-16 -79h2q10 17 25 33.5t34.5 29t42.5 20.5t50 8q47 0 77 -23.5t30 -74.5q0 -10 -1.5 -20.5t-3.5 -22.5l-81 -394h-38l78 376q3 14 4 25.5t1 21.5q0 43 -22 60.5t-61 17.5q-30 0 -56 -13t-47 -35.5t-35.5 -53t-21.5 -64.5l-69 -335h-38zM187 801h47l-18 -85
q-6 -31 -23 -47t-43 -22l4 20q13 5 22 15t14 32h-21z" />
    <glyph glyph-name="fi" unicode="fi" horiz-adv-x="370" 
d="M180 489h-71l7 34h71l18 87q10 45 35.5 74.5t78.5 29.5q9 0 19 -0.5t19 -2.5l-7 -34q-12 3 -32 3q-25 0 -45.5 -14t-28.5 -54l-19 -89h87l-7 -34h-87l-101 -489h-38zM425 714h38l-21 -102h-38zM385 523h38l-108 -523h-38z" />
    <glyph glyph-name="fl" unicode="fl" horiz-adv-x="370" 
d="M180 489h-71l7 34h71l18 87q10 45 35.5 74.5t78.5 29.5q9 0 19 -0.5t19 -2.5l-7 -34q-12 3 -32 3q-25 0 -45.5 -14t-28.5 -54l-19 -89h87l-7 -34h-87l-101 -489h-38zM424 714h38l-148 -714h-38z" />
    <glyph glyph-name=".notdef" horiz-adv-x="512" 
d="M222 117v67h56v-67h-56zM225 234l-2 17q0 55 13 81t46 59q32 31 41 47.5t9 35.5q0 36 -22.5 60.5t-53.5 24.5t-53.5 -22t-28.5 -73l-50 8q7 71 44 104t91 33q53 0 88.5 -36t35.5 -95q0 -32 -12.5 -58.5t-50.5 -61.5q-37 -33 -43 -52t-6 -72h-46zM462 50v617h-412v-617
h412zM512 718v-718h-512v718h512z" />
    <glyph glyph-name=".null" horiz-adv-x="500" 
 />
    <glyph glyph-name=".null" horiz-adv-x="500" 
 />
    <glyph glyph-name="nonmarkingreturn" unicode="&#xd;" horiz-adv-x="0" 
 />
    <glyph glyph-name="space" unicode=" " horiz-adv-x="240" 
 />
    <glyph glyph-name="exclam" unicode="!" horiz-adv-x="222" 
d="M109 96h42l-19 -96h-42zM280 714l-48 -230l-68 -298h-30l56 298l48 230h42z" />
    <glyph glyph-name="quotedbl" unicode="&#x22;" horiz-adv-x="296" 
d="M335 714h34l-47 -228h-34zM223 714h34l-47 -228h-34z" />
    <glyph glyph-name="numbersign" unicode="#" horiz-adv-x="480" 
d="M411 437h-137l-62 -178h137zM201 225l-77 -225h-34l77 225h-108l7 34h112l62 178h-109l7 34h113l78 225h34l-78 -225h137l78 225h34l-78 -225h108l-7 -34h-112l-62 -178h109l-7 -34h-113l-77 -225h-34l77 225h-137z" />
    <glyph glyph-name="dollar" unicode="$" horiz-adv-x="480" 
d="M222 -12q-45 1 -75 13t-48 31.5t-25.5 45t-7.5 52.5q0 29 6 56l5 22h42l-5 -24q-6 -27 -6 -51q0 -50 28.5 -78t92.5 -33l68 326l-33 12q-50 18 -80.5 48t-30.5 81q0 49 18.5 89t49.5 68.5t70 44.5t81 17l14 70h30l-14 -70q75 -5 108.5 -39t33.5 -92q0 -26 -6 -56h-42
q6 25 6 48q0 46 -25.5 73t-81.5 32l-61 -294l39 -14q57 -20 86.5 -50t29.5 -84q0 -57 -20.5 -101.5t-53.5 -75.5t-75.5 -48t-87.5 -19l-17 -84h-30zM365 674q-29 -2 -59 -12.5t-54.5 -32t-40 -55t-15.5 -81.5q0 -40 24 -62.5t72 -36.5l14 -4zM259 22q37 3 71 18.5t59.5 41
t40.5 61t15 78.5q0 47 -27 71t-72 39l-21 7z" />
    <glyph glyph-name="percent" unicode="%" horiz-adv-x="685" 
d="M165 531q18 88 56.5 132.5t102.5 44.5q52 0 73.5 -24t21.5 -71q0 -17 -2.5 -38t-7.5 -44q-19 -91 -57.5 -134t-101.5 -43q-53 0 -74.5 23.5t-21.5 69.5q0 34 11 84zM420 165q18 88 56.5 132.5t102.5 44.5q52 0 73.5 -24t21.5 -71q0 -17 -2.5 -38t-7.5 -44
q-19 -91 -57.5 -134t-101.5 -43q-53 0 -74.5 23.5t-21.5 69.5q0 34 11 84zM199 531q-9 -44 -9 -73q0 -43 18 -58.5t48 -15.5q19 0 36.5 6.5t32.5 23t27.5 45t22.5 72.5q5 21 6.5 38.5t1.5 31.5q0 45 -18 61t-48 16q-17 0 -34.5 -6.5t-33 -23t-28.5 -45t-22 -72.5zM622 708
h34l-453 -720h-34zM454 165q-9 -44 -9 -73q0 -43 18 -58.5t48 -15.5q19 0 36.5 6.5t32.5 23t27.5 45t22.5 72.5q5 21 6.5 38.5t1.5 31.5q0 45 -18 61t-48 16q-17 0 -34.5 -6.5t-33 -23t-28.5 -45t-22 -72.5z" />
    <glyph glyph-name="ampersand" unicode="&#x26;" horiz-adv-x="537" 
d="M288 377l-51 -35q-31 -21 -57.5 -43t-45.5 -46.5t-29.5 -52t-10.5 -59.5q0 -54 33.5 -86.5t90.5 -32.5q30 0 58.5 9.5t53.5 25t46 34.5t38 39zM345 452q22 17 41.5 34t34.5 36t23.5 41t8.5 48q0 32 -20.5 50.5t-55.5 18.5q-26 0 -48 -9t-37.5 -25t-24.5 -37.5t-9 -46.5
q-1 -23 7.5 -49t19.5 -46l21 -40zM429 100q-43 -48 -97 -80t-126 -32q-43 0 -72.5 12t-48 32.5t-26.5 46t-8 52.5q0 45 14 80t38 63t55.5 52t66.5 47l49 32l-24 45q-15 27 -23.5 51t-7.5 50q0 35 13 65t35.5 51.5t52.5 34t63 12.5q30 0 50.5 -8t33 -21.5t18.5 -31.5t6 -37
q0 -32 -12 -59.5t-31.5 -52t-44.5 -45.5t-50 -39l-33 -23l117 -230q20 29 34 64.5t21 67.5h38q-9 -42 -28 -85t-48 -80l69 -134h-42z" />
    <glyph glyph-name="quotesingle" unicode="'" horiz-adv-x="184" 
d="M223 714h34l-47 -228h-34z" />
    <glyph glyph-name="parenleft" unicode="(" horiz-adv-x="222" 
d="M151 -184q-20 52 -34.5 119.5t-14.5 150.5q0 85 19 179q15 72 39 136.5t53 121t61 104.5t64 87h30q-33 -41 -65.5 -91.5t-61 -108t-51 -120.5t-35.5 -129q-20 -98 -20 -186q0 -77 13 -144t33 -119h-30z" />
    <glyph glyph-name="parenright" unicode=")" horiz-adv-x="222" 
d="M180 714q20 -53 35 -121t15 -152q0 -41 -4.5 -84.5t-14.5 -91.5q-15 -72 -39 -136.5t-53.5 -121t-61.5 -104.5t-63 -87h-30q33 41 65 91.5t60.5 108t51 120.5t36.5 129q10 48 14 93.5t4 89.5q0 78 -12.5 145t-32.5 121h30z" />
    <glyph glyph-name="asterisk" unicode="*" horiz-adv-x="296" 
d="M176 647l83 -44l23 111h30l-23 -111l99 44l6 -28l-96 -42l43 -80l-30 -19l-45 88l-84 -88l-22 19l78 80l-80 40z" />
    <glyph glyph-name="plus" unicode="+" horiz-adv-x="600" 
d="M332 236h-236l7 34h236l49 236h34l-49 -236h236l-7 -34h-236l-49 -236h-34z" />
    <glyph glyph-name="comma" unicode="," horiz-adv-x="240" 
d="M120 102h42l-21 -100q-6 -30 -13.5 -50.5t-17.5 -35t-23.5 -25t-30.5 -19.5l7 34q22 14 31 37.5t17 56.5h-12z" />
    <glyph glyph-name="hyphen" unicode="-" horiz-adv-x="315" 
d="M123 289h189l-7 -34h-189z" />
    <glyph glyph-name="period" unicode="." horiz-adv-x="240" 
d="M120 102h42l-21 -102h-42z" />
    <glyph glyph-name="slash" unicode="/" horiz-adv-x="278" 
d="M397 726h40l-409 -738h-39z" />
    <glyph glyph-name="zero" unicode="0" horiz-adv-x="480" 
d="M114 348q38 186 104 273t169 87q78 0 112.5 -41t34.5 -129q0 -38 -6.5 -85.5t-17.5 -104.5q-20 -98 -46.5 -166.5t-60 -111.5t-75 -62.5t-91.5 -19.5q-76 0 -111.5 42t-35.5 132q0 75 24 186zM156 348q-13 -60 -18.5 -106t-5.5 -81q0 -42 8 -68.5t22.5 -42.5t35 -22
t46.5 -6q37 0 69 13.5t59.5 50t51 100t44.5 162.5q9 43 17.5 91t8.5 93q0 30 -5.5 55.5t-18.5 45t-35 30.5t-55 11q-39 0 -69 -16.5t-53 -43.5t-39.5 -62t-28.5 -71t-20 -71t-14 -62z" />
    <glyph glyph-name="one" unicode="1" horiz-adv-x="480" 
d="M376 636q-16 -15 -38 -29t-47.5 -25.5t-51.5 -19.5t-50 -10l7 34q27 3 57 13.5t57 27t49.5 37.5t35.5 44h34l-147 -708h-38z" />
    <glyph glyph-name="two" unicode="2" horiz-adv-x="480" 
d="M46 0q15 75 59.5 137t114.5 110l117 80q32 22 61 45.5t51.5 52t35.5 62.5t13 76q0 51 -29 81t-87 30q-41 0 -72.5 -15.5t-54.5 -41t-38 -58t-22 -66.5h-42q9 45 30 84.5t51.5 68.5t70.5 45.5t88 16.5q24 0 50 -6.5t47.5 -22t36 -42t14.5 -66.5q0 -51 -14 -90.5t-39 -71
t-58 -58t-70 -51.5l-110 -75q-28 -19 -53.5 -42t-46.5 -47.5t-35.5 -49.5t-19.5 -48h346l-7 -38h-388z" />
    <glyph glyph-name="three" unicode="3" horiz-adv-x="480" 
d="M279 387h31q36 0 68.5 11t57 33.5t38.5 58t14 83.5t-28 74.5t-83 26.5q-39 0 -68 -13.5t-50 -35.5t-34.5 -50.5t-20.5 -57.5h-42q9 42 29 77t49 60.5t66 39.5t80 14q66 0 105 -33t39 -96q0 -36 -11 -70.5t-31 -63t-50 -48.5t-67 -27v-2q55 -5 84 -40.5t29 -86.5
q0 -53 -20 -99.5t-54.5 -80.5t-81.5 -53.5t-100 -19.5q-79 0 -115.5 40.5t-36.5 106.5q0 26 4 49h42q-5 -25 -5 -44q0 -50 29 -84t91 -34q32 0 63.5 10t58.5 31t47.5 54.5t30.5 80.5q4 19 4 41q0 52 -33 83t-105 31h-31z" />
    <glyph glyph-name="four" unicode="4" horiz-adv-x="480" 
d="M361 191h-289l8 38l385 479h42l-101 -483h87l-7 -34h-87l-39 -191h-38zM455 643h-2l-336 -418h251z" />
    <glyph glyph-name="five" unicode="5" horiz-adv-x="480" 
d="M241 696h305l-8 -38h-273l-92 -281h2q29 38 72.5 60t91.5 22q40 0 68.5 -11.5t47.5 -32.5t28 -50t9 -63q0 -56 -18 -112t-52 -101t-82.5 -73t-109.5 -28q-42 0 -72 11.5t-48.5 30.5t-27 44t-8.5 52q0 19 5 44l1 7h42l-2 -12q-1 -7 -1.5 -14t-0.5 -13q0 -53 29 -84.5
t86 -31.5q49 0 89 23t68 60.5t43 85.5t15 98q0 60 -29 98t-91 38q-33 0 -59.5 -10t-47 -24.5t-34.5 -31t-22 -28.5h-42z" />
    <glyph glyph-name="six" unicode="6" horiz-adv-x="480" 
d="M137 217q-3 -15 -5 -30.5t-2 -30.5q0 -26 6 -50.5t19.5 -43t35.5 -29.5t54 -11q72 0 124 51.5t74 154.5q6 31 6 60q0 57 -27.5 93.5t-90.5 36.5q-40 0 -72 -15.5t-56 -42.5t-40.5 -64t-25.5 -79zM490 547q3 13 3 28q0 18 -5.5 36t-17.5 32t-32 22.5t-49 8.5
q-47 0 -85 -26t-67.5 -71.5t-51.5 -108.5t-37 -138l-3 -13h2q11 22 28 46t41 43.5t55.5 32.5t71.5 13q72 0 111 -39.5t39 -114.5q0 -65 -19 -121.5t-53 -98.5t-81.5 -66t-103.5 -24q-43 0 -71.5 13t-45.5 36.5t-24 55t-7 68.5t6 77t14 81q16 78 38.5 148.5t56.5 124t82 85
t115 31.5q41 0 67.5 -13t41.5 -32.5t20.5 -42t5.5 -42.5q0 -19 -3 -31h-42z" />
    <glyph glyph-name="seven" unicode="7" horiz-adv-x="480" 
d="M573 658q-85 -78 -155.5 -173.5t-122.5 -188.5t-84.5 -172t-41.5 -124h-46q7 36 26 85t48 106t66 119t80.5 123.5t92 119t99.5 105.5h-356l8 38h394z" />
    <glyph glyph-name="eight" unicode="8" horiz-adv-x="480" 
d="M81 191q17 81 66.5 129.5t111.5 57.5l1 2q-46 10 -68 41t-22 73q0 47 16.5 86.5t46 68t69 44t85.5 15.5q72 0 108.5 -34.5t36.5 -93.5q0 -34 -10 -66.5t-29 -59t-47.5 -46t-64.5 -28.5l-1 -2q51 -8 77.5 -40.5t26.5 -87.5q0 -59 -19.5 -107.5t-53 -83t-78.5 -53
t-97 -18.5q-78 0 -120 38.5t-42 107.5q0 14 2 28t5 29zM123 191q-6 -27 -6 -50q0 -57 33 -88t94 -31q39 0 75 16t63 45t43 71t16 93q0 60 -33 88t-93 28q-33 0 -63.5 -10.5t-56 -31.5t-44.5 -53.5t-28 -76.5zM485 535q2 10 3 19.5t1 18.5q0 46 -27 73.5t-82 27.5
q-37 0 -67.5 -13.5t-53 -37.5t-35 -56.5t-12.5 -69.5q0 -48 29.5 -74t80.5 -26q63 0 106 36t57 102z" />
    <glyph glyph-name="nine" unicode="9" horiz-adv-x="480" 
d="M487 479q3 15 5 30.5t2 30.5q0 26 -6 50.5t-19.5 43t-35.5 29.5t-54 11q-72 0 -124.5 -51.5t-73.5 -154.5q-7 -31 -7 -62q0 -57 27.5 -92.5t90.5 -35.5q40 0 72 15.5t56.5 42.5t41 64t25.5 79zM133 149q-3 -14 -3 -27q0 -19 5.5 -37t18 -32t32.5 -22.5t49 -8.5
q48 0 85.5 25.5t67 71.5t51 109t37.5 138l3 14h-2q-11 -23 -28 -47t-41.5 -44t-56 -32.5t-71.5 -12.5q-72 0 -110.5 39t-38.5 114q0 65 19 121.5t53 98.5t81 66.5t104 24.5q43 0 71.5 -13.5t45.5 -36.5t24 -54.5t7 -68.5t-6 -77t-14 -81q-17 -78 -39.5 -149t-56.5 -124
t-81.5 -84.5t-114.5 -31.5q-42 0 -68.5 13t-41.5 32.5t-20 42.5t-5 43v16.5t2 13.5h42z" />
    <glyph glyph-name="colon" unicode=":" horiz-adv-x="240" 
d="M202 497h42l-21 -102h-42zM120 102h42l-21 -102h-42z" />
    <glyph glyph-name="semicolon" unicode=";" horiz-adv-x="240" 
d="M202 497h42l-21 -102h-42zM120 102h42l-21 -100q-6 -30 -13.5 -50.5t-17.5 -35t-23.5 -25t-30.5 -19.5l7 34q22 14 31 37.5t17 56.5h-12z" />
    <glyph glyph-name="less" unicode="&#x3c;" horiz-adv-x="600" 
d="M103 270l556 242l-6 -30l-524 -229l428 -229l-6 -30l-455 242z" />
    <glyph glyph-name="equal" unicode="=" horiz-adv-x="600" 
d="M82 172h506l-7 -34h-506zM123 368h506l-7 -34h-506z" />
    <glyph glyph-name="greater" unicode="&#x3e;" horiz-adv-x="600" 
d="M602 236l-557 -242l6 30l524 229l-428 229l6 30l456 -242z" />
    <glyph glyph-name="question" unicode="?" 
d="M202 96h42l-19 -96h-42zM231 233q8 42 27 72t42.5 53.5t49 43t49 42t41 50t25.5 66.5q2 9 3 18t1 17q0 47 -28.5 72t-79.5 25q-41 0 -71 -15t-51.5 -39t-34.5 -54.5t-19 -61.5l-3 -13h-42l4 16q7 33 23.5 68.5t43.5 65t66 48.5t90 19q41 0 68.5 -11t44.5 -28.5t24 -40
t7 -45.5q0 -11 -1 -20t-3 -19q-9 -45 -27.5 -76t-42 -54.5t-49 -42.5t-49 -40.5t-41 -48t-25.5 -65.5l-10 -52h-42z" />
    <glyph glyph-name="at" unicode="@" horiz-adv-x="800" 
d="M729 557l-155 -292q-10 -19 -20 -36t-10 -29q0 -13 10 -21t24 -8q40 0 82.5 28t78 71.5t58 97.5t22.5 107q0 51 -20.5 91.5t-56 68.5t-82.5 42.5t-100 14.5q-79 0 -154.5 -33.5t-135 -89.5t-95.5 -128.5t-36 -151.5q0 -60 23 -109t62 -84.5t90.5 -54.5t108.5 -19
q43 0 86 10t84 29.5t78 46.5t69 62h42q-32 -42 -74.5 -75.5t-90.5 -57.5t-99.5 -36.5t-101.5 -12.5q-72 0 -131 21.5t-101 59.5t-65 91.5t-23 118.5q0 61 18.5 118.5t50.5 107t76.5 90.5t96.5 70t110 45t117 16q66 0 121 -17.5t94 -49t60.5 -77t21.5 -100.5
q0 -64 -29.5 -126t-74.5 -110.5t-98.5 -78.5t-102.5 -30q-23 0 -39.5 12t-16.5 38q0 9 3 20h-2q-33 -34 -72.5 -52t-81.5 -18q-53 0 -80 32t-27 80q0 36 12.5 74t34 74.5t51 69t64 57t72 39t75.5 14.5q25 0 43.5 -7.5t30.5 -20t17.5 -29t5.5 -33.5h2l38 70h42zM287 288
q-4 -17 -4 -35q0 -40 22 -61t63 -21t81 27.5t73 67.5t56 84.5t30 77.5q2 10 4 21t2 23q0 13 -3.5 26t-12 23t-23.5 16t-38 6q-45 0 -86.5 -25t-75 -62.5t-56.5 -82.5t-32 -85z" />
    <glyph glyph-name="A" unicode="A" horiz-adv-x="481" 
d="M421 222h-269l-114 -222h-42l370 714h53l66 -714h-42zM383 672h-2l-212 -416h251z" />
    <glyph glyph-name="B" unicode="B" horiz-adv-x="500" 
d="M251 34q88 0 140 36t70 125q3 14 4 26t1 23q0 33 -11 54.5t-31 34.5t-47.5 18.5t-60.5 5.5h-139l-67 -323h141zM321 391q38 0 73 11t61.5 34.5t42.5 59.5t16 86q0 98 -115 98h-155l-60 -289h137zM209 714h192q86 0 121 -33.5t35 -89.5q0 -49 -13.5 -87t-37 -65t-54.5 -43
t-66 -20l-1 -2q63 -5 93 -40.5t30 -90.5q0 -56 -19.5 -101t-53 -76.5t-79 -48.5t-97.5 -17h-156h-42z" />
    <glyph glyph-name="C" unicode="C" horiz-adv-x="500" 
d="M530 509q2 14 3.5 26.5t1.5 25.5q0 27 -7 51t-22 42t-38 28t-56 10q-53 0 -94 -24t-72 -67.5t-53.5 -105.5t-38.5 -137q-10 -46 -15 -88t-6 -78q0 -39 7 -70t23 -53.5t41.5 -34.5t62.5 -12q52 0 90.5 26t65 62t41.5 72.5t19 57.5h42q-6 -32 -24 -75t-51 -82.5t-81.5 -67
t-115.5 -27.5q-85 0 -123.5 51t-38.5 147q0 37 5.5 79.5t15.5 90.5q17 84 43.5 152.5t64 116.5t86.5 74.5t111 26.5q48 0 79.5 -15t49.5 -39t25 -53t7 -56q0 -15 -2 -29t-4 -25h-42z" />
    <glyph glyph-name="D" unicode="D" horiz-adv-x="519" 
d="M209 714h163q45 0 82 -9t63.5 -31.5t41.5 -61t15 -98.5q0 -66 -19 -157q-23 -110 -58.5 -179.5t-79 -109t-93 -54t-100.5 -14.5h-121h-42zM231 34q114 0 180.5 79.5t101.5 243.5q19 88 19 155q0 86 -38.5 127t-128.5 41h-121l-134 -646h121z" />
    <glyph glyph-name="E" unicode="E" 
d="M209 714h341l-8 -38h-299l-59 -285h279l-8 -38h-279l-66 -315h308l-7 -38h-309h-41z" />
    <glyph glyph-name="F" unicode="F" horiz-adv-x="407" 
d="M209 714h342l-8 -38h-300l-59 -285h279l-8 -38h-279l-73 -353h-42z" />
    <glyph glyph-name="G" unicode="G" horiz-adv-x="519" 
d="M476 144h-2q-32 -73 -88 -114.5t-132 -41.5q-85 0 -123.5 51.5t-38.5 148.5q0 71 20 168q17 84 43.5 152.5t64 116.5t86.5 74.5t111 26.5q48 0 79.5 -15t49.5 -39t25 -53t7 -56q0 -15 -2 -29t-4 -25h-42q2 14 3.5 26.5t1.5 25.5q0 27 -7 51t-22 42t-38 28t-56 10
q-53 0 -94 -24t-72 -67.5t-53.5 -105.5t-38.5 -137q-10 -46 -15 -88t-6 -78q0 -39 7 -70t23 -53.5t41.5 -34.5t62.5 -12q50 0 88.5 22.5t67 59t46.5 82.5t28 93l9 44h-196l7 34h238l-74 -357h-34z" />
    <glyph glyph-name="H" unicode="H" horiz-adv-x="519" 
d="M209 714h42l-65 -313h313l65 313h42l-148 -714h-42l75 363h-313l-75 -363h-42z" />
    <glyph glyph-name="I" unicode="I" horiz-adv-x="164" 
d="M209 714h42l-148 -714h-42z" />
    <glyph glyph-name="J" unicode="J" horiz-adv-x="407" 
d="M104 187q-5 -19 -6.5 -36t-1.5 -31q0 -98 90 -98q24 0 47 6.5t43.5 22.5t36 43.5t24.5 68.5l115 551h42l-115 -551q-19 -90 -72 -132.5t-125 -42.5t-100 33t-28 89q0 19 2.5 39.5t7.5 43.5l3 16h42z" />
    <glyph glyph-name="K" unicode="K" horiz-adv-x="463" 
d="M209 714h42l-83 -397h2l378 397h46l-287 -301l161 -413h-48l-147 378l-117 -122l-53 -256h-42z" />
    <glyph glyph-name="L" unicode="L" 
d="M209 714h42l-141 -676h299l-7 -38h-302h-39z" />
    <glyph glyph-name="M" unicode="M" horiz-adv-x="648" 
d="M689 660h-2l-342 -660h-42l-68 660h-2l-137 -660h-42l148 714h68l69 -642h2l332 642h69l-148 -714h-42z" />
    <glyph glyph-name="N" unicode="N" horiz-adv-x="519" 
d="M258 714l176 -648h2l135 648h42l-148 -714h-55l-178 648h-2l-134 -648h-42l148 714h56z" />
    <glyph glyph-name="O" unicode="O" horiz-adv-x="537" 
d="M412 692q-53 0 -94 -25t-72.5 -69t-54 -106t-37.5 -135q-20 -95 -20 -166q0 -78 31 -123.5t108 -45.5q99 0 161 82t97 253q9 44 14 83.5t5 74.5q0 81 -31.5 129t-106.5 48zM419 726q41 0 73 -10.5t54.5 -34.5t34.5 -62.5t12 -93.5q0 -35 -5 -76.5t-15 -91.5
q-24 -117 -61 -189.5t-79 -112.5t-85.5 -53.5t-81.5 -13.5q-39 0 -71.5 11t-55 35t-35 63t-12.5 95q0 35 4.5 75.5t15.5 89.5q21 104 53.5 174.5t72.5 114t86 62t95 18.5z" />
    <glyph glyph-name="P" unicode="P" horiz-adv-x="463" 
d="M314 352q33 0 68 11.5t63.5 37t46.5 66t18 98.5q0 56 -31 85.5t-91 29.5h-144l-68 -328h138zM209 714h185q46 -1 76.5 -13t49 -31t26 -43t7.5 -48q0 -59 -18.5 -107t-51.5 -82.5t-79 -53t-101 -18.5h-134l-66 -318h-42z" />
    <glyph glyph-name="Q" unicode="Q" horiz-adv-x="537" 
d="M414 39q-35 -27 -72.5 -39t-75.5 -12q-39 0 -71.5 11t-55 35t-35 63t-12.5 95q0 35 4.5 75.5t15.5 89.5q21 104 53.5 174.5t72.5 114t86 62t95 18.5q41 0 73 -10.5t54.5 -34.5t34.5 -62.5t12 -93.5q0 -76 -14 -148t-36 -133t-48.5 -107t-51.5 -71l60 -78l-30 -25zM423 92
q40 48 65.5 114t42.5 151q9 44 14 83.5t5 74.5q0 81 -31.5 129t-106.5 48q-53 0 -94 -25t-72.5 -69t-54 -106t-37.5 -135q-20 -95 -20 -166q0 -78 31 -123.5t108 -45.5q35 0 64.5 10.5t57.5 30.5l-70 89l30 25z" />
    <glyph glyph-name="R" unicode="R" horiz-adv-x="500" 
d="M312 365q30 0 61 6t59 24t49.5 49.5t32.5 82.5q2 12 3.5 23t1.5 22q0 51 -29.5 79.5t-84.5 28.5h-161l-66 -315h134zM209 714h209q63 0 103.5 -32t40.5 -102q0 -44 -13.5 -83.5t-37.5 -70.5t-58.5 -51t-76.5 -25v-2q63 -5 86 -32t23 -72q0 -17 -1.5 -35t-6.5 -38l-16 -75
q-3 -14 -4 -24.5t-1 -21.5q0 -26 10 -50h-48q-5 18 -5 39q0 27 7 58l15 73q4 20 6 37t2 31q0 45 -27 69t-91 24h-154l-68 -331h-42z" />
    <glyph glyph-name="S" unicode="S" horiz-adv-x="481" 
d="M115 183q-2 -11 -3 -21t-1 -19q0 -54 33 -87.5t99 -33.5q42 0 79 16t64.5 44t43.5 65t16 78q0 46 -27.5 70.5t-74.5 41.5l-76 28q-55 20 -84 49.5t-29 80.5q0 53 19.5 95.5t52 72.5t75 46.5t87.5 16.5q82 0 120 -36t38 -99q0 -14 -2 -28.5t-5 -30.5h-42q6 27 6 51
q0 51 -28 80t-90 29q-30 0 -63 -9.5t-61 -31t-46 -57.5t-18 -88q0 -42 22.5 -64t58.5 -36l98 -37q54 -20 83.5 -49.5t29.5 -82.5q0 -60 -22.5 -106t-58.5 -78t-81.5 -48.5t-91.5 -16.5q-51 0 -84 13.5t-52 34.5t-26.5 47t-7.5 51q0 11 1 20.5t3 18.5l10 47h42z" />
    <glyph glyph-name="T" unicode="T" 
d="M332 676h-190l8 38h422l-8 -38h-190l-140 -676h-42z" />
    <glyph glyph-name="U" unicode="U" horiz-adv-x="500" 
d="M133 189q-6 -29 -6 -54q0 -52 29.5 -82.5t97.5 -30.5q78 0 126.5 46t64.5 121l109 525h42l-108 -517q-12 -60 -37.5 -100.5t-58.5 -64.5t-70.5 -34t-74.5 -10q-32 0 -61.5 6t-52 21.5t-36 43t-13.5 69.5q0 15 2 32t6 37l108 517h42z" />
    <glyph glyph-name="V" unicode="V" horiz-adv-x="444" 
d="M149 714h42l39 -666h2l317 666h42l-343 -714h-52z" />
    <glyph glyph-name="W" unicode="W" horiz-adv-x="704" 
d="M488 654h-2l-270 -654h-50l-7 714h42l1 -654h2l270 654h51l-1 -654h2l273 654h42l-304 -714h-52z" />
    <glyph glyph-name="X" unicode="X" horiz-adv-x="463" 
d="M298 324l-245 -324h-45l277 363l-112 351h42l102 -309l232 309h42l-261 -351l125 -363h-46z" />
    <glyph glyph-name="Y" unicode="Y" horiz-adv-x="444" 
d="M262 294l-108 420h46l92 -376l252 376h42l-282 -420l-61 -294h-42z" />
    <glyph glyph-name="Z" unicode="Z" horiz-adv-x="443" 
d="M25 42l495 634h-342l8 38h384l-9 -42l-495 -634h367l-7 -38h-409z" />
    <glyph glyph-name="bracketleft" unicode="[" horiz-adv-x="222" 
d="M230 714h134l-6 -30h-100l-175 -838h100l-6 -30h-100h-34z" />
    <glyph glyph-name="backslash" unicode="\" horiz-adv-x="278" 
d="M284 -12h-40l-103 738h40z" />
    <glyph glyph-name="bracketright" unicode="]" horiz-adv-x="222" 
d="M101 -184h-34h-99l6 30h99l175 838h-100l6 30h134z" />
    <glyph glyph-name="asciicircum" unicode="^" horiz-adv-x="600" 
d="M427 696h34l142 -453h-30l-134 427l-312 -427h-30z" />
    <glyph glyph-name="underscore" unicode="_" horiz-adv-x="500" 
d="M-25 -125l10 50h499l-10 -50h-499z" />
    <glyph glyph-name="grave" unicode="`" horiz-adv-x="148" 
d="M237 596h-33l-63 140h48z" />
    <glyph glyph-name="a" unicode="a" horiz-adv-x="389" 
d="M357 305h-2q-12 -16 -27.5 -21.5t-45.5 -13.5l-82 -21q-54 -14 -83 -51.5t-29 -102.5q0 -34 18.5 -53.5t59.5 -19.5q67 0 109.5 48t58.5 127zM345 63q-3 -9 -3 -16q0 -10 5 -14.5t13 -4.5q13 0 25 5l-6 -30q-14 -9 -42 -9q-11 0 -23 9.5t-12 32.5q0 3 0.5 6.5t1.5 8.5
l7 33h-2q-20 -42 -61.5 -69t-95.5 -27q-57 0 -81.5 29t-24.5 75q0 78 37.5 123.5t103.5 62.5l120 31q41 11 56 39.5t15 79.5q0 22 -6 36t-17 22.5t-26 11.5t-32 3q-33 0 -57 -9.5t-40.5 -27t-27 -40.5t-16.5 -50h-38q6 27 18 55.5t33 52t53 38.5t78 15q68 0 93.5 -26.5
t25.5 -66.5q0 -11 -1.5 -22t-3.5 -23z" />
    <glyph glyph-name="b" unicode="b" 
d="M330 501q-72 0 -115.5 -58.5t-69.5 -179.5q-15 -69 -15 -120q0 -59 22 -90t71 -31q39 0 67.5 19t49.5 51.5t35.5 76.5t24.5 94q17 80 17 130q0 56 -21 82t-66 26zM201 714h38l-59 -283h2q12 21 26.5 40t33 33t42 22.5t54.5 8.5q67 0 93.5 -38.5t26.5 -102.5q0 -29 -4 -62
t-12 -69q-13 -61 -32 -111.5t-45.5 -87t-61.5 -56.5t-81 -20q-56 0 -82.5 29.5t-26.5 83.5h-2l-20 -101h-38z" />
    <glyph glyph-name="c" unicode="c" horiz-adv-x="389" 
d="M404 171q-4 -18 -16.5 -49t-36.5 -61t-60 -51.5t-87 -21.5q-71 0 -99.5 40t-28.5 108q0 29 4 61t12 67q27 133 83 202t150 69q35 0 58.5 -11.5t37.5 -29.5t19.5 -39.5t5.5 -40.5q0 -28 -3 -41h-42q3 10 3 27q0 15 -4 33t-13.5 33t-26.5 25t-43 10q-73 0 -116.5 -62
t-66.5 -177q-8 -37 -12 -67.5t-4 -56.5q0 -60 24 -88t75 -28q36 0 62 18t43.5 42t27 49t12.5 40h42z" />
    <glyph glyph-name="d" unicode="d" 
d="M134 263q-7 -34 -11 -65t-4 -58q0 -54 20 -86t72 -32q70 0 112 63t66 178q15 69 15 115q0 66 -25 94.5t-70 28.5q-69 0 -109.5 -58.5t-65.5 -179.5zM355 101h-2q-20 -54 -60 -83.5t-95 -29.5q-66 0 -94 39.5t-28 108.5q0 28 4 60t12 67q12 60 30 110t45 86t63 56t84 20
q27 0 46.5 -8.5t32 -22.5t19.5 -33t10 -40h2l59 283h38l-148 -714h-38z" />
    <glyph glyph-name="e" unicode="e" horiz-adv-x="407" 
d="M134 264q-5 -27 -11 -61t-6 -68q0 -23 4 -43t14.5 -36t27.5 -25t44 -9q41 0 70 18t47.5 42t28.5 49t13 40h38q-6 -30 -21.5 -62.5t-40.5 -59t-59.5 -44t-78.5 -17.5q-70 0 -98.5 37t-28.5 106q0 62 18 145q25 120 82.5 189.5t146.5 69.5q66 0 94 -36.5t28 -104.5
q0 -28 -4 -60.5t-12 -69.5h-296zM395 298q5 24 8 49t3 48q0 22 -4 41.5t-14.5 33.5t-28 22.5t-44.5 8.5q-44 0 -74.5 -22t-50.5 -54t-31.5 -67t-17.5 -60h254z" />
    <glyph glyph-name="f" unicode="f" horiz-adv-x="204" 
d="M180 489h-71l7 34h71l18 87q10 45 35.5 74.5t78.5 29.5q9 0 19 -0.5t19 -2.5l-7 -34q-12 3 -32 3q-25 0 -45.5 -14t-28.5 -54l-19 -89h87l-7 -34h-87l-101 -489h-38z" />
    <glyph glyph-name="g" unicode="g" 
d="M379 29q-10 -48 -26.5 -87.5t-41.5 -67.5t-60.5 -43t-84.5 -15q-38 0 -61 10t-36 25t-17 32.5t-4 32.5q0 10 1 17.5t2 12.5h38q-3 -12 -3 -24q0 -32 21.5 -52t69.5 -20q67 0 105 39t55 121l20 96h-3q-9 -17 -22.5 -36t-32.5 -34.5t-44.5 -25.5t-59.5 -10q-65 0 -91 40.5
t-26 104.5q0 52 14 119q11 54 27.5 103t42.5 86.5t63 59.5t89 22q51 0 77.5 -26.5t31.5 -72.5h2l18 87h38zM134 264q-6 -32 -9.5 -59.5t-3.5 -52.5q0 -54 20.5 -86t72.5 -32q36 0 64 17t49.5 48.5t37 75.5t26.5 97q13 62 13 111q0 118 -88 118q-32 0 -59 -12t-49.5 -40
t-41 -73t-32.5 -112z" />
    <glyph glyph-name="h" unicode="h" horiz-adv-x="407" 
d="M199 714h38l-56 -270h2q10 17 25 33.5t34.5 29t42.5 20.5t50 8q28 0 50 -8t36.5 -25.5t19 -44t-3.5 -63.5l-81 -394h-38l78 376q14 70 -7.5 97.5t-70.5 27.5q-30 0 -56 -13t-47 -35.5t-35.5 -53t-21.5 -64.5l-69 -335h-38z" />
    <glyph glyph-name="i" unicode="i" horiz-adv-x="148" 
d="M203 714h38l-21 -102h-38zM163 523h38l-108 -523h-38z" />
    <glyph glyph-name="j" unicode="j" horiz-adv-x="148" 
d="M203 714h38l-21 -102h-38zM-67 -142q7 -1 14 -1.5t14 -0.5q11 0 23 2.5t23 10t19.5 22t13.5 39.5l123 593h38l-122 -589q-14 -64 -46 -88t-72 -24q-9 0 -17.5 0.5t-17.5 1.5z" />
    <glyph glyph-name="k" unicode="k" horiz-adv-x="389" 
d="M199 714h38l-98 -469h2l284 278h48l-202 -194l123 -329h-48l-109 295l-109 -103l-39 -192h-38z" />
    <glyph glyph-name="l" unicode="l" horiz-adv-x="148" 
d="M203 714h38l-148 -714h-38z" />
    <glyph glyph-name="m" unicode="m" horiz-adv-x="648" 
d="M165 523h38l-16 -78h2q20 42 58 66t87 24q30 0 49 -8.5t28.5 -22.5t12.5 -31.5t2 -35.5h2q6 14 18.5 31t31 32t43.5 25t56 10q63 0 86.5 -35t10.5 -98l-83 -402h-38l81 393q11 54 -7 81t-60 27q-60 0 -99 -42.5t-53 -111.5l-72 -347h-38l77 375q13 60 -0.5 93t-64.5 33
q-31 0 -56 -12.5t-44 -33.5t-31.5 -49t-18.5 -59l-72 -347h-38z" />
    <glyph glyph-name="n" unicode="n" horiz-adv-x="407" 
d="M159 523h38l-16 -79h2q10 17 25 33.5t34.5 29t42.5 20.5t50 8q47 0 77 -23.5t30 -74.5q0 -10 -1.5 -20.5t-3.5 -22.5l-81 -394h-38l78 376q3 14 4 25.5t1 21.5q0 43 -22 60.5t-61 17.5q-30 0 -56 -13t-47 -35.5t-35.5 -53t-21.5 -64.5l-69 -335h-38z" />
    <glyph glyph-name="o" unicode="o" 
d="M400 261q15 69 15 119q0 59 -22.5 90t-75.5 31q-75 0 -117.5 -62.5t-65.5 -177.5q-7 -35 -11 -64t-4 -55q0 -58 22.5 -89t75.5 -31q75 0 117.5 62t65.5 177zM442 262q-12 -57 -30 -106.5t-45.5 -87t-66.5 -59t-93 -21.5q-36 0 -61 11t-40.5 30.5t-22 47.5t-6.5 61
q0 73 15.5 144t46.5 127t78 91t110 35q36 0 61 -11t40.5 -30.5t22 -47.5t6.5 -61q0 -28 -4 -59t-11 -64z" />
    <glyph glyph-name="p" unicode="p" 
d="M145 263q-15 -69 -15 -120q0 -59 22 -90t71 -31q39 0 67.5 19t49.5 51.5t35.5 76.5t24.5 94q14 70 14 115q0 65 -22.5 94t-61.5 29q-72 0 -115.5 -58.5t-69.5 -179.5zM161 523h38l-19 -92h2q12 21 26.5 40t33 33t42 22.5t54.5 8.5q65 0 92 -40.5t27 -106.5
q0 -28 -4 -59.5t-11 -65.5q-13 -61 -32 -111.5t-45.5 -87t-61.5 -56.5t-81 -20q-56 0 -82.5 29.5t-26.5 83.5h-2l-57 -277h-38z" />
    <glyph glyph-name="q" unicode="q" 
d="M134 263q-7 -34 -11 -65t-4 -58q0 -54 20 -86t72 -32q70 0 112 63t66 178q15 67 15 117q0 121 -95 121q-61 0 -105 -57t-70 -181zM355 101h-2q-20 -54 -60 -83.5t-95 -29.5q-66 0 -94 39.5t-28 108.5q0 28 4 60t12 67q12 57 30 107t44.5 86.5t62.5 57.5t85 21
q29 0 48.5 -8.5t31.5 -22.5t18.5 -33t9.5 -40h2l19 92h38l-145 -699h-38z" />
    <glyph glyph-name="r" unicode="r" horiz-adv-x="241" 
d="M159 523h38l-19 -91h2q24 45 62.5 74t90.5 29h22l-7 -34h-22q-33 0 -61 -14.5t-50 -38t-36.5 -54t-20.5 -62.5l-69 -332h-38z" />
    <glyph glyph-name="s" unicode="s" horiz-adv-x="352" 
d="M353 376l3 15q2 9 3 19t1 20q0 28 -16 49.5t-63 21.5q-22 0 -44 -7t-40 -22t-29.5 -39t-11.5 -57q0 -28 15 -45.5t45 -29.5l74 -30q35 -14 53 -38t18 -60q0 -42 -15.5 -76t-41.5 -58t-59.5 -37.5t-69.5 -13.5q-39 0 -64 9.5t-39.5 24.5t-19.5 34.5t-5 39.5q0 15 2 29.5
t5 27.5l3 14h38l-3 -17q-2 -12 -3.5 -22.5t-1.5 -21.5q0 -38 21.5 -61t73.5 -23q33 0 58 12t42.5 31.5t26 44t8.5 50.5t-13.5 45t-45.5 33l-71 31q-37 16 -55.5 38.5t-18.5 56.5q0 42 14.5 73.5t39 53.5t56 33t65.5 11q33 0 54.5 -8t34 -21.5t17.5 -30.5t5 -36q0 -22 -5 -47
l-3 -16h-38z" />
    <glyph glyph-name="t" unicode="t" horiz-adv-x="204" 
d="M116 523h71l32 155h38l-32 -155h87l-7 -34h-87l-84 -403q-3 -14 -3 -23q0 -23 12 -29t25 -6q12 0 23.5 1t25.5 5l-7 -34q-15 -3 -30 -4.5t-26 -1.5q-33 0 -47.5 14t-14.5 41q0 7 1 15.5t3 17.5l84 407h-71z" />
    <glyph glyph-name="u" unicode="u" horiz-adv-x="407" 
d="M356 0h-38l16 79h-2q-11 -17 -26 -33.5t-34 -29.5t-42 -20.5t-50 -7.5q-28 0 -50.5 8t-36.5 25.5t-19 44t3 63.5l82 394h38l-78 -376q-14 -70 7.5 -97.5t70.5 -27.5q30 0 56 13t47 35.5t35.5 52.5t21.5 65l69 335h38z" />
    <glyph glyph-name="v" unicode="v" horiz-adv-x="352" 
d="M156 0l-39 523h42l28 -475h2l220 475h42l-250 -523h-45z" />
    <glyph glyph-name="w" unicode="w" horiz-adv-x="537" 
d="M368 469h-2l-200 -469h-48l-4 523h42l-4 -469h2l200 469h48l2 -469h2l191 469h42l-221 -523h-48z" />
    <glyph glyph-name="x" unicode="x" horiz-adv-x="352" 
d="M209 269l-81 254h47l64 -222l159 222h42l-186 -254l85 -269h-47l-68 236l-169 -236h-42z" />
    <glyph glyph-name="y" unicode="y" horiz-adv-x="352" 
d="M409 523h42l-252 -528l-35 -73q-26 -54 -58 -76t-78 -22q-10 0 -19.5 0.5t-18.5 1.5l7 34q10 -1 16.5 -1.5t15.5 -0.5q18 0 32 3t26 12t23.5 25t23.5 42l27 55l-44 528h42l35 -469h2z" />
    <glyph glyph-name="z" unicode="z" horiz-adv-x="334" 
d="M22 34l353 455h-245l7 34h287l-7 -34l-353 -455h262l-7 -34h-304z" />
    <glyph glyph-name="braceleft" unicode="{" horiz-adv-x="222" 
d="M87 280q21 0 37.5 13t29 34t21 47.5t13.5 53.5l35 168q14 68 42 93t70 25h49l-6 -30h-51q-29 0 -45 -21.5t-25 -66.5l-34 -166q-11 -52 -26 -83.5t-30 -49t-28.5 -24t-20.5 -7.5l-1 -2q6 -2 13.5 -6t15 -13t12.5 -24.5t5 -41.5q1 -16 -1.5 -35t-7.5 -43l-34 -167
q-6 -27 -6 -46q0 -42 38 -42h51l-6 -30h-49q-33 0 -50.5 14t-17.5 52q0 22 6 52l35 168q4 18 5.5 36.5t1.5 35.5q0 32 -10 54t-38 22z" />
    <glyph glyph-name="bar" unicode="|" horiz-adv-x="222" 
d="M242 726h38l-153 -738h-38z" />
    <glyph glyph-name="braceright" unicode="}" horiz-adv-x="222" 
d="M244 250q-21 0 -37.5 -13t-29 -34t-21 -47.5t-13.5 -53.5l-35 -168q-14 -68 -42 -93t-69 -25h-49l6 30h50q29 0 45 21.5t25 66.5l34 166q10 52 25 83.5t30.5 48.5t28.5 23.5t21 8.5l1 2q-5 1 -13 4.5t-15.5 13t-12.5 26t-5 43.5q0 29 9 76l34 167q6 27 6 46q0 42 -38 42
h-51l6 30h49q32 0 50 -14t18 -52q0 -22 -6 -52l-35 -168q-8 -38 -8 -72q0 -32 10.5 -54t38.5 -22z" />
    <glyph glyph-name="asciitilde" unicode="~" horiz-adv-x="600" 
d="M117 221q15 17 29.5 32t30.5 26.5t35.5 18t44.5 6.5q29 0 54.5 -10.5t48.5 -23.5t47 -23.5t54 -10.5q18 0 33.5 7.5t29 18t24.5 23t20 22.5l19 -22q-15 -17 -29.5 -32t-31 -26.5t-36 -18t-43.5 -6.5q-29 0 -54 10.5t-48 23.5q-24 13 -47.5 23.5t-53.5 10.5
q-18 0 -34 -7.5t-29.5 -18t-24.5 -23t-20 -22.5z" />
    <glyph glyph-name="Euro" unicode="&#x20ac;" horiz-adv-x="480" 
d="M579 574q-6 33 -22 52.5t-35.5 30t-40.5 14t-37 3.5q-32 0 -63.5 -8.5t-62.5 -34.5q-23 -19 -40 -44.5t-30 -54t-22 -56.5t-15 -52h279l-21 -34h-267q-5 -20 -9.5 -41t-7.5 -41h235l-22 -34h-220q-4 -23 -6 -43.5t-2 -37.5q0 -54 11.5 -87t31 -52t45 -25.5t53.5 -6.5
q30 0 58.5 9.5t52.5 23.5t42.5 30.5t29.5 30.5l-13 -60q-25 -23 -51.5 -36t-51 -20.5t-45.5 -9.5t-34 -2q-39 0 -70.5 8.5t-57.5 38.5q-7 7 -14.5 19t-14 29t-11 41t-4.5 56q0 20 2 43.5t7 50.5h-76l22 34h61q3 20 7.5 40t9.5 42h-75l21 34h63q18 70 47.5 129.5t77.5 101.5
q40 34 78.5 43.5t76.5 9.5q22 0 46 -3t46 -13t39.5 -27.5t27.5 -46.5z" />
    <glyph glyph-name="quotesinglbase" unicode="&#x201a;" horiz-adv-x="184" 
d="M117 2q-6 -30 -13.5 -50.5t-17.5 -35t-23.5 -25t-30.5 -19.5l7 34q22 14 31 37.5t17 56.5h-12l21 102h42z" />
    <glyph glyph-name="florin" unicode="&#x192;" horiz-adv-x="480" 
d="M223 440h103l47 111q14 32 29.5 61.5t36.5 52t49.5 36t67.5 13.5q16 0 29 -2t20 -4l-15 -34q-7 2 -18.5 4t-23.5 2q-36 0 -68 -24.5t-58 -87.5l-54 -128h113l-14 -34h-112l-183 -451q-26 -66 -71.5 -98.5t-100.5 -32.5q-14 0 -23 2t-20 5l15 35q18 -8 33 -8q50 0 79.5 29
t54.5 90l174 429h-103z" />
    <glyph glyph-name="quotedblbase" unicode="&#x201e;" horiz-adv-x="296" 
d="M229 2q-6 -30 -13.5 -50.5t-17.5 -35t-23.5 -25t-30.5 -19.5l7 34q22 14 31 37.5t17 56.5h-12l21 102h42zM117 2q-6 -30 -13.5 -50.5t-17.5 -35t-23.5 -25t-30.5 -19.5l7 34q22 14 31 37.5t17 56.5h-12l21 102h42z" />
    <glyph glyph-name="ellipsis" unicode="&#x2026;" horiz-adv-x="1000" 
d="M833 102h42l-21 -102h-42zM500 102h42l-21 -102h-42zM167 102h42l-21 -102h-42z" />
    <glyph glyph-name="dagger" unicode="&#x2020;" horiz-adv-x="480" 
d="M189 -151l125 600h-180l7 34h180l48 231h38l-48 -231h180l-7 -34h-180l-125 -600h-38z" />
    <glyph glyph-name="daggerdbl" unicode="&#x2021;" horiz-adv-x="480" 
d="M189 -151l45 217h-180l7 34h180l77 369h-180l7 34h180l44 211h38l-44 -211h180l-7 -34h-180l-77 -369h180l-7 -34h-180l-45 -217h-38z" />
    <glyph glyph-name="circumflex" unicode="&#x2c6;" horiz-adv-x="148" 
d="M204 736h42l64 -140h-42l-50 110l-96 -110h-42z" />
    <glyph glyph-name="perthousand" unicode="&#x2030;" horiz-adv-x="963" 
d="M611 165q5 21 6.5 38.5t1.5 31.5q0 45 -18 61t-48 16q-17 0 -34.5 -6.5t-33 -23t-28.5 -45t-22 -72.5t-9 -73q0 -43 18 -58.5t48 -15.5q19 0 36.5 6.5t32.5 23t27.5 45t22.5 72.5zM401 165q18 88 56.5 132.5t102.5 44.5q52 0 73.5 -24t21.5 -71q0 -17 -2.5 -38t-7.5 -44
q-19 -91 -57.5 -134t-101.5 -43q-53 0 -74.5 23.5t-21.5 69.5q0 34 11 84zM158 531q18 88 56.5 132.5t102.5 44.5q52 0 73.5 -24t21.5 -71q0 -17 -2.5 -38t-7.5 -44q-19 -91 -57.5 -134t-101.5 -43q-53 0 -74.5 23.5t-21.5 69.5q0 34 11 84zM705 165q18 88 56.5 132.5
t102.5 44.5q52 0 73.5 -24t21.5 -71q0 -17 -2.5 -38t-7.5 -44q-19 -91 -57.5 -134t-101.5 -43q-53 0 -74.5 23.5t-21.5 69.5q0 34 11 84zM368 531q5 21 6.5 38.5t1.5 31.5q0 45 -18 61t-48 16q-17 0 -34.5 -6.5t-33 -23t-28.5 -45t-22 -72.5t-9 -73q0 -43 18 -58.5t48 -15.5
q19 0 36.5 6.5t32.5 23t27.5 45t22.5 72.5zM609 708h34l-453 -720h-34zM915 165q5 21 6.5 38.5t1.5 31.5q0 45 -18 61t-48 16q-17 0 -34.5 -6.5t-33 -23t-28.5 -45t-22 -72.5t-9 -73q0 -43 18 -58.5t48 -15.5q19 0 36.5 6.5t32.5 23t27.5 45t22.5 72.5z" />
    <glyph glyph-name="Scaron" unicode="&#x160;" horiz-adv-x="481" 
d="M115 183q-2 -11 -3 -21t-1 -19q0 -54 33 -87.5t99 -33.5q42 0 79 16t64.5 44t43.5 65t16 78q0 46 -27.5 70.5t-74.5 41.5l-76 28q-55 20 -84 49.5t-29 80.5q0 53 19.5 95.5t52 72.5t75 46.5t87.5 16.5q82 0 120 -36t38 -99q0 -14 -2 -28.5t-5 -30.5h-42q6 27 6 51
q0 51 -28 80t-90 29q-30 0 -63 -9.5t-61 -31t-46 -57.5t-18 -88q0 -42 22.5 -64t58.5 -36l98 -37q54 -20 83.5 -49.5t29.5 -82.5q0 -60 -22.5 -106t-58.5 -78t-81.5 -48.5t-91.5 -16.5q-51 0 -84 13.5t-52 34.5t-26.5 47t-7.5 51q0 11 1 20.5t3 18.5l10 47h42zM319 910h42
l50 -110l96 110h42l-124 -140h-42z" />
    <glyph glyph-name="guilsinglleft" unicode="&#x2039;" horiz-adv-x="222" 
d="M106 251l8 38l142 139l-10 -50l-106 -108l62 -104l-10 -50z" />
    <glyph glyph-name="OE" unicode="&#x152;" horiz-adv-x="778" 
d="M530 539q6 30 6 54q0 99 -115 99q-52 0 -92 -23t-71 -66t-53.5 -105.5t-38.5 -140.5q-10 -48 -16 -88.5t-5 -75.5q0 -82 32.5 -126.5t104.5 -44.5q73 0 114 37t58 116zM765 38l-7 -38h-299h-41l12 60h-2q-29 -42 -69 -57t-91 -15q-87 0 -126 52.5t-39 147.5q0 73 21 169
q18 85 43.5 153.5t61.5 116.5t83 73.5t109 25.5q39 0 64 -8.5t40 -20t21 -22.5t7 -15h2l11 54h327l-8 -38h-285l-59 -285h264l-8 -38h-264l-66 -315h298z" />
    <glyph glyph-name="Zcaron" unicode="&#x17d;" horiz-adv-x="443" 
d="M25 42l495 634h-342l8 38h384l-9 -42l-495 -634h367l-7 -38h-409zM297 910h42l50 -110l96 110h42l-124 -140h-42z" />
    <glyph glyph-name="quoteleft" unicode="&#x2018;" horiz-adv-x="184" 
d="M188 584q6 30 13.5 50.5t17.5 35t23.5 25t30.5 19.5l-7 -34q-22 -14 -31.5 -37.5t-16.5 -56.5h12l-21 -102h-42z" />
    <glyph glyph-name="quoteright" unicode="&#x2019;" horiz-adv-x="184" 
d="M244 614q-6 -30 -13.5 -50.5t-17.5 -35t-23.5 -25t-30.5 -19.5l7 34q22 14 31.5 37.5t16.5 56.5h-12l21 102h42z" />
    <glyph glyph-name="quotedblleft" unicode="&#x201c;" horiz-adv-x="296" 
d="M188 584q6 30 13.5 50.5t17.5 35t23.5 25t30.5 19.5l-7 -34q-22 -14 -31.5 -37.5t-16.5 -56.5h12l-21 -102h-42zM300 584q6 30 13.5 50.5t17.5 35t23.5 25t30.5 19.5l-7 -34q-22 -14 -31.5 -37.5t-16.5 -56.5h12l-21 -102h-42z" />
    <glyph glyph-name="quotedblright" unicode="&#x201d;" horiz-adv-x="296" 
d="M356 614q-6 -30 -13.5 -50.5t-17.5 -35t-23.5 -25t-30.5 -19.5l7 34q22 14 31.5 37.5t16.5 56.5h-12l21 102h42zM244 614q-6 -30 -13.5 -50.5t-17.5 -35t-23.5 -25t-30.5 -19.5l7 34q22 14 31.5 37.5t16.5 56.5h-12l21 102h42z" />
    <glyph glyph-name="bullet" unicode="&#x2022;" horiz-adv-x="500" 
d="M146 357q7 37 28 69.5t50 56.5t64.5 38t72.5 14q33 0 59.5 -11t45 -30t29 -45t10.5 -56q0 -43 -19 -82t-49.5 -68t-70 -46.5t-79.5 -17.5q-32 0 -59 10.5t-46 29.5t-29.5 45t-10.5 56q0 20 4 37z" />
    <glyph glyph-name="endash" unicode="&#x2013;" horiz-adv-x="500" 
d="M60 289h500l-7 -34h-500z" />
    <glyph glyph-name="emdash" unicode="&#x2014;" horiz-adv-x="1000" 
d="M60 289h1000l-7 -34h-1000z" />
    <glyph glyph-name="tilde" unicode="&#x2dc;" horiz-adv-x="148" 
d="M342 711q-2 -12 -8.5 -27t-17.5 -28t-27 -22t-36 -9q-17 0 -29 8t-22.5 17.5t-20.5 17.5t-22 8t-21 -6t-15 -14.5t-9.5 -18t-4.5 -16.5h-30q2 12 8.5 26.5t17.5 27.5t26.5 22t35.5 9q17 0 29.5 -8t23 -17.5t20.5 -17.5t22 -8q13 0 21.5 6t14.5 15t9 18.5t5 16.5h30z" />
    <glyph glyph-name="trademark" unicode="&#x2122;" horiz-adv-x="1000" 
d="M989 680h-2l-244 -378h-18l-86 378h-2l-79 -378h-34l86 412h58l80 -348l226 348h56l-86 -412h-34zM345 680h-142l7 34h318l-7 -34h-142l-79 -378h-34z" />
    <glyph glyph-name="scaron" unicode="&#x161;" horiz-adv-x="352" 
d="M353 376l3 15q2 9 3 19t1 20q0 28 -16 49.5t-63 21.5q-22 0 -44 -7t-40 -22t-29.5 -39t-11.5 -57q0 -28 15 -45.5t45 -29.5l74 -30q35 -14 53 -38t18 -60q0 -42 -15.5 -76t-41.5 -58t-59.5 -37.5t-69.5 -13.5q-39 0 -64 9.5t-39.5 24.5t-19.5 34.5t-5 39.5q0 15 2 29.5
t5 27.5l3 14h38l-3 -17q-2 -12 -3.5 -22.5t-1.5 -21.5q0 -38 21.5 -61t73.5 -23q33 0 58 12t42.5 31.5t26 44t8.5 50.5t-13.5 45t-45.5 33l-71 31q-37 16 -55.5 38.5t-18.5 56.5q0 42 14.5 73.5t39 53.5t56 33t65.5 11q33 0 54.5 -8t34 -21.5t17.5 -30.5t5 -36q0 -22 -5 -47
l-3 -16h-38zM212 736h42l50 -110l96 110h42l-124 -140h-42z" />
    <glyph glyph-name="guilsinglright" unicode="&#x203a;" horiz-adv-x="222" 
d="M88 166l106 108l-62 104l10 50l86 -135l-7 -38l-143 -139z" />
    <glyph glyph-name="oe" unicode="&#x153;" horiz-adv-x="685" 
d="M666 298q11 53 11 93q0 50 -18.5 80t-63.5 30q-31 0 -56.5 -15.5t-45 -42.5t-34 -64.5t-23.5 -80.5h230zM134 262q-15 -69 -15 -121q0 -57 22.5 -88t75.5 -31q38 0 65.5 16.5t47.5 47.5t34.5 75.5t26.5 100.5q17 77 17 129q0 53 -20.5 81.5t-70.5 28.5
q-71 0 -115.5 -63.5t-67.5 -175.5zM429 264l-6 -29q-5 -26 -8.5 -52t-3.5 -50q0 -47 17.5 -79t63.5 -32q36 0 62 18t43.5 42t27 49t12.5 40h38q-6 -30 -21.5 -62.5t-39.5 -59t-57 -44t-73 -17.5q-28 0 -48 9.5t-33 26t-19 37.5t-6 45q0 4 0.5 7t0.5 7h-2q-8 -26 -22.5 -50
t-35.5 -42t-48.5 -29t-60.5 -11q-74 0 -103.5 41t-29.5 109q0 27 4 58t11 65q12 58 31.5 108t48 87t66.5 58t86 21q31 0 52 -9.5t34.5 -25.5t19.5 -37t6 -45v-14h2q10 25 25.5 49t36.5 42t46.5 29t55.5 11q61 0 87.5 -37t26.5 -106q0 -56 -15 -128h-272z" />
    <glyph glyph-name="zcaron" unicode="&#x17e;" horiz-adv-x="334" 
d="M22 34l353 455h-245l7 34h287l-7 -34l-353 -455h262l-7 -34h-304zM202 736h42l50 -110l96 110h42l-124 -140h-42z" />
    <glyph glyph-name="Ydieresis" unicode="&#x178;" horiz-adv-x="444" 
d="M262 294l-108 420h46l92 -376l252 376h42l-282 -420l-61 -294h-42zM311 891h42l-21 -102h-42zM445 891h42l-21 -102h-42z" />
    <glyph glyph-name="uni00A0" unicode="&#xa0;" horiz-adv-x="240" 
 />
    <glyph glyph-name="exclamdown" unicode="&#xa1;" horiz-adv-x="222" 
d="M244 542l-20 -96h-42l20 96h42zM200 360l-56 -298l-48 -234h-42l48 234l68 298h30z" />
    <glyph glyph-name="cent" unicode="&#xa2;" horiz-adv-x="480" 
d="M232 -12q-65 2 -92 43t-27 106q0 29 4 60.5t12 66.5q26 126 78 194.5t139 76.5l16 78h24l-16 -78q33 -2 54.5 -14t34.5 -30t18.5 -38.5t5.5 -39.5q0 -27 -3 -40h-42q1 6 1.5 14t0.5 18q0 15 -3.5 31t-12.5 30t-24 23.5t-37 11.5l-100 -479q34 3 58 21.5t40 42t25 47.5
t12 38h42q-4 -18 -15.5 -47t-33.5 -58t-55.5 -51.5t-79.5 -26.5l-19 -91h-24zM339 501q-67 -8 -106.5 -70.5t-61.5 -168.5q-15 -72 -15 -122q0 -55 19.5 -84t63.5 -34z" />
    <glyph glyph-name="sterling" unicode="&#xa3;" horiz-adv-x="480" 
d="M104 368h87q-12 29 -24 61.5t-12 69.5q0 44 19.5 82.5t51.5 66.5t73.5 44t86.5 16q43 0 74 -11.5t51 -32t29 -48t9 -58.5q0 -29 -6 -57h-42q6 28 6 53q0 53 -30 86.5t-100 33.5q-32 0 -64 -12t-57.5 -33.5t-41.5 -52.5t-16 -69t12.5 -74t22.5 -65h140l-7 -34h-126
q2 -11 3.5 -22.5t1.5 -23.5q0 -38 -13.5 -73.5t-37 -68.5t-54.5 -62t-66 -54l1 -2q21 12 44 21.5t46 9.5q18 0 36.5 -6t36.5 -12.5t36 -12.5t35 -6q21 0 42.5 7t41 16.5t35.5 19.5t25 16l14 -28q-38 -28 -79.5 -46.5t-83.5 -18.5q-21 0 -40 6t-37.5 12.5t-39 12.5t-44.5 6
q-29 0 -55 -11.5t-43 -22.5l-16 34q33 25 64 54t55.5 61.5t39.5 70t15 79.5q0 11 -1.5 22t-3.5 22h-101z" />
    <glyph glyph-name="currency" unicode="&#xa4;" horiz-adv-x="480" 
d="M275 169q40 0 79 17.5t69.5 47.5t49 69.5t18.5 83.5q0 30 -10.5 56t-29.5 44.5t-45 29t-57 10.5q-39 0 -78 -17.5t-69.5 -47t-49.5 -69t-19 -83.5q0 -30 10.5 -56t29 -45t44.5 -29.5t58 -10.5zM121 210q-27 37 -27 90t23 102t62 85l-39 49l28 23l40 -49q32 25 70.5 38
t77.5 13q42 0 74 -13.5t54 -37.5l60 49l18 -23l-59 -49q27 -41 27 -92q0 -57 -24 -104.5t-61 -80.5l39 -50l-28 -23l-40 49q-68 -51 -148 -51t-128 51l-60 -49l-18 23z" />
    <glyph glyph-name="yen" unicode="&#xa5;" horiz-adv-x="480" 
d="M254 171h-135l7 34h135l17 82h-135l7 34h118l-100 375h46l94 -367l250 367h42l-256 -375h126l-7 -34h-143l-17 -82h143l-7 -34h-143l-35 -171h-42z" />
    <glyph glyph-name="brokenbar" unicode="&#xa6;" horiz-adv-x="222" 
d="M242 726h38l-55 -266h-38zM144 254h38l-55 -266h-38z" />
    <glyph glyph-name="section" unicode="&#xa7;" horiz-adv-x="481" 
d="M124 20l-3 -15q-4 -16 -4 -34q0 -40 24 -64t75 -24q30 0 56.5 8.5t46.5 24t31.5 38t11.5 50.5q-1 38 -26 66t-56 52l-122 95q-26 20 -39.5 41.5t-13.5 50.5q0 54 36.5 100t102.5 75q-16 17 -27.5 34.5t-11.5 44.5q0 39 17.5 69.5t45 51.5t62 31.5t68.5 10.5
q35 0 59.5 -9.5t40 -25.5t22.5 -35.5t7 -40.5q0 -16 -3 -29l-1 -6h-42l1 6q3 12 3 24q0 32 -22 57t-72 25q-34 0 -60.5 -10.5t-45 -28t-28 -39t-9.5 -43.5q0 -26 18 -47t48 -44l132 -103q52 -42 52 -97q0 -58 -35 -99.5t-101 -73.5q22 -22 33 -43t11 -47q0 -28 -12.5 -58
t-37 -54.5t-61 -40t-84.5 -15.5q-37 0 -63 9.5t-42.5 25.5t-24.5 37t-8 44q0 18 4 33l5 22h42zM339 127q19 9 39.5 21.5t37 30t27.5 40.5t11 54q0 26 -11.5 44.5t-32.5 35.5l-143 111q-17 -8 -37.5 -20.5t-38.5 -29.5t-30.5 -40t-12.5 -51q0 -32 23.5 -56.5t50.5 -45.5z" />
    <glyph glyph-name="dieresis" unicode="&#xa8;" horiz-adv-x="148" 
d="M133 717h42l-21 -102h-42zM267 717h42l-21 -102h-42z" />
    <glyph glyph-name="copyright" unicode="&#xa9;" horiz-adv-x="800" 
d="M143 357q-4 -17 -5.5 -34t-1.5 -33q0 -57 19.5 -105t55 -83.5t85 -55.5t109.5 -20q76 0 149.5 32.5t130.5 87t92 126.5t35 152q0 57 -19.5 105t-55 83.5t-85 55.5t-109.5 20q-69 0 -134.5 -26t-120 -71t-93 -105t-52.5 -129zM105 357q16 76 59 143.5t103 117.5t133 79
t150 29q66 0 121.5 -22.5t95.5 -61.5t62 -93t22 -117q0 -89 -39 -169.5t-103 -141.5t-145.5 -97t-166.5 -36q-67 0 -122.5 22.5t-95 61.5t-61 92.5t-21.5 116.5q0 19 2 37.5t6 38.5zM650 437v6q0 55 -35 85t-99 30q-53 0 -94 -25t-69.5 -63.5t-43 -83t-14.5 -83.5
q0 -64 35 -106t102 -42q69 0 114.5 35t71.5 92h42q-13 -36 -35.5 -65.5t-52.5 -51t-67.5 -33t-79.5 -11.5q-79 0 -126.5 43.5t-47.5 126.5q0 70 24 125.5t62.5 94.5t87 60t98.5 21q80 0 124.5 -34t44.5 -106v-15h-42z" />
    <glyph glyph-name="ordfeminine" unicode="&#xaa;" horiz-adv-x="276" 
d="M310 567h-2q-9 -6 -20.5 -9.5t-23.5 -7.5l-54 -16q-32 -10 -47.5 -32t-15.5 -52q0 -19 11 -31t34 -12q42 0 69 27t35 63zM155 611q3 16 10.5 33t21.5 31t36 23.5t54 9.5q48 0 65.5 -16t17.5 -41q0 -7 -1 -14t-3 -15l-41 -198q-1 -4 -1 -11q0 -14 10 -14q9 0 17 3l-4 -19
q-11 -6 -25 -6q-35 0 -35 26q0 6 1 9l3 15h-2q-15 -20 -40.5 -35t-61.5 -15q-35 0 -50.5 17.5t-15.5 43.5q0 42 23.5 73.5t68.5 44.5l67 19q12 3 21.5 7t17 11t11.5 18t4 28q0 23 -15.5 31t-39.5 8q-23 0 -38 -7.5t-24 -18.5t-13 -22.5t-5 -18.5h-34z" />
    <glyph glyph-name="guillemotleft" unicode="&#xab;" horiz-adv-x="333" 
d="M104 251l8 38l142 139l-10 -50l-106 -108l62 -104l-10 -50zM219 251l8 38l142 139l-10 -50l-106 -108l62 -104l-10 -50z" />
    <glyph glyph-name="logicalnot" unicode="&#xac;" horiz-adv-x="600" 
d="M588 334h-472l7 34h506l-54 -260h-34z" />
    <glyph glyph-name="uni00AD" unicode="&#xad;" horiz-adv-x="315" 
d="M123 289h189l-7 -34h-189z" />
    <glyph glyph-name="registered" unicode="&#xae;" horiz-adv-x="800" 
d="M105 357q16 76 59 143.5t103 117.5t133 79t150 29q66 0 121.5 -22.5t95.5 -61.5t62 -93t22 -117q0 -89 -39 -169.5t-103 -141.5t-145.5 -97t-166.5 -36q-67 0 -122.5 22.5t-95 61.5t-61 92.5t-21.5 116.5q0 19 2 37.5t6 38.5zM143 357q-4 -17 -5.5 -34t-1.5 -33
q0 -57 19.5 -105t55 -83.5t85 -55.5t109.5 -20q76 0 149.5 32.5t130.5 87t92 126.5t35 152q0 57 -19.5 105t-55 83.5t-85 55.5t-109.5 20q-69 0 -134.5 -26t-120 -71t-93 -105t-52.5 -129zM381 372h111q27 0 52 5t43.5 17.5t30 33t11.5 50.5q0 35 -25.5 50t-66.5 15h-121z
M381 577h168q124 0 124 -89q0 -37 -12.5 -63.5t-33 -44.5t-45.5 -28.5t-50 -14.5l88 -198h-45l-88 199h-113l-42 -199h-42z" />
    <glyph glyph-name="macron" unicode="&#xaf;" horiz-adv-x="148" 
d="M105 681h216l-6 -30h-216z" />
    <glyph glyph-name="degree" unicode="&#xb0;" horiz-adv-x="400" 
d="M208 565q-3 -12 -3 -23q0 -37 24.5 -61.5t64.5 -24.5q25 0 49 10.5t43 28.5t30.5 41.5t11.5 49.5q0 38 -24 63t-64 25q-23 0 -44.5 -8.5t-39.5 -23.5t-31 -35t-17 -42zM174 565q6 30 22.5 56t40 45.5t52 30.5t58.5 11q52 0 84 -32t32 -82q0 -35 -15 -66t-39.5 -54.5
t-56.5 -37.5t-65 -14q-52 0 -84 32t-32 82q0 14 3 29z" />
    <glyph glyph-name="plusminus" unicode="&#xb1;" horiz-adv-x="600" 
d="M54 34h506l-7 -34h-506zM388 506h34l-40 -192h236l-7 -34h-236l-40 -192h-34l40 192h-236l7 34h236z" />
    <glyph glyph-name="twosuperior" unicode="&#xb2;" horiz-adv-x="313" 
d="M88 280l3 15q7 32 29.5 68.5t73.5 68.5l79 49q49 30 75 60t26 74q0 31 -19 47t-53 16q-29 0 -49.5 -8.5t-34.5 -23t-22 -32.5t-12 -36h-34q11 55 51 92.5t107 37.5q17 0 35 -4t33 -13.5t24.5 -25t9.5 -38.5q0 -33 -9.5 -57.5t-26 -43.5t-38 -34.5t-45.5 -31.5l-86 -55
q-43 -27 -58 -52.5t-19 -42.5h219l-6 -30h-253z" />
    <glyph glyph-name="threesuperior" unicode="&#xb3;" horiz-adv-x="313" 
d="M238 517h17q47 0 78.5 28t31.5 75q0 27 -18 42.5t-51 15.5q-24 0 -42 -7.5t-31 -20t-21 -27.5t-11 -30h-34q11 51 49.5 83t101.5 32q42 0 67.5 -20t25.5 -59q0 -21 -7 -41.5t-20 -38t-32 -29.5t-43 -15v-3q38 -5 56.5 -24.5t18.5 -50.5q0 -34 -12.5 -62t-34.5 -48.5
t-51.5 -32t-63.5 -11.5q-60 0 -84.5 25t-24.5 63q0 14 3 31h34q-1 -5 -1.5 -9t-0.5 -9q0 -27 17.5 -49t59.5 -22q20 0 42 7t40 22t30 37.5t12 52.5q0 32 -21.5 48.5t-68.5 16.5h-17z" />
    <glyph glyph-name="acute" unicode="&#xb4;" horiz-adv-x="148" 
d="M263 736h48l-123 -140h-33z" />
    <glyph glyph-name="mu" unicode="&#xb5;" horiz-adv-x="407" 
d="M356 0h-38l16 79h-2q-11 -17 -26 -33.5t-34 -29.5t-42 -20.5t-50 -7.5q-24 0 -45 10.5t-37 37.5h-2l-44 -212h-38l145 699h38l-78 -376q-14 -70 7.5 -97.5t70.5 -27.5q30 0 56 13t47 35.5t35.5 52.5t21.5 65l69 335h38z" />
    <glyph glyph-name="paragraph" unicode="&#xb6;" horiz-adv-x="600" 
d="M412 680q-37 0 -73 -13.5t-64.5 -39t-46 -63.5t-17.5 -86q0 -60 37 -91t97 -31zM337 322q-37 0 -68.5 9.5t-54 28t-35 46t-12.5 63.5q0 60 22 105.5t59.5 76.5t86.5 47t102 16h187l-177 -853h-38l170 819h-129l-170 -819h-38z" />
    <glyph glyph-name="periodcentered" unicode="&#xb7;" horiz-adv-x="240" 
d="M137 330q5 21 23 36t39 15t33 -15t7 -36t-22.5 -36t-38.5 -15t-33.5 15t-7.5 36z" />
    <glyph glyph-name="cedilla" unicode="&#xb8;" horiz-adv-x="148" 
d="M103 0l-55 -59l1 -2q7 2 16 3.5t23 1.5q27 0 44.5 -18t11.5 -48q-3 -12 -11.5 -25t-23 -24t-34.5 -18t-46 -7t-45.5 5t-33.5 13l13 22q14 -7 34 -11.5t39 -4.5q29 0 48.5 11.5t24.5 37.5q5 23 -8.5 33t-36.5 10q-17 0 -31 -4.5t-25 -9.5l-7 12l72 82h30z" />
    <glyph glyph-name="onesuperior" unicode="&#xb9;" horiz-adv-x="313" 
d="M293 660q-9 -9 -23 -17.5t-30.5 -15t-34 -11.5t-33.5 -6l7 30q18 1 37.5 7.5t37 16t31.5 21t22 23.5h30l-89 -428h-34z" />
    <glyph glyph-name="ordmasculine" unicode="&#xba;" horiz-adv-x="313" 
d="M186 543q-8 -38 -8 -63q0 -35 14.5 -54t47.5 -19q25 0 46.5 14.5t37.5 40.5t25 62t9 80q0 35 -14.5 54.5t-47.5 19.5q-46 0 -71.5 -36t-38.5 -99zM235 377q-52 0 -71.5 25.5t-19.5 67.5q0 47 9.5 90t29.5 76t50 52.5t71 19.5q50 0 70 -25.5t20 -66.5q0 -47 -9.5 -90.5
t-29 -76.5t-49.5 -52.5t-71 -19.5z" />
    <glyph glyph-name="guillemotright" unicode="&#xbb;" horiz-adv-x="333" 
d="M201 166l106 108l-62 104l10 50l86 -135l-7 -38l-143 -139zM86 166l106 108l-62 104l10 50l86 -135l-7 -38l-143 -139z" />
    <glyph glyph-name="onequarter" unicode="&#xbc;" horiz-adv-x="721" 
d="M276 660q-9 -9 -23 -17.5t-30.5 -15t-34 -11.5t-33.5 -6l7 30q18 1 37.5 7.5t37 16t31.5 21t22 23.5h30l-89 -428h-34zM706 728h34l-617 -760h-34zM621 108h-193l7 35l244 285h42l-60 -290h59l-6 -30h-59l-22 -108h-34zM678 380h-2l-208 -242h159z" />
    <glyph glyph-name="onehalf" unicode="&#xbd;" horiz-adv-x="721" 
d="M439 0l3 15q7 33 29.5 69t73.5 68l78 49q48 30 74.5 59.5t26.5 73.5q0 31 -18.5 47.5t-52.5 16.5q-29 0 -49.5 -8.5t-34.5 -23t-22.5 -32.5t-12.5 -36h-34q12 55 51.5 92.5t106.5 37.5q17 0 35.5 -4t33.5 -13.5t24.5 -25t9.5 -38.5q0 -32 -9.5 -56.5t-26 -44t-38 -35.5
t-45.5 -31l-87 -55q-42 -27 -57.5 -52.5t-18.5 -42.5h219l-6 -30h-253zM276 660q-9 -9 -23 -17.5t-30.5 -15t-34 -11.5t-33.5 -6l7 30q18 1 37.5 7.5t37 16t31.5 21t22 23.5h30l-89 -428h-34zM695 728h34l-617 -760h-34z" />
    <glyph glyph-name="threequarters" unicode="&#xbe;" horiz-adv-x="721" 
d="M238 517h17q47 0 78.5 28t31.5 75q0 27 -18 42.5t-51 15.5q-24 0 -42 -7.5t-31 -20t-21 -27.5t-11 -30h-34q11 51 49.5 83t101.5 32q42 0 67.5 -20t25.5 -59q0 -21 -7 -41.5t-20 -38t-32 -29.5t-43 -15v-3q38 -5 56.5 -24.5t18.5 -50.5q0 -34 -12.5 -62t-34.5 -48.5
t-51.5 -32t-63.5 -11.5q-60 0 -84.5 25t-24.5 63q0 14 3 31h34q-1 -5 -1.5 -9t-0.5 -9q0 -27 17.5 -49t59.5 -22q20 0 42 7t40 22t30 37.5t12 52.5q0 32 -21.5 48.5t-68.5 16.5h-17zM741 728h34l-617 -760h-34zM621 108h-193l7 35l244 285h42l-60 -290h59l-6 -30h-59
l-22 -108h-34zM678 380h-2l-208 -242h159z" />
    <glyph glyph-name="questiondown" unicode="&#xbf;" 
d="M355 542l-20 -96h-42l20 96h42zM307 309q-9 -42 -27.5 -72t-42 -53.5t-49 -43t-48.5 -42t-41 -50t-26 -66.5q-13 -63 15 -97.5t88 -34.5q40 0 70.5 15t52 39t35 54.5t19.5 61.5l2 13h42l-3 -16q-7 -33 -23.5 -68.5t-44 -65t-66.5 -48.5t-90 -19q-50 0 -80 15.5
t-45.5 39.5t-18 53t3.5 56q9 45 27.5 76t42 54.5t49 42.5t48.5 40.5t41 48t26 65.5l11 52h42z" />
    <glyph glyph-name="Agrave" unicode="&#xc0;" horiz-adv-x="481" 
d="M421 222h-269l-114 -222h-42l370 714h53l66 -714h-42zM383 672h-2l-212 -416h251zM417 770h-33l-63 140h48z" />
    <glyph glyph-name="Aacute" unicode="&#xc1;" horiz-adv-x="481" 
d="M421 222h-269l-114 -222h-42l370 714h53l66 -714h-42zM383 672h-2l-212 -416h251zM485 910h48l-123 -140h-33z" />
    <glyph glyph-name="Acircumflex" unicode="&#xc2;" horiz-adv-x="481" 
d="M421 222h-269l-114 -222h-42l370 714h53l66 -714h-42zM383 672h-2l-212 -416h251zM407 910h42l64 -140h-42l-50 110l-96 -110h-42z" />
    <glyph glyph-name="Atilde" unicode="&#xc3;" horiz-adv-x="481" 
d="M421 222h-269l-114 -222h-42l370 714h53l66 -714h-42zM383 672h-2l-212 -416h251zM539 885q-2 -12 -8.5 -27t-17.5 -28t-27 -22t-36 -9q-17 0 -29 8t-22.5 17.5t-20.5 17.5t-22 8t-21 -6t-15 -14.5t-9.5 -18t-4.5 -16.5h-30q2 12 8.5 26.5t17.5 27.5t26.5 22t35.5 9
q17 0 29.5 -8t23 -17.5t20.5 -17.5t22 -8q13 0 21.5 6t14.5 15t9 18.5t5 16.5h30z" />
    <glyph glyph-name="Adieresis" unicode="&#xc4;" horiz-adv-x="481" 
d="M421 222h-269l-114 -222h-42l370 714h53l66 -714h-42zM383 672h-2l-212 -416h251zM335 891h42l-21 -102h-42zM469 891h42l-21 -102h-42z" />
    <glyph glyph-name="Aring" unicode="&#xc5;" horiz-adv-x="481" 
d="M421 222h-269l-114 -222h-42l370 714h53l66 -714h-42zM383 672h-2l-212 -416h251zM350 832q-1 -4 -1.5 -7t-0.5 -6q0 -20 13 -33t35 -13q28 0 50.5 21t22.5 50q0 20 -13 33.5t-35 13.5q-25 0 -45.5 -17t-25.5 -42zM320 832q8 38 38.5 63t68.5 25q32 0 52 -20t20 -51
q0 -23 -9.5 -42t-25.5 -33t-35.5 -22t-38.5 -8q-32 0 -52 19.5t-20 49.5v9.5t2 9.5z" />
    <glyph glyph-name="AE" unicode="&#xc6;" horiz-adv-x="704" 
d="M382 222h-202l-139 -222h-45l455 714h374l-8 -38h-299l-59 -285h279l-8 -38h-279l-66 -315h309l-7 -38h-308h-43zM389 256l87 420h-7l-268 -420h188z" />
    <glyph glyph-name="Ccedilla" unicode="&#xc7;" horiz-adv-x="500" 
d="M530 509q2 14 3.5 26.5t1.5 25.5q0 27 -7 51t-22 42t-38 28t-56 10q-53 0 -94 -24t-72 -67.5t-53.5 -105.5t-38.5 -137q-10 -46 -15 -88t-6 -78q0 -39 7 -70t23 -53.5t41.5 -34.5t62.5 -12q52 0 90.5 26t65 62t41.5 72.5t19 57.5h42q-6 -30 -23 -71t-47 -79.5t-75 -67
t-107 -33.5l-44 -48l1 -2q7 2 16 3.5t23 1.5q24 0 40.5 -14t16.5 -39q0 -12 -7 -27t-21 -28.5t-36 -22.5t-52 -9q-26 0 -45.5 5t-33.5 13l13 22q14 -7 34 -11.5t39 -4.5q31 0 52.5 14t21.5 46q0 17 -13 24.5t-33 7.5q-17 0 -31 -4.5t-25 -9.5l-7 12l61 70q-78 2 -115 54
t-37 143q0 37 5.5 79.5t15.5 91.5q17 84 43.5 152.5t64 116.5t86.5 74.5t111 26.5q48 0 79.5 -15t49.5 -39t25 -53t7 -56q0 -15 -2 -29t-4 -25h-42z" />
    <glyph glyph-name="Egrave" unicode="&#xc8;" 
d="M209 714h341l-8 -38h-299l-59 -285h279l-8 -38h-279l-66 -315h308l-7 -38h-309h-41zM417 770h-33l-63 140h48z" />
    <glyph glyph-name="Eacute" unicode="&#xc9;" 
d="M209 714h341l-8 -38h-299l-59 -285h279l-8 -38h-279l-66 -315h308l-7 -38h-309h-41zM470 910h48l-123 -140h-33z" />
    <glyph glyph-name="Ecircumflex" unicode="&#xca;" 
d="M209 714h341l-8 -38h-299l-59 -285h279l-8 -38h-279l-66 -315h308l-7 -38h-309h-41zM392 910h42l64 -140h-42l-50 110l-96 -110h-42z" />
    <glyph glyph-name="Edieresis" unicode="&#xcb;" 
d="M209 714h341l-8 -38h-299l-59 -285h279l-8 -38h-279l-66 -315h308l-7 -38h-309h-41zM321 891h42l-21 -102h-42zM455 891h42l-21 -102h-42z" />
    <glyph glyph-name="Igrave" unicode="&#xcc;" horiz-adv-x="164" 
d="M209 714h42l-148 -714h-42zM255 770h-33l-63 140h48z" />
    <glyph glyph-name="Iacute" unicode="&#xcd;" horiz-adv-x="164" 
d="M209 714h42l-148 -714h-42zM327 910h48l-123 -140h-33z" />
    <glyph glyph-name="Icircumflex" unicode="&#xce;" horiz-adv-x="164" 
d="M209 714h42l-148 -714h-42zM246 910h42l64 -140h-42l-50 110l-96 -110h-42z" />
    <glyph glyph-name="Idieresis" unicode="&#xcf;" horiz-adv-x="164" 
d="M209 714h42l-148 -714h-42zM173 891h42l-21 -102h-42zM307 891h42l-21 -102h-42z" />
    <glyph glyph-name="Eth" unicode="&#xd0;" horiz-adv-x="519" 
d="M176 355l-66 -321h121q114 0 180.5 79.5t101.5 243.5q19 88 19 155q0 86 -38.5 127t-128.5 41h-121l-60 -289h180l-8 -36h-180zM134 355h-60l8 36h60l67 323h163q45 0 82 -9t63.5 -31.5t41.5 -61t15 -98.5q0 -66 -19 -157q-23 -110 -58.5 -179.5t-79 -109t-93 -54
t-100.5 -14.5h-121h-42z" />
    <glyph glyph-name="Ntilde" unicode="&#xd1;" horiz-adv-x="519" 
d="M258 714l176 -648h2l135 648h42l-148 -714h-55l-178 648h-2l-134 -648h-42l148 714h56zM558 885q-2 -12 -8.5 -27t-17.5 -28t-27 -22t-36 -9q-17 0 -29 8t-22.5 17.5t-20.5 17.5t-22 8t-21 -6t-15 -14.5t-9.5 -18t-4.5 -16.5h-30q2 12 8.5 26.5t17.5 27.5t26.5 22t35.5 9
q17 0 29.5 -8t23 -17.5t20.5 -17.5t22 -8q13 0 21.5 6t14.5 15t9 18.5t5 16.5h30z" />
    <glyph glyph-name="Ograve" unicode="&#xd2;" horiz-adv-x="537" 
d="M412 692q-53 0 -94 -25t-72.5 -69t-54 -106t-37.5 -135q-20 -95 -20 -166q0 -78 31 -123.5t108 -45.5q99 0 161 82t97 253q9 44 14 83.5t5 74.5q0 81 -31.5 129t-106.5 48zM419 726q41 0 73 -10.5t54.5 -34.5t34.5 -62.5t12 -93.5q0 -35 -5 -76.5t-15 -91.5
q-24 -117 -61 -189.5t-79 -112.5t-85.5 -53.5t-81.5 -13.5q-39 0 -71.5 11t-55 35t-35 63t-12.5 95q0 35 4.5 75.5t15.5 89.5q21 104 53.5 174.5t72.5 114t86 62t95 18.5zM469 770h-33l-63 140h48z" />
    <glyph glyph-name="Oacute" unicode="&#xd3;" horiz-adv-x="537" 
d="M412 692q-53 0 -94 -25t-72.5 -69t-54 -106t-37.5 -135q-20 -95 -20 -166q0 -78 31 -123.5t108 -45.5q99 0 161 82t97 253q9 44 14 83.5t5 74.5q0 81 -31.5 129t-106.5 48zM419 726q41 0 73 -10.5t54.5 -34.5t34.5 -62.5t12 -93.5q0 -35 -5 -76.5t-15 -91.5
q-24 -117 -61 -189.5t-79 -112.5t-85.5 -53.5t-81.5 -13.5q-39 0 -71.5 11t-55 35t-35 63t-12.5 95q0 35 4.5 75.5t15.5 89.5q21 104 53.5 174.5t72.5 114t86 62t95 18.5zM514 910h48l-123 -140h-33z" />
    <glyph glyph-name="Ocircumflex" unicode="&#xd4;" horiz-adv-x="537" 
d="M412 692q-53 0 -94 -25t-72.5 -69t-54 -106t-37.5 -135q-20 -95 -20 -166q0 -78 31 -123.5t108 -45.5q99 0 161 82t97 253q9 44 14 83.5t5 74.5q0 81 -31.5 129t-106.5 48zM419 726q41 0 73 -10.5t54.5 -34.5t34.5 -62.5t12 -93.5q0 -35 -5 -76.5t-15 -91.5
q-24 -117 -61 -189.5t-79 -112.5t-85.5 -53.5t-81.5 -13.5q-39 0 -71.5 11t-55 35t-35 63t-12.5 95q0 35 4.5 75.5t15.5 89.5q21 104 53.5 174.5t72.5 114t86 62t95 18.5zM443 910h42l64 -140h-42l-50 110l-96 -110h-42z" />
    <glyph glyph-name="Otilde" unicode="&#xd5;" horiz-adv-x="537" 
d="M412 692q-53 0 -94 -25t-72.5 -69t-54 -106t-37.5 -135q-20 -95 -20 -166q0 -78 31 -123.5t108 -45.5q99 0 161 82t97 253q9 44 14 83.5t5 74.5q0 81 -31.5 129t-106.5 48zM419 726q41 0 73 -10.5t54.5 -34.5t34.5 -62.5t12 -93.5q0 -35 -5 -76.5t-15 -91.5
q-24 -117 -61 -189.5t-79 -112.5t-85.5 -53.5t-81.5 -13.5q-39 0 -71.5 11t-55 35t-35 63t-12.5 95q0 35 4.5 75.5t15.5 89.5q21 104 53.5 174.5t72.5 114t86 62t95 18.5zM568 885q-2 -12 -8.5 -27t-17.5 -28t-27 -22t-36 -9q-17 0 -29 8t-22.5 17.5t-20.5 17.5t-22 8
t-21 -6t-15 -14.5t-9.5 -18t-4.5 -16.5h-30q2 12 8.5 26.5t17.5 27.5t26.5 22t35.5 9q17 0 29.5 -8t23 -17.5t20.5 -17.5t22 -8q13 0 21.5 6t14.5 15t9 18.5t5 16.5h30z" />
    <glyph glyph-name="Odieresis" unicode="&#xd6;" horiz-adv-x="537" 
d="M412 692q-53 0 -94 -25t-72.5 -69t-54 -106t-37.5 -135q-20 -95 -20 -166q0 -78 31 -123.5t108 -45.5q99 0 161 82t97 253q9 44 14 83.5t5 74.5q0 81 -31.5 129t-106.5 48zM419 726q41 0 73 -10.5t54.5 -34.5t34.5 -62.5t12 -93.5q0 -35 -5 -76.5t-15 -91.5
q-24 -117 -61 -189.5t-79 -112.5t-85.5 -53.5t-81.5 -13.5q-39 0 -71.5 11t-55 35t-35 63t-12.5 95q0 35 4.5 75.5t15.5 89.5q21 104 53.5 174.5t72.5 114t86 62t95 18.5zM366 891h42l-21 -102h-42zM500 891h42l-21 -102h-42z" />
    <glyph glyph-name="multiply" unicode="&#xd7;" horiz-adv-x="600" 
d="M110 35l-17 22l238 196l-156 197l25 21l156 -197l238 197l17 -21l-238 -197l156 -196l-25 -22l-156 197z" />
    <glyph glyph-name="Oslash" unicode="&#xd8;" horiz-adv-x="537" 
d="M132 45q-20 25 -30.5 61.5t-10.5 87.5q0 67 21 163q21 104 53.5 174.5t72.5 114t86 62t95 18.5q34 0 62.5 -7t48.5 -24l42 68l31 -12l-49 -79q19 -25 29 -60.5t10 -86.5q0 -35 -5 -76t-15 -92q-24 -117 -61 -189.5t-79 -112.5t-85.5 -53.5t-81.5 -13.5q-34 0 -62 8
t-49 25l-46 -74l-30 12zM176 56q17 -17 40.5 -25.5t56.5 -8.5q99 0 161 82t97 253q9 45 14 85t5 75q0 34 -5.5 62.5t-16.5 49.5zM507 658q-34 34 -95 34q-53 0 -94 -25t-72.5 -69t-54 -106t-37.5 -135q-10 -47 -15.5 -88t-5.5 -76q0 -68 23 -110z" />
    <glyph glyph-name="Ugrave" unicode="&#xd9;" horiz-adv-x="500" 
d="M133 189q-6 -29 -6 -54q0 -52 29.5 -82.5t97.5 -30.5q78 0 126.5 46t64.5 121l109 525h42l-108 -517q-12 -60 -37.5 -100.5t-58.5 -64.5t-70.5 -34t-74.5 -10q-32 0 -61.5 6t-52 21.5t-36 43t-13.5 69.5q0 15 2 32t6 37l108 517h42zM424 770h-33l-63 140h48z" />
    <glyph glyph-name="Uacute" unicode="&#xda;" horiz-adv-x="500" 
d="M133 189q-6 -29 -6 -54q0 -52 29.5 -82.5t97.5 -30.5q78 0 126.5 46t64.5 121l109 525h42l-108 -517q-12 -60 -37.5 -100.5t-58.5 -64.5t-70.5 -34t-74.5 -10q-32 0 -61.5 6t-52 21.5t-36 43t-13.5 69.5q0 15 2 32t6 37l108 517h42zM494 910h48l-123 -140h-33z" />
    <glyph glyph-name="Ucircumflex" unicode="&#xdb;" horiz-adv-x="500" 
d="M133 189q-6 -29 -6 -54q0 -52 29.5 -82.5t97.5 -30.5q78 0 126.5 46t64.5 121l109 525h42l-108 -517q-12 -60 -37.5 -100.5t-58.5 -64.5t-70.5 -34t-74.5 -10q-32 0 -61.5 6t-52 21.5t-36 43t-13.5 69.5q0 15 2 32t6 37l108 517h42zM413 910h42l64 -140h-42l-50 110
l-96 -110h-42z" />
    <glyph glyph-name="Udieresis" unicode="&#xdc;" horiz-adv-x="500" 
d="M133 189q-6 -29 -6 -54q0 -52 29.5 -82.5t97.5 -30.5q78 0 126.5 46t64.5 121l109 525h42l-108 -517q-12 -60 -37.5 -100.5t-58.5 -64.5t-70.5 -34t-74.5 -10q-32 0 -61.5 6t-52 21.5t-36 43t-13.5 69.5q0 15 2 32t6 37l108 517h42zM341 891h42l-21 -102h-42zM475 891h42
l-21 -102h-42z" />
    <glyph glyph-name="Yacute" unicode="&#xdd;" horiz-adv-x="444" 
d="M262 294l-108 420h46l92 -376l252 376h42l-282 -420l-61 -294h-42zM470 910h48l-123 -140h-33z" />
    <glyph glyph-name="Thorn" unicode="&#xde;" horiz-adv-x="463" 
d="M285 212q33 0 68 11.5t63.5 37t46.5 66t18 98.5q0 56 -31 85.5t-91 29.5h-144l-68 -328h138zM209 714h42l-29 -140h143q46 -1 76.5 -13t49 -31t26 -43t7.5 -48q0 -59 -18.5 -107t-51.5 -82.5t-79 -53t-101 -18.5h-134l-37 -178h-42z" />
    <glyph glyph-name="germandbls" unicode="&#xdf;" 
d="M163 540q17 85 68.5 129.5t129.5 44.5q60 0 90.5 -30.5t30.5 -84.5q0 -32 -8.5 -62t-25.5 -55t-42.5 -43t-58.5 -27v-2q47 -7 75 -39t28 -91q0 -30 -7 -61q-11 -50 -30.5 -91t-50 -70.5t-74 -46t-101.5 -17.5h-22l7 34h22q85 0 135.5 44t71.5 146q3 17 5 31.5t2 28.5
q0 112 -130 112h-25l7 34h26q23 0 50 8t50 27t38.5 51.5t15.5 82.5q0 38 -21.5 62.5t-68.5 24.5q-55 0 -93.5 -31t-55.5 -110l-112 -539h-38z" />
    <glyph glyph-name="agrave" unicode="&#xe0;" horiz-adv-x="389" 
d="M357 305h-2q-12 -16 -27.5 -21.5t-45.5 -13.5l-82 -21q-54 -14 -83 -51.5t-29 -102.5q0 -34 18.5 -53.5t59.5 -19.5q67 0 109.5 48t58.5 127zM345 63q-3 -9 -3 -16q0 -10 5 -14.5t13 -4.5q13 0 25 5l-6 -30q-14 -9 -42 -9q-11 0 -23 9.5t-12 32.5q0 3 0.5 6.5t1.5 8.5
l7 33h-2q-20 -42 -61.5 -69t-95.5 -27q-57 0 -81.5 29t-24.5 75q0 78 37.5 123.5t103.5 62.5l120 31q41 11 56 39.5t15 79.5q0 22 -6 36t-17 22.5t-26 11.5t-32 3q-33 0 -57 -9.5t-40.5 -27t-27 -40.5t-16.5 -50h-38q6 27 18 55.5t33 52t53 38.5t78 15q68 0 93.5 -26.5
t25.5 -66.5q0 -11 -1.5 -22t-3.5 -23zM349 596h-33l-63 140h48z" />
    <glyph glyph-name="aacute" unicode="&#xe1;" horiz-adv-x="389" 
d="M357 305h-2q-12 -16 -27.5 -21.5t-45.5 -13.5l-82 -21q-54 -14 -83 -51.5t-29 -102.5q0 -34 18.5 -53.5t59.5 -19.5q67 0 109.5 48t58.5 127zM345 63q-3 -9 -3 -16q0 -10 5 -14.5t13 -4.5q13 0 25 5l-6 -30q-14 -9 -42 -9q-11 0 -23 9.5t-12 32.5q0 3 0.5 6.5t1.5 8.5
l7 33h-2q-20 -42 -61.5 -69t-95.5 -27q-57 0 -81.5 29t-24.5 75q0 78 37.5 123.5t103.5 62.5l120 31q41 11 56 39.5t15 79.5q0 22 -6 36t-17 22.5t-26 11.5t-32 3q-33 0 -57 -9.5t-40.5 -27t-27 -40.5t-16.5 -50h-38q6 27 18 55.5t33 52t53 38.5t78 15q68 0 93.5 -26.5
t25.5 -66.5q0 -11 -1.5 -22t-3.5 -23zM407 736h48l-123 -140h-33z" />
    <glyph glyph-name="acircumflex" unicode="&#xe2;" horiz-adv-x="389" 
d="M357 305h-2q-12 -16 -27.5 -21.5t-45.5 -13.5l-82 -21q-54 -14 -83 -51.5t-29 -102.5q0 -34 18.5 -53.5t59.5 -19.5q67 0 109.5 48t58.5 127zM345 63q-3 -9 -3 -16q0 -10 5 -14.5t13 -4.5q13 0 25 5l-6 -30q-14 -9 -42 -9q-11 0 -23 9.5t-12 32.5q0 3 0.5 6.5t1.5 8.5
l7 33h-2q-20 -42 -61.5 -69t-95.5 -27q-57 0 -81.5 29t-24.5 75q0 78 37.5 123.5t103.5 62.5l120 31q41 11 56 39.5t15 79.5q0 22 -6 36t-17 22.5t-26 11.5t-32 3q-33 0 -57 -9.5t-40.5 -27t-27 -40.5t-16.5 -50h-38q6 27 18 55.5t33 52t53 38.5t78 15q68 0 93.5 -26.5
t25.5 -66.5q0 -11 -1.5 -22t-3.5 -23zM324 736h42l64 -140h-42l-50 110l-96 -110h-42z" />
    <glyph glyph-name="atilde" unicode="&#xe3;" horiz-adv-x="389" 
d="M357 305h-2q-12 -16 -27.5 -21.5t-45.5 -13.5l-82 -21q-54 -14 -83 -51.5t-29 -102.5q0 -34 18.5 -53.5t59.5 -19.5q67 0 109.5 48t58.5 127zM345 63q-3 -9 -3 -16q0 -10 5 -14.5t13 -4.5q13 0 25 5l-6 -30q-14 -9 -42 -9q-11 0 -23 9.5t-12 32.5q0 3 0.5 6.5t1.5 8.5
l7 33h-2q-20 -42 -61.5 -69t-95.5 -27q-57 0 -81.5 29t-24.5 75q0 78 37.5 123.5t103.5 62.5l120 31q41 11 56 39.5t15 79.5q0 22 -6 36t-17 22.5t-26 11.5t-32 3q-33 0 -57 -9.5t-40.5 -27t-27 -40.5t-16.5 -50h-38q6 27 18 55.5t33 52t53 38.5t78 15q68 0 93.5 -26.5
t25.5 -66.5q0 -11 -1.5 -22t-3.5 -23zM453 711q-2 -12 -8.5 -27t-17.5 -28t-27 -22t-36 -9q-17 0 -29 8t-22.5 17.5t-20.5 17.5t-22 8t-21 -6t-15 -14.5t-9.5 -18t-4.5 -16.5h-30q2 12 8.5 26.5t17.5 27.5t26.5 22t35.5 9q17 0 29.5 -8t23 -17.5t20.5 -17.5t22 -8
q13 0 21.5 6t14.5 15t9 18.5t5 16.5h30z" />
    <glyph glyph-name="adieresis" unicode="&#xe4;" horiz-adv-x="389" 
d="M357 305h-2q-12 -16 -27.5 -21.5t-45.5 -13.5l-82 -21q-54 -14 -83 -51.5t-29 -102.5q0 -34 18.5 -53.5t59.5 -19.5q67 0 109.5 48t58.5 127zM345 63q-3 -9 -3 -16q0 -10 5 -14.5t13 -4.5q13 0 25 5l-6 -30q-14 -9 -42 -9q-11 0 -23 9.5t-12 32.5q0 3 0.5 6.5t1.5 8.5
l7 33h-2q-20 -42 -61.5 -69t-95.5 -27q-57 0 -81.5 29t-24.5 75q0 78 37.5 123.5t103.5 62.5l120 31q41 11 56 39.5t15 79.5q0 22 -6 36t-17 22.5t-26 11.5t-32 3q-33 0 -57 -9.5t-40.5 -27t-27 -40.5t-16.5 -50h-38q6 27 18 55.5t33 52t53 38.5t78 15q68 0 93.5 -26.5
t25.5 -66.5q0 -11 -1.5 -22t-3.5 -23zM248 717h42l-21 -102h-42zM382 717h42l-21 -102h-42z" />
    <glyph glyph-name="aring" unicode="&#xe5;" horiz-adv-x="389" 
d="M357 305h-2q-12 -16 -27.5 -21.5t-45.5 -13.5l-82 -21q-54 -14 -83 -51.5t-29 -102.5q0 -34 18.5 -53.5t59.5 -19.5q67 0 109.5 48t58.5 127zM345 63q-3 -9 -3 -16q0 -10 5 -14.5t13 -4.5q13 0 25 5l-6 -30q-14 -9 -42 -9q-11 0 -23 9.5t-12 32.5q0 3 0.5 6.5t1.5 8.5
l7 33h-2q-20 -42 -61.5 -69t-95.5 -27q-57 0 -81.5 29t-24.5 75q0 78 37.5 123.5t103.5 62.5l120 31q41 11 56 39.5t15 79.5q0 22 -6 36t-17 22.5t-26 11.5t-32 3q-33 0 -57 -9.5t-40.5 -27t-27 -40.5t-16.5 -50h-38q6 27 18 55.5t33 52t53 38.5t78 15q68 0 93.5 -26.5
t25.5 -66.5q0 -11 -1.5 -22t-3.5 -23zM269 682q-1 -4 -1.5 -7t-0.5 -6q0 -20 13 -33t35 -13q28 0 50.5 21t22.5 50q0 20 -13 33.5t-35 13.5q-25 0 -45.5 -17t-25.5 -42zM239 682q8 38 38.5 63t68.5 25q32 0 52 -20t20 -51q0 -23 -9.5 -42t-25.5 -33t-35.5 -22t-38.5 -8
q-32 0 -52 19.5t-20 49.5v9.5t2 9.5z" />
    <glyph glyph-name="ae" unicode="&#xe6;" horiz-adv-x="612" 
d="M607 298q11 53 11 93q0 50 -18.5 80t-63.5 30q-31 0 -56.5 -15.5t-45 -42.5t-34 -64.5t-23.5 -80.5h230zM93 131q-5 -23 -5 -37q0 -33 18.5 -52.5t59.5 -19.5q55 0 94 44t55 116l23 107h-2q-19 -12 -66 -23l-70 -17q-48 -12 -72.5 -41t-34.5 -77zM118 374q6 26 18 54.5
t33 52t52.5 39t76.5 15.5q31 0 51.5 -8.5t32 -22t16 -29t4.5 -29.5h2q6 11 17.5 26.5t28 29.5t38 23.5t48.5 9.5q66 0 94 -36.5t28 -104.5q0 -28 -4 -60.5t-12 -69.5h-272l-6 -29q-5 -26 -8.5 -52t-3.5 -50q0 -47 17.5 -79t63.5 -32q36 0 62 18t43.5 42t27 49t12.5 40h38
q-6 -30 -21.5 -62.5t-39.5 -59t-57 -44t-73 -17.5q-30 0 -50.5 11.5t-33 29t-18 39t-5.5 42.5h-2q-9 -21 -23.5 -43t-34.5 -39.5t-46.5 -28.5t-59.5 -11q-57 0 -81.5 29t-24.5 75q1 73 37.5 120.5t100.5 63.5l98 24q18 4 30.5 9t20.5 12.5t13 19.5t9 32l5 26q5 23 5 38
q0 39 -22.5 51.5t-52.5 12.5q-37 0 -61.5 -14.5t-39.5 -35t-22.5 -42t-10.5 -35.5h-38z" />
    <glyph glyph-name="ccedilla" unicode="&#xe7;" horiz-adv-x="389" 
d="M404 171q-4 -18 -16.5 -48.5t-35.5 -60t-58 -51.5t-84 -23l-44 -47l1 -2q7 2 16 3.5t23 1.5q24 0 40.5 -14t16.5 -39q0 -12 -7 -27t-21 -28.5t-36 -22.5t-52 -9q-26 0 -45.5 5t-33.5 13l13 22q14 -7 34 -11.5t39 -4.5q31 0 52.5 14t21.5 46q0 17 -13 24.5t-33 7.5
q-17 0 -31 -4.5t-25 -9.5l-7 12l62 71q-59 7 -81.5 47t-22.5 100q0 56 15 128q27 133 83 202t150 69q35 0 58.5 -11.5t37.5 -29.5t19.5 -39.5t5.5 -40.5q0 -28 -3 -41h-42q3 10 3 27q0 15 -4 33t-13.5 33t-26.5 25t-43 10q-73 0 -116.5 -62t-66.5 -177q-8 -37 -12 -67.5
t-4 -56.5q0 -60 24 -88t75 -28q36 0 62 18t43.5 42t27 49t12.5 40h42z" />
    <glyph glyph-name="egrave" unicode="&#xe8;" horiz-adv-x="407" 
d="M134 264q-5 -27 -11 -61t-6 -68q0 -23 4 -43t14.5 -36t27.5 -25t44 -9q41 0 70 18t47.5 42t28.5 49t13 40h38q-6 -30 -21.5 -62.5t-40.5 -59t-59.5 -44t-78.5 -17.5q-70 0 -98.5 37t-28.5 106q0 62 18 145q25 120 82.5 189.5t146.5 69.5q66 0 94 -36.5t28 -104.5
q0 -28 -4 -60.5t-12 -69.5h-296zM395 298q5 24 8 49t3 48q0 22 -4 41.5t-14.5 33.5t-28 22.5t-44.5 8.5q-44 0 -74.5 -22t-50.5 -54t-31.5 -67t-17.5 -60h254zM369 596h-33l-63 140h48z" />
    <glyph glyph-name="eacute" unicode="&#xe9;" horiz-adv-x="407" 
d="M134 264q-5 -27 -11 -61t-6 -68q0 -23 4 -43t14.5 -36t27.5 -25t44 -9q41 0 70 18t47.5 42t28.5 49t13 40h38q-6 -30 -21.5 -62.5t-40.5 -59t-59.5 -44t-78.5 -17.5q-70 0 -98.5 37t-28.5 106q0 62 18 145q25 120 82.5 189.5t146.5 69.5q66 0 94 -36.5t28 -104.5
q0 -28 -4 -60.5t-12 -69.5h-296zM395 298q5 24 8 49t3 48q0 22 -4 41.5t-14.5 33.5t-28 22.5t-44.5 8.5q-44 0 -74.5 -22t-50.5 -54t-31.5 -67t-17.5 -60h254zM425 736h48l-123 -140h-33z" />
    <glyph glyph-name="ecircumflex" unicode="&#xea;" horiz-adv-x="407" 
d="M134 264q-5 -27 -11 -61t-6 -68q0 -23 4 -43t14.5 -36t27.5 -25t44 -9q41 0 70 18t47.5 42t28.5 49t13 40h38q-6 -30 -21.5 -62.5t-40.5 -59t-59.5 -44t-78.5 -17.5q-70 0 -98.5 37t-28.5 106q0 62 18 145q25 120 82.5 189.5t146.5 69.5q66 0 94 -36.5t28 -104.5
q0 -28 -4 -60.5t-12 -69.5h-296zM395 298q5 24 8 49t3 48q0 22 -4 41.5t-14.5 33.5t-28 22.5t-44.5 8.5q-44 0 -74.5 -22t-50.5 -54t-31.5 -67t-17.5 -60h254zM344 736h42l64 -140h-42l-50 110l-96 -110h-42z" />
    <glyph glyph-name="edieresis" unicode="&#xeb;" horiz-adv-x="407" 
d="M134 264q-5 -27 -11 -61t-6 -68q0 -23 4 -43t14.5 -36t27.5 -25t44 -9q41 0 70 18t47.5 42t28.5 49t13 40h38q-6 -30 -21.5 -62.5t-40.5 -59t-59.5 -44t-78.5 -17.5q-70 0 -98.5 37t-28.5 106q0 62 18 145q25 120 82.5 189.5t146.5 69.5q66 0 94 -36.5t28 -104.5
q0 -28 -4 -60.5t-12 -69.5h-296zM395 298q5 24 8 49t3 48q0 22 -4 41.5t-14.5 33.5t-28 22.5t-44.5 8.5q-44 0 -74.5 -22t-50.5 -54t-31.5 -67t-17.5 -60h254zM270 717h42l-21 -102h-42zM404 717h42l-21 -102h-42z" />
    <glyph glyph-name="igrave" unicode="&#xec;" horiz-adv-x="148" 
d="M163 523h38l-108 -523h-38zM207 596h-33l-63 140h48z" />
    <glyph glyph-name="iacute" unicode="&#xed;" horiz-adv-x="148" 
d="M163 523h38l-108 -523h-38zM283 736h48l-123 -140h-33z" />
    <glyph glyph-name="icircumflex" unicode="&#xee;" horiz-adv-x="148" 
d="M163 523h38l-108 -523h-38zM203 736h42l64 -140h-42l-50 110l-96 -110h-42z" />
    <glyph glyph-name="idieresis" unicode="&#xef;" horiz-adv-x="148" 
d="M163 523h38l-108 -523h-38zM132 717h42l-21 -102h-42zM266 717h42l-21 -102h-42z" />
    <glyph glyph-name="eth" unicode="&#xf0;" 
d="M333 689q-13 16 -32.5 31.5t-33.5 23.5l41 22q15 -8 32.5 -23t32.5 -33l90 48l21 -26l-91 -48q28 -39 48.5 -97.5t20.5 -147.5q0 -38 -4.5 -82.5t-15.5 -95.5q-12 -58 -30 -108t-45 -86.5t-65.5 -57.5t-90.5 -21q-75 0 -104.5 40.5t-29.5 107.5q0 56 15 125q12 58 30 108
t45.5 87t66 58t91.5 21q30 0 52 -9t37 -24l2 2q-1 19 -7 41.5t-15 44.5t-19.5 41t-21.5 32l-88 -47l-21 26zM134 262q-15 -69 -15 -121q0 -57 22.5 -88t75.5 -31q75 0 117.5 62.5t65.5 177.5q7 34 11 63.5t4 54.5q0 58 -22.5 89.5t-75.5 31.5q-75 0 -117.5 -62t-65.5 -177z
" />
    <glyph glyph-name="ntilde" unicode="&#xf1;" horiz-adv-x="407" 
d="M159 523h38l-16 -79h2q10 17 25 33.5t34.5 29t42.5 20.5t50 8q47 0 77 -23.5t30 -74.5q0 -10 -1.5 -20.5t-3.5 -22.5l-81 -394h-38l78 376q3 14 4 25.5t1 21.5q0 43 -22 60.5t-61 17.5q-30 0 -56 -13t-47 -35.5t-35.5 -53t-21.5 -64.5l-69 -335h-38zM460 711
q-2 -12 -8.5 -27t-17.5 -28t-27 -22t-36 -9q-17 0 -29 8t-22.5 17.5t-20.5 17.5t-22 8t-21 -6t-15 -14.5t-9.5 -18t-4.5 -16.5h-30q2 12 8.5 26.5t17.5 27.5t26.5 22t35.5 9q17 0 29.5 -8t23 -17.5t20.5 -17.5t22 -8q13 0 21.5 6t14.5 15t9 18.5t5 16.5h30z" />
    <glyph glyph-name="ograve" unicode="&#xf2;" 
d="M400 261q15 69 15 119q0 59 -22.5 90t-75.5 31q-75 0 -117.5 -62.5t-65.5 -177.5q-7 -35 -11 -64t-4 -55q0 -58 22.5 -89t75.5 -31q75 0 117.5 62t65.5 177zM442 262q-12 -57 -30 -106.5t-45.5 -87t-66.5 -59t-93 -21.5q-36 0 -61 11t-40.5 30.5t-22 47.5t-6.5 61
q0 73 15.5 144t46.5 127t78 91t110 35q36 0 61 -11t40.5 -30.5t22 -47.5t6.5 -61q0 -28 -4 -59t-11 -64zM369 596h-33l-63 140h48z" />
    <glyph glyph-name="oacute" unicode="&#xf3;" 
d="M400 261q15 69 15 119q0 59 -22.5 90t-75.5 31q-75 0 -117.5 -62.5t-65.5 -177.5q-7 -35 -11 -64t-4 -55q0 -58 22.5 -89t75.5 -31q75 0 117.5 62t65.5 177zM442 262q-12 -57 -30 -106.5t-45.5 -87t-66.5 -59t-93 -21.5q-36 0 -61 11t-40.5 30.5t-22 47.5t-6.5 61
q0 73 15.5 144t46.5 127t78 91t110 35q36 0 61 -11t40.5 -30.5t22 -47.5t6.5 -61q0 -28 -4 -59t-11 -64zM425 736h48l-123 -140h-33z" />
    <glyph glyph-name="ocircumflex" unicode="&#xf4;" 
d="M400 261q15 69 15 119q0 59 -22.5 90t-75.5 31q-75 0 -117.5 -62.5t-65.5 -177.5q-7 -35 -11 -64t-4 -55q0 -58 22.5 -89t75.5 -31q75 0 117.5 62t65.5 177zM442 262q-12 -57 -30 -106.5t-45.5 -87t-66.5 -59t-93 -21.5q-36 0 -61 11t-40.5 30.5t-22 47.5t-6.5 61
q0 73 15.5 144t46.5 127t78 91t110 35q36 0 61 -11t40.5 -30.5t22 -47.5t6.5 -61q0 -28 -4 -59t-11 -64zM346 736h42l64 -140h-42l-50 110l-96 -110h-42z" />
    <glyph glyph-name="otilde" unicode="&#xf5;" 
d="M400 261q15 69 15 119q0 59 -22.5 90t-75.5 31q-75 0 -117.5 -62.5t-65.5 -177.5q-7 -35 -11 -64t-4 -55q0 -58 22.5 -89t75.5 -31q75 0 117.5 62t65.5 177zM442 262q-12 -57 -30 -106.5t-45.5 -87t-66.5 -59t-93 -21.5q-36 0 -61 11t-40.5 30.5t-22 47.5t-6.5 61
q0 73 15.5 144t46.5 127t78 91t110 35q36 0 61 -11t40.5 -30.5t22 -47.5t6.5 -61q0 -28 -4 -59t-11 -64zM481 711q-2 -12 -8.5 -27t-17.5 -28t-27 -22t-36 -9q-17 0 -29 8t-22.5 17.5t-20.5 17.5t-22 8t-21 -6t-15 -14.5t-9.5 -18t-4.5 -16.5h-30q2 12 8.5 26.5t17.5 27.5
t26.5 22t35.5 9q17 0 29.5 -8t23 -17.5t20.5 -17.5t22 -8q13 0 21.5 6t14.5 15t9 18.5t5 16.5h30z" />
    <glyph glyph-name="odieresis" unicode="&#xf6;" 
d="M400 261q15 69 15 119q0 59 -22.5 90t-75.5 31q-75 0 -117.5 -62.5t-65.5 -177.5q-7 -35 -11 -64t-4 -55q0 -58 22.5 -89t75.5 -31q75 0 117.5 62t65.5 177zM442 262q-12 -57 -30 -106.5t-45.5 -87t-66.5 -59t-93 -21.5q-36 0 -61 11t-40.5 30.5t-22 47.5t-6.5 61
q0 73 15.5 144t46.5 127t78 91t110 35q36 0 61 -11t40.5 -30.5t22 -47.5t6.5 -61q0 -28 -4 -59t-11 -64zM276 717h42l-21 -102h-42zM410 717h42l-21 -102h-42z" />
    <glyph glyph-name="divide" unicode="&#xf7;" horiz-adv-x="600" 
d="M259 51q5 21 23 36t39 15q18 0 29.5 -11.5t11.5 -28.5q0 -12 -5.5 -23t-14 -20t-19.5 -14t-23 -5q-18 0 -30.5 11.5t-12.5 28.5q0 3 2 11zM343 455q5 21 23 36t39 15q18 0 29.5 -11.5t11.5 -28.5q0 -12 -5.5 -23t-14.5 -20t-20 -14t-23 -5q-18 0 -30 11t-12 28q0 4 2 12z
M96 236l7 34h506l-7 -34h-506z" />
    <glyph glyph-name="oslash" unicode="&#xf8;" 
d="M107 29q-16 20 -23 47.5t-7 60.5q0 28 4 59.5t11 65.5q12 56 29.5 106t45.5 87t67 58.5t93 21.5q51 0 79 -22l38 60l26 -10l-43 -69q16 -20 23 -47.5t7 -60.5q0 -28 -4 -59t-11 -65q-12 -57 -30 -106.5t-45.5 -87t-66.5 -59t-93 -21.5q-51 0 -79 22l-40 -63l-25 10z
M384 477q-24 24 -67 24q-38 0 -67 -16t-50.5 -46.5t-37.5 -75.5t-28 -102q-7 -34 -11 -62.5t-4 -53.5q0 -47 13 -74zM150 46q22 -24 67 -24q75 0 117.5 62t65.5 177q14 70 14 118q0 46 -13 73z" />
    <glyph glyph-name="ugrave" unicode="&#xf9;" horiz-adv-x="407" 
d="M356 0h-38l16 79h-2q-11 -17 -26 -33.5t-34 -29.5t-42 -20.5t-50 -7.5q-28 0 -50.5 8t-36.5 25.5t-19 44t3 63.5l82 394h38l-78 -376q-14 -70 7.5 -97.5t70.5 -27.5q30 0 56 13t47 35.5t35.5 52.5t21.5 65l69 335h38zM331 596h-33l-63 140h48z" />
    <glyph glyph-name="uacute" unicode="&#xfa;" horiz-adv-x="407" 
d="M356 0h-38l16 79h-2q-11 -17 -26 -33.5t-34 -29.5t-42 -20.5t-50 -7.5q-28 0 -50.5 8t-36.5 25.5t-19 44t3 63.5l82 394h38l-78 -376q-14 -70 7.5 -97.5t70.5 -27.5q30 0 56 13t47 35.5t35.5 52.5t21.5 65l69 335h38zM414 736h48l-123 -140h-33z" />
    <glyph glyph-name="ucircumflex" unicode="&#xfb;" horiz-adv-x="407" 
d="M356 0h-38l16 79h-2q-11 -17 -26 -33.5t-34 -29.5t-42 -20.5t-50 -7.5q-28 0 -50.5 8t-36.5 25.5t-19 44t3 63.5l82 394h38l-78 -376q-14 -70 7.5 -97.5t70.5 -27.5q30 0 56 13t47 35.5t35.5 52.5t21.5 65l69 335h38zM335 736h42l64 -140h-42l-50 110l-96 -110h-42z" />
    <glyph glyph-name="udieresis" unicode="&#xfc;" horiz-adv-x="407" 
d="M356 0h-38l16 79h-2q-11 -17 -26 -33.5t-34 -29.5t-42 -20.5t-50 -7.5q-28 0 -50.5 8t-36.5 25.5t-19 44t3 63.5l82 394h38l-78 -376q-14 -70 7.5 -97.5t70.5 -27.5q30 0 56 13t47 35.5t35.5 52.5t21.5 65l69 335h38zM257 717h42l-21 -102h-42zM391 717h42l-21 -102h-42z
" />
    <glyph glyph-name="yacute" unicode="&#xfd;" horiz-adv-x="352" 
d="M409 523h42l-252 -528l-35 -73q-26 -54 -58 -76t-78 -22q-10 0 -19.5 0.5t-18.5 1.5l7 34q10 -1 16.5 -1.5t15.5 -0.5q18 0 32 3t26 12t23.5 25t23.5 42l27 55l-44 528h42l35 -469h2zM396 736h48l-123 -140h-33z" />
    <glyph glyph-name="thorn" unicode="&#xfe;" 
d="M145 263q-15 -69 -15 -120q0 -59 22 -90t71 -31q39 0 67.5 19t49.5 51.5t35.5 76.5t24.5 94q14 70 14 115q0 65 -22.5 94t-61.5 29q-72 0 -115.5 -58.5t-69.5 -179.5zM201 714h38l-59 -283h2q12 21 26.5 40t33 33t42 22.5t54.5 8.5q65 0 92 -40.5t27 -106.5
q0 -28 -4 -59.5t-11 -65.5q-13 -61 -32 -111.5t-45.5 -87t-61.5 -56.5t-81 -20q-56 0 -82.5 29.5t-26.5 83.5h-2l-57 -277h-38z" />
    <glyph glyph-name="ydieresis" unicode="&#xff;" horiz-adv-x="352" 
d="M409 523h42l-252 -528l-35 -73q-26 -54 -58 -76t-78 -22q-10 0 -19.5 0.5t-18.5 1.5l7 34q10 -1 16.5 -1.5t15.5 -0.5q18 0 32 3t26 12t23.5 25t23.5 42l27 55l-44 528h42l35 -469h2zM234 717h42l-21 -102h-42zM368 717h42l-21 -102h-42z" />
    <glyph glyph-name="commaaccent" horiz-adv-x="240" 
d="M104 -50h47l-18 -85q-6 -31 -23 -47t-43 -22l4 20q13 5 22 15t14 32h-21z" />
    <glyph glyph-name="dotlessj" horiz-adv-x="148" 
d="M-67 -142q7 -1 14 -1.5t14 -0.5q11 0 23 2.5t23 10t19.5 22t13.5 39.5l123 593h38l-122 -589q-14 -64 -46 -88t-72 -24q-9 0 -17.5 0.5t-17.5 1.5z" />
    <glyph glyph-name="macron.cap" horiz-adv-x="148" 
d="M105 681h216l-6 -30h-216z" />
    <glyph glyph-name="breve.cap" horiz-adv-x="148" 
d="M334 724q-4 -16 -13 -36t-25.5 -38t-40.5 -30t-58 -12q-27 0 -44.5 8t-27.5 20.5t-14 28.5t-4 31q0 16 3 28h30q-3 -14 -3 -25q0 -29 19 -45t48 -16q42 0 67 25.5t33 60.5h30z" />
    <glyph glyph-name="ring.cap" horiz-adv-x="148" 
d="M152 682q-1 -4 -1.5 -7t-0.5 -6q0 -20 13 -33t35 -13q28 0 50.5 21t22.5 50q0 20 -13 33.5t-35 13.5q-25 0 -45.5 -17t-25.5 -42zM122 682q8 38 38.5 63t68.5 25q32 0 52 -20t20 -51q0 -23 -9.5 -42t-25.5 -33t-35.5 -22t-38.5 -8q-32 0 -52 19.5t-20 49.5v9.5t2 9.5z
" />
    <glyph glyph-name="acute.cap" horiz-adv-x="148" 
d="M263 736h48l-123 -140h-33z" />
    <glyph glyph-name="hungarumlaut.cap" horiz-adv-x="148" 
d="M327 736h48l-123 -140h-33zM193 736h48l-123 -140h-33z" />
    <glyph glyph-name="caron.cap" horiz-adv-x="148" 
d="M110 736h42l50 -110l96 110h42l-124 -140h-42z" />
    <glyph glyph-name="dotaccent.cap" horiz-adv-x="148" 
d="M200 717h42l-21 -102h-42z" />
    <glyph glyph-name="dieresis.cap" horiz-adv-x="148" 
d="M133 717h42l-21 -102h-42zM267 717h42l-21 -102h-42z" />
    <glyph glyph-name="commaaccent.alt" horiz-adv-x="240" 
d="M268 627h-47l18 85q6 31 23 47t43 22l-4 -20q-13 -5 -22 -15t-14 -32h21z" />
    <glyph glyph-name="circumflex.cap" horiz-adv-x="148" 
d="M204 736h42l64 -140h-42l-50 110l-96 -110h-42z" />
    <glyph glyph-name="tilde.cap" horiz-adv-x="148" 
d="M342 711q-2 -12 -8.5 -27t-17.5 -28t-27 -22t-36 -9q-17 0 -29 8t-22.5 17.5t-20.5 17.5t-22 8t-21 -6t-15 -14.5t-9.5 -18t-4.5 -16.5h-30q2 12 8.5 26.5t17.5 27.5t26.5 22t35.5 9q17 0 29.5 -8t23 -17.5t20.5 -17.5t22 -8q13 0 21.5 6t14.5 15t9 18.5t5 16.5h30z" />
    <glyph glyph-name="grave.cap" horiz-adv-x="148" 
d="M237 596h-33l-63 140h48z" />
    <glyph glyph-name="caron.alt" horiz-adv-x="148" 
d="M236 714h47l-76 -140h-28z" />
    <glyph glyph-name="Amacron" unicode="&#x100;" horiz-adv-x="481" 
d="M421 222h-269l-114 -222h-42l370 714h53l66 -714h-42zM383 672h-2l-212 -416h251zM303 855h216l-6 -30h-216z" />
    <glyph glyph-name="amacron" unicode="&#x101;" horiz-adv-x="389" 
d="M357 305h-2q-12 -16 -27.5 -21.5t-45.5 -13.5l-82 -21q-54 -14 -83 -51.5t-29 -102.5q0 -34 18.5 -53.5t59.5 -19.5q67 0 109.5 48t58.5 127zM345 63q-3 -9 -3 -16q0 -10 5 -14.5t13 -4.5q13 0 25 5l-6 -30q-14 -9 -42 -9q-11 0 -23 9.5t-12 32.5q0 3 0.5 6.5t1.5 8.5
l7 33h-2q-20 -42 -61.5 -69t-95.5 -27q-57 0 -81.5 29t-24.5 75q0 78 37.5 123.5t103.5 62.5l120 31q41 11 56 39.5t15 79.5q0 22 -6 36t-17 22.5t-26 11.5t-32 3q-33 0 -57 -9.5t-40.5 -27t-27 -40.5t-16.5 -50h-38q6 27 18 55.5t33 52t53 38.5t78 15q68 0 93.5 -26.5
t25.5 -66.5q0 -11 -1.5 -22t-3.5 -23zM225 681h216l-6 -30h-216z" />
    <glyph glyph-name="Abreve" unicode="&#x102;" horiz-adv-x="481" 
d="M421 222h-269l-114 -222h-42l370 714h53l66 -714h-42zM383 672h-2l-212 -416h251zM528 898q-4 -16 -13 -36t-25.5 -38t-40.5 -30t-58 -12q-27 0 -44.5 8t-27.5 20.5t-14 28.5t-4 31q0 16 3 28h30q-3 -14 -3 -25q0 -29 19 -45t48 -16q42 0 67 25.5t33 60.5h30z" />
    <glyph glyph-name="abreve" unicode="&#x103;" horiz-adv-x="389" 
d="M357 305h-2q-12 -16 -27.5 -21.5t-45.5 -13.5l-82 -21q-54 -14 -83 -51.5t-29 -102.5q0 -34 18.5 -53.5t59.5 -19.5q67 0 109.5 48t58.5 127zM345 63q-3 -9 -3 -16q0 -10 5 -14.5t13 -4.5q13 0 25 5l-6 -30q-14 -9 -42 -9q-11 0 -23 9.5t-12 32.5q0 3 0.5 6.5t1.5 8.5
l7 33h-2q-20 -42 -61.5 -69t-95.5 -27q-57 0 -81.5 29t-24.5 75q0 78 37.5 123.5t103.5 62.5l120 31q41 11 56 39.5t15 79.5q0 22 -6 36t-17 22.5t-26 11.5t-32 3q-33 0 -57 -9.5t-40.5 -27t-27 -40.5t-16.5 -50h-38q6 27 18 55.5t33 52t53 38.5t78 15q68 0 93.5 -26.5
t25.5 -66.5q0 -11 -1.5 -22t-3.5 -23zM449 724q-4 -16 -13 -36t-25.5 -38t-40.5 -30t-58 -12q-27 0 -44.5 8t-27.5 20.5t-14 28.5t-4 31q0 16 3 28h30q-3 -14 -3 -25q0 -29 19 -45t48 -16q42 0 67 25.5t33 60.5h30z" />
    <glyph glyph-name="Aogonek" unicode="&#x104;" horiz-adv-x="481" 
d="M473 0q-54 -42 -79 -68.5t-30 -48.5q-13 -55 39 -55q25 0 51 18l6 -22q-14 -8 -33 -14t-37 -6q-35 0 -53 18.5t-10 53.5q8 32 37.5 62.5t78.5 61.5l-22 222h-269l-114 -222h-42l370 714h53l66 -714h-12zM383 672h-2l-212 -416h251z" />
    <glyph glyph-name="aogonek" unicode="&#x105;" horiz-adv-x="389" 
d="M345 63q-3 -9 -3 -16q0 -10 5 -14.5t13 -4.5q13 0 25 5l-6 -30q-11 -8 -31 -9q-31 -24 -51 -42.5t-32 -33.5t-16.5 -28t-4.5 -27q0 -35 42 -35q25 0 51 18l6 -22q-14 -8 -33 -14t-37 -6q-30 0 -48 13t-18 39q0 34 27.5 68t88.5 74q-9 5 -15 13t-6 22q0 4 0.5 8.5t1.5 9.5
l7 33h-2q-20 -42 -61.5 -69t-95.5 -27q-57 0 -81.5 29t-24.5 75q0 78 37.5 123.5t103.5 62.5l120 31q41 11 56 39.5t15 79.5q0 22 -6 36t-17 22.5t-26 11.5t-32 3q-33 0 -57 -9.5t-40.5 -27t-27 -40.5t-16.5 -50h-38q6 27 18 55.5t33 52t53 38.5t78 15q68 0 93.5 -26.5
t25.5 -66.5q0 -11 -1.5 -22t-3.5 -23zM357 305h-2q-12 -16 -27.5 -21.5t-45.5 -13.5l-82 -21q-54 -14 -83 -51.5t-29 -102.5q0 -34 18.5 -53.5t59.5 -19.5q68 0 109.5 48t58.5 127z" />
    <glyph glyph-name="Cacute" unicode="&#x106;" horiz-adv-x="500" 
d="M530 509q2 14 3.5 26.5t1.5 25.5q0 27 -7 51t-22 42t-38 28t-56 10q-53 0 -94 -24t-72 -67.5t-53.5 -105.5t-38.5 -137q-10 -46 -15 -88t-6 -78q0 -39 7 -70t23 -53.5t41.5 -34.5t62.5 -12q52 0 90.5 26t65 62t41.5 72.5t19 57.5h42q-6 -32 -24 -75t-51 -82.5t-81.5 -67
t-115.5 -27.5q-85 0 -123.5 51t-38.5 147q0 37 5.5 79.5t15.5 90.5q17 84 43.5 152.5t64 116.5t86.5 74.5t111 26.5q48 0 79.5 -15t49.5 -39t25 -53t7 -56q0 -15 -2 -29t-4 -25h-42zM515 910h48l-123 -140h-33z" />
    <glyph glyph-name="cacute" unicode="&#x107;" horiz-adv-x="389" 
d="M404 171q-4 -18 -16.5 -49t-36.5 -61t-60 -51.5t-87 -21.5q-71 0 -99.5 40t-28.5 108q0 29 4 61t12 67q27 133 83 202t150 69q35 0 58.5 -11.5t37.5 -29.5t19.5 -39.5t5.5 -40.5q0 -28 -3 -41h-42q3 10 3 27q0 15 -4 33t-13.5 33t-26.5 25t-43 10q-73 0 -116.5 -62
t-66.5 -177q-8 -37 -12 -67.5t-4 -56.5q0 -60 24 -88t75 -28q36 0 62 18t43.5 42t27 49t12.5 40h42zM423 736h48l-123 -140h-33z" />
    <glyph glyph-name="Ccircumflex" unicode="&#x108;" horiz-adv-x="500" 
d="M530 509q2 14 3.5 26.5t1.5 25.5q0 27 -7 51t-22 42t-38 28t-56 10q-53 0 -94 -24t-72 -67.5t-53.5 -105.5t-38.5 -137q-10 -46 -15 -88t-6 -78q0 -39 7 -70t23 -53.5t41.5 -34.5t62.5 -12q52 0 90.5 26t65 62t41.5 72.5t19 57.5h42q-6 -32 -24 -75t-51 -82.5t-81.5 -67
t-115.5 -27.5q-85 0 -123.5 51t-38.5 147q0 37 5.5 79.5t15.5 90.5q17 84 43.5 152.5t64 116.5t86.5 74.5t111 26.5q48 0 79.5 -15t49.5 -39t25 -53t7 -56q0 -15 -2 -29t-4 -25h-42zM436 910h42l64 -140h-42l-50 110l-96 -110h-42z" />
    <glyph glyph-name="ccircumflex" unicode="&#x109;" horiz-adv-x="389" 
d="M404 171q-4 -18 -16.5 -49t-36.5 -61t-60 -51.5t-87 -21.5q-71 0 -99.5 40t-28.5 108q0 29 4 61t12 67q27 133 83 202t150 69q35 0 58.5 -11.5t37.5 -29.5t19.5 -39.5t5.5 -40.5q0 -28 -3 -41h-42q3 10 3 27q0 15 -4 33t-13.5 33t-26.5 25t-43 10q-73 0 -116.5 -62
t-66.5 -177q-8 -37 -12 -67.5t-4 -56.5q0 -60 24 -88t75 -28q36 0 62 18t43.5 42t27 49t12.5 40h42zM347 736h42l64 -140h-42l-50 110l-96 -110h-42z" />
    <glyph glyph-name="Cdotaccent" unicode="&#x10a;" horiz-adv-x="500" 
d="M530 509q2 14 3.5 26.5t1.5 25.5q0 27 -7 51t-22 42t-38 28t-56 10q-53 0 -94 -24t-72 -67.5t-53.5 -105.5t-38.5 -137q-10 -46 -15 -88t-6 -78q0 -39 7 -70t23 -53.5t41.5 -34.5t62.5 -12q52 0 90.5 26t65 62t41.5 72.5t19 57.5h42q-6 -32 -24 -75t-51 -82.5t-81.5 -67
t-115.5 -27.5q-85 0 -123.5 51t-38.5 147q0 37 5.5 79.5t15.5 90.5q17 84 43.5 152.5t64 116.5t86.5 74.5t111 26.5q48 0 79.5 -15t49.5 -39t25 -53t7 -56q0 -15 -2 -29t-4 -25h-42zM424 891h42l-21 -102h-42z" />
    <glyph glyph-name="cdotaccent" unicode="&#x10b;" horiz-adv-x="389" 
d="M404 171q-4 -18 -16.5 -49t-36.5 -61t-60 -51.5t-87 -21.5q-71 0 -99.5 40t-28.5 108q0 29 4 61t12 67q27 133 83 202t150 69q35 0 58.5 -11.5t37.5 -29.5t19.5 -39.5t5.5 -40.5q0 -28 -3 -41h-42q3 10 3 27q0 15 -4 33t-13.5 33t-26.5 25t-43 10q-73 0 -116.5 -62
t-66.5 -177q-8 -37 -12 -67.5t-4 -56.5q0 -60 24 -88t75 -28q36 0 62 18t43.5 42t27 49t12.5 40h42zM331 717h42l-21 -102h-42z" />
    <glyph glyph-name="Ccaron" unicode="&#x10c;" horiz-adv-x="500" 
d="M530 509q2 14 3.5 26.5t1.5 25.5q0 27 -7 51t-22 42t-38 28t-56 10q-53 0 -94 -24t-72 -67.5t-53.5 -105.5t-38.5 -137q-10 -46 -15 -88t-6 -78q0 -39 7 -70t23 -53.5t41.5 -34.5t62.5 -12q52 0 90.5 26t65 62t41.5 72.5t19 57.5h42q-6 -32 -24 -75t-51 -82.5t-81.5 -67
t-115.5 -27.5q-85 0 -123.5 51t-38.5 147q0 37 5.5 79.5t15.5 90.5q17 84 43.5 152.5t64 116.5t86.5 74.5t111 26.5q48 0 79.5 -15t49.5 -39t25 -53t7 -56q0 -15 -2 -29t-4 -25h-42zM337 910h42l50 -110l96 110h42l-124 -140h-42z" />
    <glyph glyph-name="ccaron" unicode="&#x10d;" horiz-adv-x="389" 
d="M404 171q-4 -18 -16.5 -49t-36.5 -61t-60 -51.5t-87 -21.5q-71 0 -99.5 40t-28.5 108q0 29 4 61t12 67q27 133 83 202t150 69q35 0 58.5 -11.5t37.5 -29.5t19.5 -39.5t5.5 -40.5q0 -28 -3 -41h-42q3 10 3 27q0 15 -4 33t-13.5 33t-26.5 25t-43 10q-73 0 -116.5 -62
t-66.5 -177q-8 -37 -12 -67.5t-4 -56.5q0 -60 24 -88t75 -28q36 0 62 18t43.5 42t27 49t12.5 40h42zM244 736h42l50 -110l96 110h42l-124 -140h-42z" />
    <glyph glyph-name="Dcaron" unicode="&#x10e;" horiz-adv-x="519" 
d="M209 714h163q45 0 82 -9t63.5 -31.5t41.5 -61t15 -98.5q0 -66 -19 -157q-23 -110 -58.5 -179.5t-79 -109t-93 -54t-100.5 -14.5h-121h-42zM231 34q114 0 180.5 79.5t101.5 243.5q19 88 19 155q0 86 -38.5 127t-128.5 41h-121l-134 -646h121zM290 910h42l50 -110l96 110
h42l-124 -140h-42z" />
    <glyph glyph-name="dcaron" unicode="&#x10f;" horiz-adv-x="494" 
d="M134 263q-7 -34 -11 -65t-4 -58q0 -54 20 -86t72 -32q70 0 112 63t66 178q15 69 15 115q0 66 -25 94.5t-70 28.5q-69 0 -109.5 -58.5t-65.5 -179.5zM355 101h-2q-20 -54 -60 -83.5t-95 -29.5q-66 0 -94 39.5t-28 108.5q0 28 4 60t12 67q12 60 30 110t45 86t63 56t84 20
q27 0 46.5 -8.5t32 -22.5t19.5 -33t10 -40h2l59 283h38l-148 -714h-38zM595 714h47l-76 -140h-28z" />
    <glyph glyph-name="Dcroat" unicode="&#x110;" horiz-adv-x="519" 
d="M176 355l-66 -321h121q114 0 180.5 79.5t101.5 243.5q19 88 19 155q0 86 -38.5 127t-128.5 41h-121l-60 -289h180l-8 -36h-180zM134 355h-60l8 36h60l67 323h163q45 0 82 -9t63.5 -31.5t41.5 -61t15 -98.5q0 -66 -19 -157q-23 -110 -58.5 -179.5t-79 -109t-93 -54
t-100.5 -14.5h-121h-42z" />
    <glyph glyph-name="dcroat" unicode="&#x111;" horiz-adv-x="458" 
d="M355 101h-2q-20 -54 -60 -83.5t-95 -29.5q-66 0 -94 39.5t-28 108.5q0 28 4 60t12 67q12 60 30 110t45 86t63 56t84 20q27 0 46.5 -8.5t32 -22.5t19.5 -33t10 -40h2l36 175h-122l6 30h122l17 78h38l-17 -78h82l-6 -30h-82l-125 -606h-38zM134 263q-7 -34 -11 -65t-4 -58
q0 -54 20 -86t72 -32q70 0 112 63t66 178q15 69 15 115q0 66 -25 94.5t-70 28.5q-69 0 -109.5 -58.5t-65.5 -179.5z" />
    <glyph glyph-name="Emacron" unicode="&#x112;" 
d="M209 714h341l-8 -38h-299l-59 -285h279l-8 -38h-279l-66 -315h308l-7 -38h-309h-41zM291 855h216l-6 -30h-216z" />
    <glyph glyph-name="emacron" unicode="&#x113;" horiz-adv-x="407" 
d="M134 264q-5 -27 -11 -61t-6 -68q0 -23 4 -43t14.5 -36t27.5 -25t44 -9q41 0 70 18t47.5 42t28.5 49t13 40h38q-6 -30 -21.5 -62.5t-40.5 -59t-59.5 -44t-78.5 -17.5q-70 0 -98.5 37t-28.5 106q0 62 18 145q25 120 82.5 189.5t146.5 69.5q66 0 94 -36.5t28 -104.5
q0 -28 -4 -60.5t-12 -69.5h-296zM395 298q5 24 8 49t3 48q0 22 -4 41.5t-14.5 33.5t-28 22.5t-44.5 8.5q-44 0 -74.5 -22t-50.5 -54t-31.5 -67t-17.5 -60h254zM246 681h216l-6 -30h-216z" />
    <glyph glyph-name="Ebreve" unicode="&#x114;" 
d="M209 714h341l-8 -38h-299l-59 -285h279l-8 -38h-279l-66 -315h308l-7 -38h-309h-41zM516 898q-4 -16 -13 -36t-25.5 -38t-40.5 -30t-58 -12q-27 0 -44.5 8t-27.5 20.5t-14 28.5t-4 31q0 16 3 28h30q-3 -14 -3 -25q0 -29 19 -45t48 -16q42 0 67 25.5t33 60.5h30z" />
    <glyph glyph-name="ebreve" unicode="&#x115;" horiz-adv-x="407" 
d="M134 264q-5 -27 -11 -61t-6 -68q0 -23 4 -43t14.5 -36t27.5 -25t44 -9q41 0 70 18t47.5 42t28.5 49t13 40h38q-6 -30 -21.5 -62.5t-40.5 -59t-59.5 -44t-78.5 -17.5q-70 0 -98.5 37t-28.5 106q0 62 18 145q25 120 82.5 189.5t146.5 69.5q66 0 94 -36.5t28 -104.5
q0 -28 -4 -60.5t-12 -69.5h-296zM395 298q5 24 8 49t3 48q0 22 -4 41.5t-14.5 33.5t-28 22.5t-44.5 8.5q-44 0 -74.5 -22t-50.5 -54t-31.5 -67t-17.5 -60h254zM474 724q-4 -16 -13 -36t-25.5 -38t-40.5 -30t-58 -12q-27 0 -44.5 8t-27.5 20.5t-14 28.5t-4 31q0 16 3 28h30
q-3 -14 -3 -25q0 -29 19 -45t48 -16q42 0 67 25.5t33 60.5h30z" />
    <glyph glyph-name="Edotaccent" unicode="&#x116;" 
d="M209 714h341l-8 -38h-299l-59 -285h279l-8 -38h-279l-66 -315h308l-7 -38h-309h-41zM386 891h42l-21 -102h-42z" />
    <glyph glyph-name="edotaccent" unicode="&#x117;" horiz-adv-x="407" 
d="M134 264q-5 -27 -11 -61t-6 -68q0 -23 4 -43t14.5 -36t27.5 -25t44 -9q41 0 70 18t47.5 42t28.5 49t13 40h38q-6 -30 -21.5 -62.5t-40.5 -59t-59.5 -44t-78.5 -17.5q-70 0 -98.5 37t-28.5 106q0 62 18 145q25 120 82.5 189.5t146.5 69.5q66 0 94 -36.5t28 -104.5
q0 -28 -4 -60.5t-12 -69.5h-296zM395 298q5 24 8 49t3 48q0 22 -4 41.5t-14.5 33.5t-28 22.5t-44.5 8.5q-44 0 -74.5 -22t-50.5 -54t-31.5 -67t-17.5 -60h254zM336 717h42l-21 -102h-42z" />
    <glyph glyph-name="Eogonek" unicode="&#x118;" 
d="M384 0q-54 -42 -79 -68.5t-30 -48.5q-13 -55 39 -55q25 0 51 18l6 -22q-14 -8 -33 -14t-37 -6q-35 0 -53 18.5t-10 53.5q8 32 37.5 62.5t78.5 61.5h-252h-41l148 714h341l-8 -38h-299l-59 -285h279l-8 -38h-279l-66 -315h308l-7 -38h-27z" />
    <glyph glyph-name="eogonek" unicode="&#x119;" horiz-adv-x="407" 
d="M134 264q-5 -27 -11 -61t-6 -68q0 -23 4 -43t14.5 -36t27.5 -25t44 -9q41 0 70 18t47.5 42t28.5 49t13 40h38q-5 -27 -17 -54.5t-31.5 -52t-46.5 -43.5t-62 -28q-32 -25 -52 -43t-31 -33t-15 -28t-4 -26q0 -35 42 -35q25 0 51 18l6 -22q-14 -8 -33 -14t-37 -6
q-30 0 -48 13t-18 39q0 61 100 132h-4q-70 0 -98.5 37t-28.5 106q0 62 18 145q25 120 82.5 189.5t146.5 69.5q66 0 94 -36.5t28 -104.5q0 -28 -4 -60.5t-12 -69.5h-296zM395 298q5 24 8 49t3 48q0 22 -4 41.5t-14.5 33.5t-28 22.5t-44.5 8.5q-44 0 -74.5 -22t-50.5 -54
t-31.5 -67t-17.5 -60h254z" />
    <glyph glyph-name="Ecaron" unicode="&#x11a;" 
d="M209 714h341l-8 -38h-299l-59 -285h279l-8 -38h-279l-66 -315h308l-7 -38h-309h-41zM297 910h42l50 -110l96 110h42l-124 -140h-42z" />
    <glyph glyph-name="ecaron" unicode="&#x11b;" horiz-adv-x="407" 
d="M134 264q-5 -27 -11 -61t-6 -68q0 -23 4 -43t14.5 -36t27.5 -25t44 -9q41 0 70 18t47.5 42t28.5 49t13 40h38q-6 -30 -21.5 -62.5t-40.5 -59t-59.5 -44t-78.5 -17.5q-70 0 -98.5 37t-28.5 106q0 62 18 145q25 120 82.5 189.5t146.5 69.5q66 0 94 -36.5t28 -104.5
q0 -28 -4 -60.5t-12 -69.5h-296zM395 298q5 24 8 49t3 48q0 22 -4 41.5t-14.5 33.5t-28 22.5t-44.5 8.5q-44 0 -74.5 -22t-50.5 -54t-31.5 -67t-17.5 -60h254zM251 736h42l50 -110l96 110h42l-124 -140h-42z" />
    <glyph glyph-name="Gcircumflex" unicode="&#x11c;" horiz-adv-x="519" 
d="M476 144h-2q-32 -73 -88 -114.5t-132 -41.5q-85 0 -123.5 51.5t-38.5 148.5q0 71 20 168q17 84 43.5 152.5t64 116.5t86.5 74.5t111 26.5q48 0 79.5 -15t49.5 -39t25 -53t7 -56q0 -15 -2 -29t-4 -25h-42q2 14 3.5 26.5t1.5 25.5q0 27 -7 51t-22 42t-38 28t-56 10
q-53 0 -94 -24t-72 -67.5t-53.5 -105.5t-38.5 -137q-10 -46 -15 -88t-6 -78q0 -39 7 -70t23 -53.5t41.5 -34.5t62.5 -12q50 0 88.5 22.5t67 59t46.5 82.5t28 93l9 44h-196l7 34h238l-74 -357h-34zM432 910h42l64 -140h-42l-50 110l-96 -110h-42z" />
    <glyph glyph-name="gcircumflex" unicode="&#x11d;" 
d="M379 29q-10 -48 -26.5 -87.5t-41.5 -67.5t-60.5 -43t-84.5 -15q-38 0 -61 10t-36 25t-17 32.5t-4 32.5q0 10 1 17.5t2 12.5h38q-3 -12 -3 -24q0 -32 21.5 -52t69.5 -20q67 0 105 39t55 121l20 96h-3q-9 -17 -22.5 -36t-32.5 -34.5t-44.5 -25.5t-59.5 -10q-65 0 -91 40.5
t-26 104.5q0 52 14 119q11 54 27.5 103t42.5 86.5t63 59.5t89 22q51 0 77.5 -26.5t31.5 -72.5h2l18 87h38zM134 264q-6 -32 -9.5 -59.5t-3.5 -52.5q0 -54 20.5 -86t72.5 -32q36 0 64 17t49.5 48.5t37 75.5t26.5 97q13 62 13 111q0 118 -88 118q-32 0 -59 -12t-49.5 -40
t-41 -73t-32.5 -112zM359 736h42l64 -140h-42l-50 110l-96 -110h-42z" />
    <glyph glyph-name="Gbreve" unicode="&#x11e;" horiz-adv-x="519" 
d="M476 144h-2q-32 -73 -88 -114.5t-132 -41.5q-85 0 -123.5 51.5t-38.5 148.5q0 71 20 168q17 84 43.5 152.5t64 116.5t86.5 74.5t111 26.5q48 0 79.5 -15t49.5 -39t25 -53t7 -56q0 -15 -2 -29t-4 -25h-42q2 14 3.5 26.5t1.5 25.5q0 27 -7 51t-22 42t-38 28t-56 10
q-53 0 -94 -24t-72 -67.5t-53.5 -105.5t-38.5 -137q-10 -46 -15 -88t-6 -78q0 -39 7 -70t23 -53.5t41.5 -34.5t62.5 -12q50 0 88.5 22.5t67 59t46.5 82.5t28 93l9 44h-196l7 34h238l-74 -357h-34zM562 898q-4 -16 -13 -36t-25.5 -38t-40.5 -30t-58 -12q-27 0 -44.5 8
t-27.5 20.5t-14 28.5t-4 31q0 16 3 28h30q-3 -14 -3 -25q0 -29 19 -45t48 -16q42 0 67 25.5t33 60.5h30z" />
    <glyph glyph-name="gbreve" unicode="&#x11f;" 
d="M379 29q-10 -48 -26.5 -87.5t-41.5 -67.5t-60.5 -43t-84.5 -15q-38 0 -61 10t-36 25t-17 32.5t-4 32.5q0 10 1 17.5t2 12.5h38q-3 -12 -3 -24q0 -32 21.5 -52t69.5 -20q67 0 105 39t55 121l20 96h-3q-9 -17 -22.5 -36t-32.5 -34.5t-44.5 -25.5t-59.5 -10q-65 0 -91 40.5
t-26 104.5q0 52 14 119q11 54 27.5 103t42.5 86.5t63 59.5t89 22q51 0 77.5 -26.5t31.5 -72.5h2l18 87h38zM134 264q-6 -32 -9.5 -59.5t-3.5 -52.5q0 -54 20.5 -86t72.5 -32q36 0 64 17t49.5 48.5t37 75.5t26.5 97q13 62 13 111q0 118 -88 118q-32 0 -59 -12t-49.5 -40
t-41 -73t-32.5 -112zM480 724q-4 -16 -13 -36t-25.5 -38t-40.5 -30t-58 -12q-27 0 -44.5 8t-27.5 20.5t-14 28.5t-4 31q0 16 3 28h30q-3 -14 -3 -25q0 -29 19 -45t48 -16q42 0 67 25.5t33 60.5h30z" />
    <glyph glyph-name="Gdotaccent" unicode="&#x120;" horiz-adv-x="519" 
d="M476 144h-2q-32 -73 -88 -114.5t-132 -41.5q-85 0 -123.5 51.5t-38.5 148.5q0 71 20 168q17 84 43.5 152.5t64 116.5t86.5 74.5t111 26.5q48 0 79.5 -15t49.5 -39t25 -53t7 -56q0 -15 -2 -29t-4 -25h-42q2 14 3.5 26.5t1.5 25.5q0 27 -7 51t-22 42t-38 28t-56 10
q-53 0 -94 -24t-72 -67.5t-53.5 -105.5t-38.5 -137q-10 -46 -15 -88t-6 -78q0 -39 7 -70t23 -53.5t41.5 -34.5t62.5 -12q50 0 88.5 22.5t67 59t46.5 82.5t28 93l9 44h-196l7 34h238l-74 -357h-34zM424 891h42l-21 -102h-42z" />
    <glyph glyph-name="gdotaccent" unicode="&#x121;" 
d="M379 29q-10 -48 -26.5 -87.5t-41.5 -67.5t-60.5 -43t-84.5 -15q-38 0 -61 10t-36 25t-17 32.5t-4 32.5q0 10 1 17.5t2 12.5h38q-3 -12 -3 -24q0 -32 21.5 -52t69.5 -20q67 0 105 39t55 121l20 96h-3q-9 -17 -22.5 -36t-32.5 -34.5t-44.5 -25.5t-59.5 -10q-65 0 -91 40.5
t-26 104.5q0 52 14 119q11 54 27.5 103t42.5 86.5t63 59.5t89 22q51 0 77.5 -26.5t31.5 -72.5h2l18 87h38zM134 264q-6 -32 -9.5 -59.5t-3.5 -52.5q0 -54 20.5 -86t72.5 -32q36 0 64 17t49.5 48.5t37 75.5t26.5 97q13 62 13 111q0 118 -88 118q-32 0 -59 -12t-49.5 -40
t-41 -73t-32.5 -112zM343 717h42l-21 -102h-42z" />
    <glyph glyph-name="Gcommaaccent" unicode="&#x122;" horiz-adv-x="519" 
d="M476 144h-2q-32 -73 -88 -114.5t-132 -41.5q-85 0 -123.5 51.5t-38.5 148.5q0 71 20 168q17 84 43.5 152.5t64 116.5t86.5 74.5t111 26.5q48 0 79.5 -15t49.5 -39t25 -53t7 -56q0 -15 -2 -29t-4 -25h-42q2 14 3.5 26.5t1.5 25.5q0 27 -7 51t-22 42t-38 28t-56 10
q-53 0 -94 -24t-72 -67.5t-53.5 -105.5t-38.5 -137q-10 -46 -15 -88t-6 -78q0 -39 7 -70t23 -53.5t41.5 -34.5t62.5 -12q50 0 88.5 22.5t67 59t46.5 82.5t28 93l9 44h-196l7 34h238l-74 -357h-34zM250 -50h47l-18 -85q-6 -31 -23 -47t-43 -22l4 20q13 5 22 15t14 32h-21z
" />
    <glyph glyph-name="gcommaaccent" unicode="&#x123;" 
d="M379 29q-10 -48 -26.5 -87.5t-41.5 -67.5t-60.5 -43t-84.5 -15q-38 0 -61 10t-36 25t-17 32.5t-4 32.5q0 10 1 17.5t2 12.5h38q-3 -12 -3 -24q0 -32 21.5 -52t69.5 -20q67 0 105 39t55 121l20 96h-3q-9 -17 -22.5 -36t-32.5 -34.5t-44.5 -25.5t-59.5 -10q-65 0 -91 40.5
t-26 104.5q0 52 14 119q11 54 27.5 103t42.5 86.5t63 59.5t89 22q51 0 77.5 -26.5t31.5 -72.5h2l18 87h38zM134 264q-6 -32 -9.5 -59.5t-3.5 -52.5q0 -54 20.5 -86t72.5 -32q36 0 64 17t49.5 48.5t37 75.5t26.5 97q13 62 13 111q0 118 -88 118q-32 0 -59 -12t-49.5 -40
t-41 -73t-32.5 -112zM360 627h-47l18 85q6 31 23 47t43 22l-4 -20q-13 -5 -22 -15t-14 -32h21z" />
    <glyph glyph-name="Hcircumflex" unicode="&#x124;" horiz-adv-x="519" 
d="M209 714h42l-65 -313h313l65 313h42l-148 -714h-42l75 363h-313l-75 -363h-42zM421 910h42l64 -140h-42l-50 110l-96 -110h-42z" />
    <glyph glyph-name="hcircumflex" unicode="&#x125;" horiz-adv-x="407" 
d="M199 714h38l-56 -270h2q10 17 25 33.5t34.5 29t42.5 20.5t50 8q28 0 50 -8t36.5 -25.5t19 -44t-3.5 -63.5l-81 -394h-38l78 376q14 70 -7.5 97.5t-70.5 27.5q-30 0 -56 -13t-47 -35.5t-35.5 -53t-21.5 -64.5l-69 -335h-38zM359 910h42l64 -140h-42l-50 110l-96 -110h-42z
" />
    <glyph glyph-name="Hbar" unicode="&#x126;" horiz-adv-x="519" 
d="M209 714h42l-40 -191h313l40 191h42l-148 -714h-42l75 363h-313l-75 -363h-42zM499 401l19 92h-313l-19 -92h313z" />
    <glyph glyph-name="hbar" unicode="&#x127;" horiz-adv-x="437" 
d="M133 636h79l17 78h38l-17 -78h113l-6 -30h-113l-33 -162h2q10 17 25 33.5t34.5 29t42.5 20.5t50 8q28 0 50 -8t36.5 -25.5t19 -44t-3.5 -63.5l-81 -394h-38l78 376q14 70 -7.5 97.5t-70.5 27.5q-30 0 -56 -13t-47 -35.5t-35.5 -53t-21.5 -64.5l-69 -335h-38l125 606h-79z
" />
    <glyph glyph-name="Itilde" unicode="&#x128;" horiz-adv-x="164" 
d="M209 714h42l-148 -714h-42zM376 885q-2 -12 -8.5 -27t-17.5 -28t-27 -22t-36 -9q-17 0 -29 8t-22.5 17.5t-20.5 17.5t-22 8t-21 -6t-15 -14.5t-9.5 -18t-4.5 -16.5h-30q2 12 8.5 26.5t17.5 27.5t26.5 22t35.5 9q17 0 29.5 -8t23 -17.5t20.5 -17.5t22 -8q13 0 21.5 6
t14.5 15t9 18.5t5 16.5h30z" />
    <glyph glyph-name="itilde" unicode="&#x129;" horiz-adv-x="148" 
d="M163 523h38l-108 -523h-38zM326 711q-2 -12 -8.5 -27t-17.5 -28t-27 -22t-36 -9q-17 0 -29 8t-22.5 17.5t-20.5 17.5t-22 8t-21 -6t-15 -14.5t-9.5 -18t-4.5 -16.5h-30q2 12 8.5 26.5t17.5 27.5t26.5 22t35.5 9q17 0 29.5 -8t23 -17.5t20.5 -17.5t22 -8q13 0 21.5 6
t14.5 15t9 18.5t5 16.5h30z" />
    <glyph glyph-name="Imacron" unicode="&#x12a;" horiz-adv-x="164" 
d="M209 714h42l-148 -714h-42zM140 855h216l-6 -30h-216z" />
    <glyph glyph-name="imacron" unicode="&#x12b;" horiz-adv-x="148" 
d="M163 523h38l-108 -523h-38zM98 681h216l-6 -30h-216z" />
    <glyph glyph-name="Iogonek" unicode="&#x12e;" horiz-adv-x="164" 
d="M103 0q-49 -42 -71.5 -68.5t-26.5 -48.5q-13 -55 35 -55q23 0 46 18l5 -22q-13 -8 -30 -14t-33 -6q-32 0 -48 18.5t-9 53.5q7 32 33.5 62.5t71.5 61.5h-15l148 714h42z" />
    <glyph glyph-name="iogonek" unicode="&#x12f;" horiz-adv-x="148" 
d="M93 0q-49 -42 -71.5 -68.5t-26.5 -48.5q-13 -55 35 -55q23 0 46 18l5 -22q-13 -8 -30 -14t-33 -6q-32 0 -48 18.5t-9 53.5q7 32 33.5 62.5t71.5 61.5h-11l108 523h38zM203 714h38l-21 -102h-38z" />
    <glyph glyph-name="Idotaccent" unicode="&#x130;" horiz-adv-x="164" 
d="M209 714h42l-148 -714h-42zM243 891h42l-21 -102h-42z" />
    <glyph glyph-name="dotlessi" unicode="&#x131;" horiz-adv-x="148" 
d="M163 523h38l-108 -523h-38z" />
    <glyph glyph-name="Jcircumflex" unicode="&#x134;" horiz-adv-x="407" 
d="M104 187q-5 -19 -6.5 -36t-1.5 -31q0 -98 90 -98q24 0 47 6.5t43.5 22.5t36 43.5t24.5 68.5l115 551h42l-115 -551q-19 -90 -72 -132.5t-125 -42.5t-100 33t-28 89q0 19 2.5 39.5t7.5 43.5l3 16h42zM487 910h42l64 -140h-42l-50 110l-96 -110h-42z" />
    <glyph glyph-name="jcircumflex" unicode="&#x135;" horiz-adv-x="148" 
d="M-67 -142q7 -1 14 -1.5t14 -0.5q11 0 23 2.5t23 10t19.5 22t13.5 39.5l123 593h38l-122 -589q-14 -64 -46 -88t-72 -24q-9 0 -17.5 0.5t-17.5 1.5zM197 736h42l64 -140h-42l-50 110l-96 -110h-42z" />
    <glyph glyph-name="Kcommaaccent" unicode="&#x136;" horiz-adv-x="463" 
d="M209 714h42l-83 -397h2l378 397h46l-287 -301l161 -413h-48l-147 378l-117 -122l-53 -256h-42zM227 -50h47l-18 -85q-6 -31 -23 -47t-43 -22l4 20q13 5 22 15t14 32h-21z" />
    <glyph glyph-name="kcommaaccent" unicode="&#x137;" horiz-adv-x="389" 
d="M199 714h38l-98 -469h2l284 278h48l-202 -194l123 -329h-48l-109 295l-109 -103l-39 -192h-38zM179 -50h47l-18 -85q-6 -31 -23 -47t-43 -22l4 20q13 5 22 15t14 32h-21z" />
    <glyph glyph-name="Lacute" unicode="&#x139;" 
d="M209 714h42l-141 -676h299l-7 -38h-302h-39zM331 910h48l-123 -140h-33z" />
    <glyph glyph-name="lacute" unicode="&#x13a;" horiz-adv-x="148" 
d="M203 714h38l-148 -714h-38zM321 910h48l-123 -140h-33z" />
    <glyph glyph-name="Lcommaaccent" unicode="&#x13b;" 
d="M209 714h42l-141 -676h299l-7 -38h-302h-39zM200 -50h47l-18 -85q-6 -31 -23 -47t-43 -22l4 20q13 5 22 15t14 32h-21z" />
    <glyph glyph-name="lcommaaccent" unicode="&#x13c;" horiz-adv-x="148" 
d="M203 714h38l-148 -714h-38zM42 -50h47l-18 -85q-6 -31 -23 -47t-43 -22l4 20q13 5 22 15t14 32h-21z" />
    <glyph glyph-name="Lcaron" unicode="&#x13d;" 
d="M209 714h42l-141 -676h299l-7 -38h-302h-39zM354 714h47l-76 -140h-28z" />
    <glyph glyph-name="lcaron" unicode="&#x13e;" horiz-adv-x="214" 
d="M203 714h38l-148 -714h-38zM315 714h47l-76 -140h-28z" />
    <glyph glyph-name="Ldot" unicode="&#x13f;" 
d="M209 714h42l-141 -676h299l-7 -38h-302h-39zM303 524h42l-21 -102h-42z" />
    <glyph glyph-name="ldot" unicode="&#x140;" horiz-adv-x="227" 
d="M203 714h38l-148 -714h-38zM261 524h42l-21 -102h-42z" />
    <glyph glyph-name="Lslash" unicode="&#x141;" 
d="M123 301l-82 -55l9 46l83 55l76 367h42l-70 -335l217 144l-9 -46l-217 -144l-62 -295h299l-7 -38h-300h-41z" />
    <glyph glyph-name="lslash" unicode="&#x142;" horiz-adv-x="148" 
d="M122 324h-2l-67 -66l11 52l69 66l70 338h38l-62 -298h2l67 66l-11 -52l-69 -66l-75 -364h-38z" />
    <glyph glyph-name="Nacute" unicode="&#x143;" horiz-adv-x="519" 
d="M258 714l176 -648h2l135 648h42l-148 -714h-55l-178 648h-2l-134 -648h-42l148 714h56zM497 910h48l-123 -140h-33z" />
    <glyph glyph-name="nacute" unicode="&#x144;" horiz-adv-x="407" 
d="M159 523h38l-16 -79h2q10 17 25 33.5t34.5 29t42.5 20.5t50 8q47 0 77 -23.5t30 -74.5q0 -10 -1.5 -20.5t-3.5 -22.5l-81 -394h-38l78 376q3 14 4 25.5t1 21.5q0 43 -22 60.5t-61 17.5q-30 0 -56 -13t-47 -35.5t-35.5 -53t-21.5 -64.5l-69 -335h-38zM399 736h48
l-123 -140h-33z" />
    <glyph glyph-name="Ncommaaccent" unicode="&#x145;" horiz-adv-x="519" 
d="M258 714l176 -648h2l135 648h42l-148 -714h-55l-178 648h-2l-134 -648h-42l148 714h56zM230 -50h47l-18 -85q-6 -31 -23 -47t-43 -22l4 20q13 5 22 15t14 32h-21z" />
    <glyph glyph-name="ncommaaccent" unicode="&#x146;" horiz-adv-x="407" 
d="M159 523h38l-16 -79h2q10 17 25 33.5t34.5 29t42.5 20.5t50 8q47 0 77 -23.5t30 -74.5q0 -10 -1.5 -20.5t-3.5 -22.5l-81 -394h-38l78 376q3 14 4 25.5t1 21.5q0 43 -22 60.5t-61 17.5q-30 0 -56 -13t-47 -35.5t-35.5 -53t-21.5 -64.5l-69 -335h-38zM177 -50h47l-18 -85
q-6 -31 -23 -47t-43 -22l4 20q13 5 22 15t14 32h-21z" />
    <glyph glyph-name="Ncaron" unicode="&#x147;" horiz-adv-x="519" 
d="M258 714l176 -648h2l135 648h42l-148 -714h-55l-178 648h-2l-134 -648h-42l148 714h56zM326 910h42l50 -110l96 110h42l-124 -140h-42z" />
    <glyph glyph-name="ncaron" unicode="&#x148;" horiz-adv-x="407" 
d="M159 523h38l-16 -79h2q10 17 25 33.5t34.5 29t42.5 20.5t50 8q47 0 77 -23.5t30 -74.5q0 -10 -1.5 -20.5t-3.5 -22.5l-81 -394h-38l78 376q3 14 4 25.5t1 21.5q0 43 -22 60.5t-61 17.5q-30 0 -56 -13t-47 -35.5t-35.5 -53t-21.5 -64.5l-69 -335h-38zM232 736h42l50 -110
l96 110h42l-124 -140h-42z" />
    <glyph glyph-name="Omacron" unicode="&#x14c;" horiz-adv-x="537" 
d="M412 692q-53 0 -94 -25t-72.5 -69t-54 -106t-37.5 -135q-20 -95 -20 -166q0 -78 31 -123.5t108 -45.5q99 0 161 82t97 253q9 44 14 83.5t5 74.5q0 81 -31.5 129t-106.5 48zM419 726q41 0 73 -10.5t54.5 -34.5t34.5 -62.5t12 -93.5q0 -35 -5 -76.5t-15 -91.5
q-24 -117 -61 -189.5t-79 -112.5t-85.5 -53.5t-81.5 -13.5q-39 0 -71.5 11t-55 35t-35 63t-12.5 95q0 35 4.5 75.5t15.5 89.5q21 104 53.5 174.5t72.5 114t86 62t95 18.5zM339 855h216l-6 -30h-216z" />
    <glyph glyph-name="omacron" unicode="&#x14d;" 
d="M400 261q15 69 15 119q0 59 -22.5 90t-75.5 31q-75 0 -117.5 -62.5t-65.5 -177.5q-7 -35 -11 -64t-4 -55q0 -58 22.5 -89t75.5 -31q75 0 117.5 62t65.5 177zM442 262q-12 -57 -30 -106.5t-45.5 -87t-66.5 -59t-93 -21.5q-36 0 -61 11t-40.5 30.5t-22 47.5t-6.5 61
q0 73 15.5 144t46.5 127t78 91t110 35q36 0 61 -11t40.5 -30.5t22 -47.5t6.5 -61q0 -28 -4 -59t-11 -64zM247 681h216l-6 -30h-216z" />
    <glyph glyph-name="Obreve" unicode="&#x14e;" horiz-adv-x="537" 
d="M412 692q-53 0 -94 -25t-72.5 -69t-54 -106t-37.5 -135q-20 -95 -20 -166q0 -78 31 -123.5t108 -45.5q99 0 161 82t97 253q9 44 14 83.5t5 74.5q0 81 -31.5 129t-106.5 48zM419 726q41 0 73 -10.5t54.5 -34.5t34.5 -62.5t12 -93.5q0 -35 -5 -76.5t-15 -91.5
q-24 -117 -61 -189.5t-79 -112.5t-85.5 -53.5t-81.5 -13.5q-39 0 -71.5 11t-55 35t-35 63t-12.5 95q0 35 4.5 75.5t15.5 89.5q21 104 53.5 174.5t72.5 114t86 62t95 18.5zM563 898q-4 -16 -13 -36t-25.5 -38t-40.5 -30t-58 -12q-27 0 -44.5 8t-27.5 20.5t-14 28.5t-4 31
q0 16 3 28h30q-3 -14 -3 -25q0 -29 19 -45t48 -16q42 0 67 25.5t33 60.5h30z" />
    <glyph glyph-name="obreve" unicode="&#x14f;" 
d="M400 261q15 69 15 119q0 59 -22.5 90t-75.5 31q-75 0 -117.5 -62.5t-65.5 -177.5q-7 -35 -11 -64t-4 -55q0 -58 22.5 -89t75.5 -31q75 0 117.5 62t65.5 177zM442 262q-12 -57 -30 -106.5t-45.5 -87t-66.5 -59t-93 -21.5q-36 0 -61 11t-40.5 30.5t-22 47.5t-6.5 61
q0 73 15.5 144t46.5 127t78 91t110 35q36 0 61 -11t40.5 -30.5t22 -47.5t6.5 -61q0 -28 -4 -59t-11 -64zM471 724q-4 -16 -13 -36t-25.5 -38t-40.5 -30t-58 -12q-27 0 -44.5 8t-27.5 20.5t-14 28.5t-4 31q0 16 3 28h30q-3 -14 -3 -25q0 -29 19 -45t48 -16q42 0 67 25.5
t33 60.5h30z" />
    <glyph glyph-name="Ohungarumlaut" unicode="&#x150;" horiz-adv-x="537" 
d="M412 692q-53 0 -94 -25t-72.5 -69t-54 -106t-37.5 -135q-20 -95 -20 -166q0 -78 31 -123.5t108 -45.5q99 0 161 82t97 253q9 44 14 83.5t5 74.5q0 81 -31.5 129t-106.5 48zM419 726q41 0 73 -10.5t54.5 -34.5t34.5 -62.5t12 -93.5q0 -35 -5 -76.5t-15 -91.5
q-24 -117 -61 -189.5t-79 -112.5t-85.5 -53.5t-81.5 -13.5q-39 0 -71.5 11t-55 35t-35 63t-12.5 95q0 35 4.5 75.5t15.5 89.5q21 104 53.5 174.5t72.5 114t86 62t95 18.5zM584 910h48l-123 -140h-33zM450 910h48l-123 -140h-33z" />
    <glyph glyph-name="ohungarumlaut" unicode="&#x151;" 
d="M400 261q15 69 15 119q0 59 -22.5 90t-75.5 31q-75 0 -117.5 -62.5t-65.5 -177.5q-7 -35 -11 -64t-4 -55q0 -58 22.5 -89t75.5 -31q75 0 117.5 62t65.5 177zM442 262q-12 -57 -30 -106.5t-45.5 -87t-66.5 -59t-93 -21.5q-36 0 -61 11t-40.5 30.5t-22 47.5t-6.5 61
q0 73 15.5 144t46.5 127t78 91t110 35q36 0 61 -11t40.5 -30.5t22 -47.5t6.5 -61q0 -28 -4 -59t-11 -64zM493 736h48l-123 -140h-33zM359 736h48l-123 -140h-33z" />
    <glyph glyph-name="Racute" unicode="&#x154;" horiz-adv-x="500" 
d="M312 365q30 0 61 6t59 24t49.5 49.5t32.5 82.5q2 12 3.5 23t1.5 22q0 51 -29.5 79.5t-84.5 28.5h-161l-66 -315h134zM209 714h209q63 0 103.5 -32t40.5 -102q0 -44 -13.5 -83.5t-37.5 -70.5t-58.5 -51t-76.5 -25v-2q63 -5 86 -32t23 -72q0 -17 -1.5 -35t-6.5 -38l-16 -75
q-3 -14 -4 -24.5t-1 -21.5q0 -26 10 -50h-48q-5 18 -5 39q0 27 7 58l15 73q4 20 6 37t2 31q0 45 -27 69t-91 24h-154l-68 -331h-42zM457 910h48l-123 -140h-33z" />
    <glyph glyph-name="racute" unicode="&#x155;" horiz-adv-x="241" 
d="M159 523h38l-19 -91h2q24 45 62.5 74t90.5 29h22l-7 -34h-22q-33 0 -61 -14.5t-50 -38t-36.5 -54t-20.5 -62.5l-69 -332h-38zM286 736h48l-123 -140h-33z" />
    <glyph glyph-name="Rcommaaccent" unicode="&#x156;" horiz-adv-x="500" 
d="M312 365q30 0 61 6t59 24t49.5 49.5t32.5 82.5q2 12 3.5 23t1.5 22q0 51 -29.5 79.5t-84.5 28.5h-161l-66 -315h134zM209 714h209q63 0 103.5 -32t40.5 -102q0 -44 -13.5 -83.5t-37.5 -70.5t-58.5 -51t-76.5 -25v-2q63 -5 86 -32t23 -72q0 -17 -1.5 -35t-6.5 -38l-16 -75
q-3 -14 -4 -24.5t-1 -21.5q0 -26 10 -50h-48q-5 18 -5 39q0 27 7 58l15 73q4 20 6 37t2 31q0 45 -27 69t-91 24h-154l-68 -331h-42zM229 -50h47l-18 -85q-6 -31 -23 -47t-43 -22l4 20q13 5 22 15t14 32h-21z" />
    <glyph glyph-name="rcommaaccent" unicode="&#x157;" horiz-adv-x="241" 
d="M159 523h38l-19 -91h2q24 45 62.5 74t90.5 29h22l-7 -34h-22q-33 0 -61 -14.5t-50 -38t-36.5 -54t-20.5 -62.5l-69 -332h-38zM40 -50h47l-18 -85q-6 -31 -23 -47t-43 -22l4 20q13 5 22 15t14 32h-21z" />
    <glyph glyph-name="Rcaron" unicode="&#x158;" horiz-adv-x="500" 
d="M312 365q30 0 61 6t59 24t49.5 49.5t32.5 82.5q2 12 3.5 23t1.5 22q0 51 -29.5 79.5t-84.5 28.5h-161l-66 -315h134zM209 714h209q63 0 103.5 -32t40.5 -102q0 -44 -13.5 -83.5t-37.5 -70.5t-58.5 -51t-76.5 -25v-2q63 -5 86 -32t23 -72q0 -17 -1.5 -35t-6.5 -38l-16 -75
q-3 -14 -4 -24.5t-1 -21.5q0 -26 10 -50h-48q-5 18 -5 39q0 27 7 58l15 73q4 20 6 37t2 31q0 45 -27 69t-91 24h-154l-68 -331h-42zM303 910h42l50 -110l96 110h42l-124 -140h-42z" />
    <glyph glyph-name="rcaron" unicode="&#x159;" horiz-adv-x="241" 
d="M159 523h38l-19 -91h2q24 45 62.5 74t90.5 29h22l-7 -34h-22q-33 0 -61 -14.5t-50 -38t-36.5 -54t-20.5 -62.5l-69 -332h-38zM172 736h42l50 -110l96 110h42l-124 -140h-42z" />
    <glyph glyph-name="Sacute" unicode="&#x15a;" horiz-adv-x="481" 
d="M115 183q-2 -11 -3 -21t-1 -19q0 -54 33 -87.5t99 -33.5q42 0 79 16t64.5 44t43.5 65t16 78q0 46 -27.5 70.5t-74.5 41.5l-76 28q-55 20 -84 49.5t-29 80.5q0 53 19.5 95.5t52 72.5t75 46.5t87.5 16.5q82 0 120 -36t38 -99q0 -14 -2 -28.5t-5 -30.5h-42q6 27 6 51
q0 51 -28 80t-90 29q-30 0 -63 -9.5t-61 -31t-46 -57.5t-18 -88q0 -42 22.5 -64t58.5 -36l98 -37q54 -20 83.5 -49.5t29.5 -82.5q0 -60 -22.5 -106t-58.5 -78t-81.5 -48.5t-91.5 -16.5q-51 0 -84 13.5t-52 34.5t-26.5 47t-7.5 51q0 11 1 20.5t3 18.5l10 47h42zM485 910h48
l-123 -140h-33z" />
    <glyph glyph-name="sacute" unicode="&#x15b;" horiz-adv-x="352" 
d="M353 376l3 15q2 9 3 19t1 20q0 28 -16 49.5t-63 21.5q-22 0 -44 -7t-40 -22t-29.5 -39t-11.5 -57q0 -28 15 -45.5t45 -29.5l74 -30q35 -14 53 -38t18 -60q0 -42 -15.5 -76t-41.5 -58t-59.5 -37.5t-69.5 -13.5q-39 0 -64 9.5t-39.5 24.5t-19.5 34.5t-5 39.5q0 15 2 29.5
t5 27.5l3 14h38l-3 -17q-2 -12 -3.5 -22.5t-1.5 -21.5q0 -38 21.5 -61t73.5 -23q33 0 58 12t42.5 31.5t26 44t8.5 50.5t-13.5 45t-45.5 33l-71 31q-37 16 -55.5 38.5t-18.5 56.5q0 42 14.5 73.5t39 53.5t56 33t65.5 11q33 0 54.5 -8t34 -21.5t17.5 -30.5t5 -36q0 -22 -5 -47
l-3 -16h-38zM384 736h48l-123 -140h-33z" />
    <glyph glyph-name="Scircumflex" unicode="&#x15c;" horiz-adv-x="481" 
d="M115 183q-2 -11 -3 -21t-1 -19q0 -54 33 -87.5t99 -33.5q42 0 79 16t64.5 44t43.5 65t16 78q0 46 -27.5 70.5t-74.5 41.5l-76 28q-55 20 -84 49.5t-29 80.5q0 53 19.5 95.5t52 72.5t75 46.5t87.5 16.5q82 0 120 -36t38 -99q0 -14 -2 -28.5t-5 -30.5h-42q6 27 6 51
q0 51 -28 80t-90 29q-30 0 -63 -9.5t-61 -31t-46 -57.5t-18 -88q0 -42 22.5 -64t58.5 -36l98 -37q54 -20 83.5 -49.5t29.5 -82.5q0 -60 -22.5 -106t-58.5 -78t-81.5 -48.5t-91.5 -16.5q-51 0 -84 13.5t-52 34.5t-26.5 47t-7.5 51q0 11 1 20.5t3 18.5l10 47h42zM409 910h42
l64 -140h-42l-50 110l-96 -110h-42z" />
    <glyph glyph-name="scircumflex" unicode="&#x15d;" horiz-adv-x="352" 
d="M353 376l3 15q2 9 3 19t1 20q0 28 -16 49.5t-63 21.5q-22 0 -44 -7t-40 -22t-29.5 -39t-11.5 -57q0 -28 15 -45.5t45 -29.5l74 -30q35 -14 53 -38t18 -60q0 -42 -15.5 -76t-41.5 -58t-59.5 -37.5t-69.5 -13.5q-39 0 -64 9.5t-39.5 24.5t-19.5 34.5t-5 39.5q0 15 2 29.5
t5 27.5l3 14h38l-3 -17q-2 -12 -3.5 -22.5t-1.5 -21.5q0 -38 21.5 -61t73.5 -23q33 0 58 12t42.5 31.5t26 44t8.5 50.5t-13.5 45t-45.5 33l-71 31q-37 16 -55.5 38.5t-18.5 56.5q0 42 14.5 73.5t39 53.5t56 33t65.5 11q33 0 54.5 -8t34 -21.5t17.5 -30.5t5 -36q0 -22 -5 -47
l-3 -16h-38zM311 736h42l64 -140h-42l-50 110l-96 -110h-42z" />
    <glyph glyph-name="Scedilla" unicode="&#x15e;" horiz-adv-x="481" 
d="M115 183q-2 -11 -3 -21t-1 -19q0 -54 33 -87.5t99 -33.5q42 0 79 16t64.5 44t43.5 65t16 78q0 46 -27.5 70.5t-74.5 41.5l-76 28q-55 20 -84 49.5t-29 80.5q0 53 19.5 95.5t52 72.5t75 46.5t87.5 16.5q82 0 120 -36t38 -99q0 -14 -2 -28.5t-5 -30.5h-42q6 27 6 51
q0 51 -28 80t-90 29q-30 0 -63 -9.5t-61 -31t-46 -57.5t-18 -88q0 -42 22.5 -64t58.5 -36l98 -37q54 -20 83.5 -49.5t29.5 -82.5q0 -56 -21 -101t-54.5 -77t-75.5 -50t-84 -20l-44 -48l1 -2q7 2 16 3.5t23 1.5q24 0 40.5 -14t16.5 -39q0 -12 -7 -27t-21 -28.5t-36 -22.5
t-52 -9q-26 0 -45.5 5t-33.5 13l13 22q14 -7 34 -11.5t39 -4.5q31 0 52.5 14t21.5 46q0 17 -13 24.5t-33 7.5q-17 0 -31 -4.5t-25 -9.5l-7 12l61 70q-47 1 -78 15t-49 35t-25 46.5t-7 48.5t4 40l10 47h42z" />
    <glyph glyph-name="scedilla" unicode="&#x15f;" horiz-adv-x="352" 
d="M353 376l3 15q2 9 3 19t1 20q0 28 -16 49.5t-63 21.5q-22 0 -44 -7t-40 -22t-29.5 -39t-11.5 -57q0 -28 15 -45.5t45 -29.5l74 -30q35 -14 53 -38t18 -60q0 -38 -14 -71t-37.5 -57.5t-55 -39t-66.5 -16.5l-44 -48l1 -2q7 2 16 3.5t23 1.5q24 0 40.5 -14t16.5 -39
q0 -12 -7 -27t-21 -28.5t-36 -22.5t-52 -9q-26 0 -45.5 5t-33.5 13l13 22q14 -7 34 -11.5t39 -4.5q31 0 52.5 14t21.5 46q0 17 -13 24.5t-33 7.5q-17 0 -31 -4.5t-25 -9.5l-7 12l61 71q-33 1 -54.5 11t-34 25.5t-17.5 34t-5 37.5q0 15 2 29t5 27l3 14h38l-3 -17
q-2 -12 -3.5 -22.5t-1.5 -21.5q0 -38 21.5 -61t73.5 -23q33 0 58 12t42.5 31.5t26 44t8.5 50.5t-13.5 45t-45.5 33l-71 31q-37 16 -55.5 38.5t-18.5 56.5q0 42 14.5 73.5t39 53.5t56 33t65.5 11q33 0 54.5 -8t34 -21.5t17.5 -30.5t5 -36q0 -22 -5 -47l-3 -16h-38z" />
    <glyph glyph-name="Tcommaaccent" unicode="&#x162;" 
d="M332 676h-190l8 38h422l-8 -38h-190l-140 -676h-42zM181 -50h47l-18 -85q-6 -31 -23 -47t-43 -22l4 20q13 5 22 15t14 32h-21z" />
    <glyph glyph-name="tcommaaccent" unicode="&#x163;" horiz-adv-x="204" 
d="M116 523h71l32 155h38l-32 -155h87l-7 -34h-87l-84 -403q-3 -14 -3 -23q0 -23 12 -29t25 -6q12 0 23.5 1t25.5 5l-7 -34q-15 -3 -30 -4.5t-26 -1.5q-33 0 -47.5 14t-14.5 41q0 7 1 15.5t3 17.5l84 407h-71zM118 -50h47l-18 -85q-6 -31 -23 -47t-43 -22l4 20q13 5 22 15
t14 32h-21z" />
    <glyph glyph-name="Tcaron" unicode="&#x164;" 
d="M332 676h-190l8 38h422l-8 -38h-190l-140 -676h-42zM285 910h42l50 -110l96 110h42l-124 -140h-42z" />
    <glyph glyph-name="tcaron" unicode="&#x165;" horiz-adv-x="274" 
d="M363 714h47l-76 -140h-28zM116 523h71l32 155h38l-32 -155h87l-7 -34h-87l-84 -403q-3 -14 -3 -23q0 -23 12 -29t25 -6q12 0 23.5 1t25.5 5l-7 -34q-15 -3 -30 -4.5t-26 -1.5q-33 0 -47.5 14t-14.5 41q0 7 1 15.5t3 17.5l84 407h-71z" />
    <glyph glyph-name="Tbar" unicode="&#x166;" 
d="M165 484h127l40 192h-190l8 38h422l-8 -38h-190l-40 -192h127l-6 -30h-127l-94 -454h-42l94 454h-127z" />
    <glyph glyph-name="tbar" unicode="&#x167;" horiz-adv-x="204" 
d="M69 347h81l30 142h-71l7 34h71l32 155h38l-32 -155h87l-7 -34h-87l-30 -142h94l-6 -30h-94l-48 -231q-3 -14 -3 -23q0 -23 12 -29t25 -6q12 0 23.5 1t25.5 5l-7 -34q-15 -3 -30 -4.5t-26 -1.5q-33 0 -47.5 14t-14.5 41q0 7 1 15.5t3 17.5l48 235h-81z" />
    <glyph glyph-name="Utilde" unicode="&#x168;" horiz-adv-x="500" 
d="M133 189q-6 -29 -6 -54q0 -52 29.5 -82.5t97.5 -30.5q78 0 126.5 46t64.5 121l109 525h42l-108 -517q-12 -60 -37.5 -100.5t-58.5 -64.5t-70.5 -34t-74.5 -10q-32 0 -61.5 6t-52 21.5t-36 43t-13.5 69.5q0 15 2 32t6 37l108 517h42zM549 885q-2 -12 -8.5 -27t-17.5 -28
t-27 -22t-36 -9q-17 0 -29 8t-22.5 17.5t-20.5 17.5t-22 8t-21 -6t-15 -14.5t-9.5 -18t-4.5 -16.5h-30q2 12 8.5 26.5t17.5 27.5t26.5 22t35.5 9q17 0 29.5 -8t23 -17.5t20.5 -17.5t22 -8q13 0 21.5 6t14.5 15t9 18.5t5 16.5h30z" />
    <glyph glyph-name="utilde" unicode="&#x169;" horiz-adv-x="407" 
d="M356 0h-38l16 79h-2q-11 -17 -26 -33.5t-34 -29.5t-42 -20.5t-50 -7.5q-28 0 -50.5 8t-36.5 25.5t-19 44t3 63.5l82 394h38l-78 -376q-14 -70 7.5 -97.5t70.5 -27.5q30 0 56 13t47 35.5t35.5 52.5t21.5 65l69 335h38zM472 711q-2 -12 -8.5 -27t-17.5 -28t-27 -22t-36 -9
q-17 0 -29 8t-22.5 17.5t-20.5 17.5t-22 8t-21 -6t-15 -14.5t-9.5 -18t-4.5 -16.5h-30q2 12 8.5 26.5t17.5 27.5t26.5 22t35.5 9q17 0 29.5 -8t23 -17.5t20.5 -17.5t22 -8q13 0 21.5 6t14.5 15t9 18.5t5 16.5h30z" />
    <glyph glyph-name="Umacron" unicode="&#x16a;" horiz-adv-x="500" 
d="M133 189q-6 -29 -6 -54q0 -52 29.5 -82.5t97.5 -30.5q78 0 126.5 46t64.5 121l109 525h42l-108 -517q-12 -60 -37.5 -100.5t-58.5 -64.5t-70.5 -34t-74.5 -10q-32 0 -61.5 6t-52 21.5t-36 43t-13.5 69.5q0 15 2 32t6 37l108 517h42zM314 855h216l-6 -30h-216z" />
    <glyph glyph-name="umacron" unicode="&#x16b;" horiz-adv-x="407" 
d="M356 0h-38l16 79h-2q-11 -17 -26 -33.5t-34 -29.5t-42 -20.5t-50 -7.5q-28 0 -50.5 8t-36.5 25.5t-19 44t3 63.5l82 394h38l-78 -376q-14 -70 7.5 -97.5t70.5 -27.5q30 0 56 13t47 35.5t35.5 52.5t21.5 65l69 335h38zM229 681h216l-6 -30h-216z" />
    <glyph glyph-name="Ubreve" unicode="&#x16c;" horiz-adv-x="500" 
d="M133 189q-6 -29 -6 -54q0 -52 29.5 -82.5t97.5 -30.5q78 0 126.5 46t64.5 121l109 525h42l-108 -517q-12 -60 -37.5 -100.5t-58.5 -64.5t-70.5 -34t-74.5 -10q-32 0 -61.5 6t-52 21.5t-36 43t-13.5 69.5q0 15 2 32t6 37l108 517h42zM540 898q-4 -16 -13 -36t-25.5 -38
t-40.5 -30t-58 -12q-27 0 -44.5 8t-27.5 20.5t-14 28.5t-4 31q0 16 3 28h30q-3 -14 -3 -25q0 -29 19 -45t48 -16q42 0 67 25.5t33 60.5h30z" />
    <glyph glyph-name="ubreve" unicode="&#x16d;" horiz-adv-x="407" 
d="M356 0h-38l16 79h-2q-11 -17 -26 -33.5t-34 -29.5t-42 -20.5t-50 -7.5q-28 0 -50.5 8t-36.5 25.5t-19 44t3 63.5l82 394h38l-78 -376q-14 -70 7.5 -97.5t70.5 -27.5q30 0 56 13t47 35.5t35.5 52.5t21.5 65l69 335h38zM459 724q-4 -16 -13 -36t-25.5 -38t-40.5 -30
t-58 -12q-27 0 -44.5 8t-27.5 20.5t-14 28.5t-4 31q0 16 3 28h30q-3 -14 -3 -25q0 -29 19 -45t48 -16q42 0 67 25.5t33 60.5h30z" />
    <glyph glyph-name="Uring" unicode="&#x16e;" horiz-adv-x="500" 
d="M133 189q-6 -29 -6 -54q0 -52 29.5 -82.5t97.5 -30.5q78 0 126.5 46t64.5 121l109 525h42l-108 -517q-12 -60 -37.5 -100.5t-58.5 -64.5t-70.5 -34t-74.5 -10q-32 0 -61.5 6t-52 21.5t-36 43t-13.5 69.5q0 15 2 32t6 37l108 517h42zM354 832q-1 -4 -1.5 -7t-0.5 -6
q0 -20 13 -33t35 -13q28 0 50.5 21t22.5 50q0 20 -13 33.5t-35 13.5q-25 0 -45.5 -17t-25.5 -42zM324 832q8 38 38.5 63t68.5 25q32 0 52 -20t20 -51q0 -23 -9.5 -42t-25.5 -33t-35.5 -22t-38.5 -8q-32 0 -52 19.5t-20 49.5v9.5t2 9.5z" />
    <glyph glyph-name="uring" unicode="&#x16f;" horiz-adv-x="407" 
d="M356 0h-38l16 79h-2q-11 -17 -26 -33.5t-34 -29.5t-42 -20.5t-50 -7.5q-28 0 -50.5 8t-36.5 25.5t-19 44t3 63.5l82 394h38l-78 -376q-14 -70 7.5 -97.5t70.5 -27.5q30 0 56 13t47 35.5t35.5 52.5t21.5 65l69 335h38zM282 682q-1 -4 -1.5 -7t-0.5 -6q0 -20 13 -33t35 -13
q28 0 50.5 21t22.5 50q0 20 -13 33.5t-35 13.5q-25 0 -45.5 -17t-25.5 -42zM252 682q8 38 38.5 63t68.5 25q32 0 52 -20t20 -51q0 -23 -9.5 -42t-25.5 -33t-35.5 -22t-38.5 -8q-32 0 -52 19.5t-20 49.5v9.5t2 9.5z" />
    <glyph glyph-name="Uhungarumlaut" unicode="&#x170;" horiz-adv-x="500" 
d="M133 189q-6 -29 -6 -54q0 -52 29.5 -82.5t97.5 -30.5q78 0 126.5 46t64.5 121l109 525h42l-108 -517q-12 -60 -37.5 -100.5t-58.5 -64.5t-70.5 -34t-74.5 -10q-32 0 -61.5 6t-52 21.5t-36 43t-13.5 69.5q0 15 2 32t6 37l108 517h42zM559 910h48l-123 -140h-33zM425 910
h48l-123 -140h-33z" />
    <glyph glyph-name="uhungarumlaut" unicode="&#x171;" horiz-adv-x="407" 
d="M356 0h-38l16 79h-2q-11 -17 -26 -33.5t-34 -29.5t-42 -20.5t-50 -7.5q-28 0 -50.5 8t-36.5 25.5t-19 44t3 63.5l82 394h38l-78 -376q-14 -70 7.5 -97.5t70.5 -27.5q30 0 56 13t47 35.5t35.5 52.5t21.5 65l69 335h38zM482 736h48l-123 -140h-33zM348 736h48l-123 -140
h-33z" />
    <glyph glyph-name="Uogonek" unicode="&#x172;" horiz-adv-x="500" 
d="M133 189q-6 -29 -6 -54q0 -52 29.5 -82.5t97.5 -30.5q78 0 126.5 46t64.5 121l109 525h42l-108 -517q-11 -53 -32 -90.5t-48.5 -62.5t-59.5 -38t-65 -15q-55 -43 -77 -72t-22 -56q0 -35 42 -35q25 0 51 18l6 -22q-14 -8 -33 -14t-37 -6q-30 0 -48 13t-18 39q0 61 100 132
q-32 0 -61.5 6t-52 21.5t-36 43t-13.5 69.5q0 15 2 32t6 37l108 517h42z" />
    <glyph glyph-name="uogonek" unicode="&#x173;" horiz-adv-x="407" 
d="M345 0q-49 -42 -71.5 -68.5t-26.5 -48.5q-13 -55 35 -55q23 0 46 18l5 -22q-13 -8 -30 -14t-33 -6q-32 0 -48 18.5t-9 53.5q7 32 33.5 62.5t71.5 61.5l16 79h-2q-11 -17 -26 -33.5t-34 -29.5t-42 -20.5t-50 -7.5q-28 0 -50.5 8t-36.5 25.5t-19 44t3 63.5l82 394h38
l-78 -376q-14 -70 7.5 -97.5t70.5 -27.5q30 0 56 13t47 35.5t35.5 52.5t21.5 65l69 335h38l-108 -523h-11z" />
    <glyph glyph-name="Wcircumflex" unicode="&#x174;" horiz-adv-x="704" 
d="M488 654h-2l-270 -654h-50l-7 714h42l1 -654h2l270 654h51l-1 -654h2l273 654h42l-304 -714h-52zM515 910h42l64 -140h-42l-50 110l-96 -110h-42z" />
    <glyph glyph-name="wcircumflex" unicode="&#x175;" horiz-adv-x="537" 
d="M368 469h-2l-200 -469h-48l-4 523h42l-4 -469h2l200 469h48l2 -469h2l191 469h42l-221 -523h-48zM398 736h42l64 -140h-42l-50 110l-96 -110h-42z" />
    <glyph glyph-name="Ycircumflex" unicode="&#x176;" horiz-adv-x="444" 
d="M262 294l-108 420h46l92 -376l252 376h42l-282 -420l-61 -294h-42zM388 910h42l64 -140h-42l-50 110l-96 -110h-42z" />
    <glyph glyph-name="ycircumflex" unicode="&#x177;" horiz-adv-x="352" 
d="M409 523h42l-252 -528l-35 -73q-26 -54 -58 -76t-78 -22q-10 0 -19.5 0.5t-18.5 1.5l7 34q10 -1 16.5 -1.5t15.5 -0.5q18 0 32 3t26 12t23.5 25t23.5 42l27 55l-44 528h42l35 -469h2zM307 736h42l64 -140h-42l-50 110l-96 -110h-42z" />
    <glyph glyph-name="Zacute" unicode="&#x179;" horiz-adv-x="443" 
d="M25 42l495 634h-342l8 38h384l-9 -42l-495 -634h367l-7 -38h-409zM461 910h48l-123 -140h-33z" />
    <glyph glyph-name="zacute" unicode="&#x17a;" horiz-adv-x="334" 
d="M22 34l353 455h-245l7 34h287l-7 -34l-353 -455h262l-7 -34h-304zM374 736h48l-123 -140h-33z" />
    <glyph glyph-name="Zdotaccent" unicode="&#x17b;" horiz-adv-x="443" 
d="M25 42l495 634h-342l8 38h384l-9 -42l-495 -634h367l-7 -38h-409zM378 891h42l-21 -102h-42z" />
    <glyph glyph-name="zdotaccent" unicode="&#x17c;" horiz-adv-x="334" 
d="M22 34l353 455h-245l7 34h287l-7 -34l-353 -455h262l-7 -34h-304zM283 717h42l-21 -102h-42z" />
    <glyph glyph-name="Scommaaccent" unicode="&#x218;" horiz-adv-x="481" 
d="M115 183q-2 -11 -3 -21t-1 -19q0 -54 33 -87.5t99 -33.5q42 0 79 16t64.5 44t43.5 65t16 78q0 46 -27.5 70.5t-74.5 41.5l-76 28q-55 20 -84 49.5t-29 80.5q0 53 19.5 95.5t52 72.5t75 46.5t87.5 16.5q82 0 120 -36t38 -99q0 -14 -2 -28.5t-5 -30.5h-42q6 27 6 51
q0 51 -28 80t-90 29q-30 0 -63 -9.5t-61 -31t-46 -57.5t-18 -88q0 -42 22.5 -64t58.5 -36l98 -37q54 -20 83.5 -49.5t29.5 -82.5q0 -60 -22.5 -106t-58.5 -78t-81.5 -48.5t-91.5 -16.5q-51 0 -84 13.5t-52 34.5t-26.5 47t-7.5 51q0 11 1 20.5t3 18.5l10 47h42zM209 -50h47
l-18 -85q-6 -31 -23 -47t-43 -22l4 20q13 5 22 15t14 32h-21z" />
    <glyph glyph-name="scommaaccent" unicode="&#x219;" horiz-adv-x="352" 
d="M353 376l3 15q2 9 3 19t1 20q0 28 -16 49.5t-63 21.5q-22 0 -44 -7t-40 -22t-29.5 -39t-11.5 -57q0 -28 15 -45.5t45 -29.5l74 -30q35 -14 53 -38t18 -60q0 -42 -15.5 -76t-41.5 -58t-59.5 -37.5t-69.5 -13.5q-39 0 -64 9.5t-39.5 24.5t-19.5 34.5t-5 39.5q0 15 2 29.5
t5 27.5l3 14h38l-3 -17q-2 -12 -3.5 -22.5t-1.5 -21.5q0 -38 21.5 -61t73.5 -23q33 0 58 12t42.5 31.5t26 44t8.5 50.5t-13.5 45t-45.5 33l-71 31q-37 16 -55.5 38.5t-18.5 56.5q0 42 14.5 73.5t39 53.5t56 33t65.5 11q33 0 54.5 -8t34 -21.5t17.5 -30.5t5 -36q0 -22 -5 -47
l-3 -16h-38zM145 -50h47l-18 -85q-6 -31 -23 -47t-43 -22l4 20q13 5 22 15t14 32h-21z" />
    <glyph glyph-name="uni021A" unicode="&#x21a;" 
d="M332 676h-190l8 38h422l-8 -38h-190l-140 -676h-42zM181 -50h47l-18 -85q-6 -31 -23 -47t-43 -22l4 20q13 5 22 15t14 32h-21z" />
    <glyph glyph-name="uni021B" unicode="&#x21b;" horiz-adv-x="204" 
d="M116 523h71l32 155h38l-32 -155h87l-7 -34h-87l-84 -403q-3 -14 -3 -23q0 -23 12 -29t25 -6q12 0 23.5 1t25.5 5l-7 -34q-15 -3 -30 -4.5t-26 -1.5q-33 0 -47.5 14t-14.5 41q0 7 1 15.5t3 17.5l84 407h-71zM118 -50h47l-18 -85q-6 -31 -23 -47t-43 -22l4 20q13 5 22 15
t14 32h-21z" />
    <glyph glyph-name="caron" unicode="&#x2c7;" horiz-adv-x="148" 
d="M110 736h42l50 -110l96 110h42l-124 -140h-42z" />
    <glyph glyph-name="uni02C9" unicode="&#x2c9;" horiz-adv-x="148" 
d="M105 681h216l-6 -30h-216z" />
    <glyph glyph-name="breve" unicode="&#x2d8;" horiz-adv-x="148" 
d="M334 724q-4 -16 -13 -36t-25.5 -38t-40.5 -30t-58 -12q-27 0 -44.5 8t-27.5 20.5t-14 28.5t-4 31q0 16 3 28h30q-3 -14 -3 -25q0 -29 19 -45t48 -16q42 0 67 25.5t33 60.5h30z" />
    <glyph glyph-name="dotaccent" unicode="&#x2d9;" horiz-adv-x="148" 
d="M200 717h42l-21 -102h-42z" />
    <glyph glyph-name="ring" unicode="&#x2da;" horiz-adv-x="148" 
d="M152 682q-1 -4 -1.5 -7t-0.5 -6q0 -20 13 -33t35 -13q28 0 50.5 21t22.5 50q0 20 -13 33.5t-35 13.5q-25 0 -45.5 -17t-25.5 -42zM122 682q8 38 38.5 63t68.5 25q32 0 52 -20t20 -51q0 -23 -9.5 -42t-25.5 -33t-35.5 -22t-38.5 -8q-32 0 -52 19.5t-20 49.5v9.5t2 9.5z
" />
    <glyph glyph-name="ogonek" unicode="&#x2db;" horiz-adv-x="148" 
d="M143 0q-54 -42 -79 -68.5t-30 -48.5q-13 -55 39 -55q25 0 51 18l6 -22q-14 -8 -33 -14t-37 -6q-35 0 -53 18.5t-10 53.5q8 32 37.5 62.5t78.5 61.5h30z" />
    <glyph glyph-name="hungarumlaut" unicode="&#x2dd;" horiz-adv-x="148" 
d="M327 736h48l-123 -140h-33zM193 736h48l-123 -140h-33z" />
    <glyph glyph-name="uni0394" unicode="&#x394;" horiz-adv-x="639" 
d="M387 662l-385 -627h504zM-59 0l438 712h35l139 -712h-612z" />
    <glyph glyph-name="uni03A9" unicode="&#x3a9;" horiz-adv-x="731" 
d="M683 459q0 -62 -17.5 -115.5t-51 -95.5t-81.5 -70.5t-109 -39.5l-23 -107h200l-7 -31h-232l35 165q58 8 104 33t78.5 63t49.5 88t17 109q0 52 -17 94.5t-48 72.5t-73.5 46.5t-94.5 16.5q-69 0 -127.5 -28t-101 -75t-66.5 -108.5t-24 -128.5q0 -72 37.5 -121t109.5 -62
l-35 -165h-219l7 31h185l24 110q-73 22 -109 79t-36 132q0 74 27.5 141t75.5 117.5t113 80.5t140 30q58 0 107.5 -18.5t85.5 -53t56 -83t20 -107.5z" />
    <glyph glyph-name="uni03BC" unicode="&#x3bc;" horiz-adv-x="407" 
d="M356 0h-38l16 79h-2q-11 -17 -26 -33.5t-34 -29.5t-42 -20.5t-50 -7.5q-24 0 -45 10.5t-37 37.5h-2l-44 -212h-38l145 699h38l-78 -376q-14 -70 7.5 -97.5t70.5 -27.5q30 0 56 13t47 35.5t35.5 52.5t21.5 65l69 335h38z" />
    <glyph glyph-name="pi" unicode="&#x3c0;" horiz-adv-x="556" 
d="M541 432h-78l-70 -331q-2 -12 -5 -25t-3 -26t8.5 -18.5t19.5 -5.5q12 0 24.5 5t23.5 10l-6 -31q-14 -7 -27.5 -11t-28.5 -4q-21 0 -36 11t-15 34q0 14 2.5 29t5.5 29l71 334h-278l-92 -432h-36l92 432h-75l6 32h504z" />
    <glyph glyph-name="fraction" unicode="&#x2044;" horiz-adv-x="167" 
d="M447 728h34l-616 -760h-34z" />
    <glyph glyph-name="afii61289" unicode="&#x2113;" horiz-adv-x="500" 
d="M439 634q0 -46 -22 -94.5t-56.5 -95t-75.5 -89t-80 -76.5q-14 -61 -22 -98t-11.5 -58t-4.5 -30t-1 -15q0 -19 5.5 -31t14 -19t19 -10t20.5 -3q23 0 46 9.5t55 32.5h2l11 -21q-32 -25 -60 -37.5t-59 -12.5q-37 0 -63.5 20.5t-26.5 65.5q0 7 1 16.5t4.5 28.5t10.5 51t19 85
l-74 -68h-2l-13 21l96 84l59 275q18 84 53.5 120t77.5 36q34 0 55.5 -23.5t21.5 -63.5zM408 632q0 27 -13.5 44.5t-34.5 17.5q-14 0 -27 -5.5t-25 -20t-23 -38.5t-19 -60l-54 -253q28 26 62 63.5t64 79.5t50 86.5t20 85.5z" />
    <glyph glyph-name="Omega" unicode="&#x2126;" horiz-adv-x="731" 
d="M683 459q0 -62 -17.5 -115.5t-51 -95.5t-81.5 -70.5t-109 -39.5l-23 -107h200l-7 -31h-232l35 165q58 8 104 33t78.5 63t49.5 88t17 109q0 52 -17 94.5t-48 72.5t-73.5 46.5t-94.5 16.5q-69 0 -127.5 -28t-101 -75t-66.5 -108.5t-24 -128.5q0 -72 37.5 -121t109.5 -62
l-35 -165h-219l7 31h185l24 110q-73 22 -109 79t-36 132q0 74 27.5 141t75.5 117.5t113 80.5t140 30q58 0 107.5 -18.5t85.5 -53t56 -83t20 -107.5z" />
    <glyph glyph-name="estimated" unicode="&#x212e;" horiz-adv-x="600" 
d="M157 259v-181q59 -59 145 -59q63 0 109 28.5t84 91.5l35 -21q-23 -36 -46.5 -61.5t-51 -42t-59.5 -24t-71 -7.5q-59 0 -106.5 21.5t-81.5 59t-52 87.5t-18 108t18 108.5t52 87.5t81.5 58.5t106.5 21.5q58 0 105.5 -20.5t81.5 -57t53 -87t19 -111.5h-404zM448 295v145
q-63 60 -147 60t-144 -60v-145h291z" />
    <glyph glyph-name="partialdiff" unicode="&#x2202;" horiz-adv-x="463" 
d="M365 284q-31 42 -73.5 73.5t-97.5 31.5q-38 0 -66 -15.5t-46.5 -41t-28 -57.5t-9.5 -66q0 -32 9.5 -65.5t28 -61.5t46 -45.5t64.5 -17.5q48 0 80 27.5t51.5 68t29 86.5t12.5 83zM405 369q0 -34 -3 -75.5t-11.5 -84t-23.5 -82.5t-39 -71t-57.5 -49.5t-79.5 -18.5
q-44 0 -78 20t-57.5 51.5t-35.5 71t-12 79.5q0 42 12 80t35.5 67t58 46.5t79.5 17.5q54 0 99 -27t77 -70q0 15 0.5 30.5t0.5 30.5q0 30 -3.5 63.5t-12 67.5t-22.5 65t-35 55t-50 38t-66 14q-35 0 -61.5 -12.5t-53.5 -32.5l-20 26q30 24 62.5 38t71.5 14q68 0 111.5 -35
t69 -88t35 -114.5t9.5 -114.5z" />
    <glyph glyph-name="Delta" unicode="&#x2206;" horiz-adv-x="639" 
d="M387 662l-385 -627h504zM-59 0l438 712h35l139 -712h-612z" />
    <glyph glyph-name="product" unicode="&#x220f;" horiz-adv-x="704" 
d="M585 -214v965h-466v-965h-36v1000h538v-1000h-36z" />
    <glyph glyph-name="summation" unicode="&#x2211;" horiz-adv-x="593" 
d="M26 -214v32l338 471l-324 464v33h497v-35h-451l322 -462l-338 -468h479v-35h-523z" />
    <glyph glyph-name="minus" unicode="&#x2212;" horiz-adv-x="600" 
d="M96 236l7 34h506l-7 -34h-506z" />
    <glyph glyph-name="uni2215" unicode="&#x2215;" horiz-adv-x="167" 
d="M447 728h34l-616 -760h-34z" />
    <glyph glyph-name="uni2219" unicode="&#x2219;" horiz-adv-x="240" 
d="M137 330q5 21 23 36t39 15t33 -15t7 -36t-22.5 -36t-38.5 -15t-33.5 15t-7.5 36z" />
    <glyph glyph-name="radical" unicode="&#x221a;" horiz-adv-x="463" 
d="M236 -217h-32l-178 366l-44 -21l-13 27l73 36l173 -359l203 950h33z" />
    <glyph glyph-name="infinity" unicode="&#x221e;" horiz-adv-x="722" 
d="M309 243q-17 14 -37 31.5t-41.5 32.5t-44.5 25.5t-47 10.5q-42 0 -65 -29.5t-23 -68.5q0 -43 24 -70.5t69 -27.5q24 0 46.5 9t43.5 23.5t40 31.5t35 32zM613 245q0 42 -24 70t-67 28q-22 0 -45 -10.5t-45 -25.5t-42 -32.5l-36 -31.5q17 -15 36 -32t40 -31.5t43.5 -24
t46.5 -9.5q45 0 69 27t24 72zM646 246q0 -57 -33 -95t-93 -38q-29 0 -54.5 10.5t-48.5 26t-44 35t-41 37.5q-21 -18 -42 -37t-43.5 -35t-47.5 -26t-55 -10q-29 0 -52 10t-39.5 27t-25.5 41t-9 52q0 27 9 51t25 42t38.5 28.5t50.5 10.5t54 -11t50 -27.5t45.5 -36t41.5 -36.5
q19 17 40.5 36.5t45.5 36t49.5 27.5t52.5 11q28 0 51.5 -10t40 -27t25.5 -41t9 -52z" />
    <glyph glyph-name="integral" unicode="&#x222b;" horiz-adv-x="534" 
d="M374 750q0 -12 -8 -19t-19 -7t-17 5t-10 10.5t-7 10.5t-9 5q-13 0 -20.5 -14t-12.5 -35.5t-7 -47t-2.5 -49.5t0 -43t0.5 -26v-476q0 -18 0.5 -45.5t-0.5 -58.5t-6 -62t-16.5 -55.5t-30.5 -40t-49 -15.5q-16 0 -28.5 9t-12.5 26q0 10 8 17t18 7q7 0 12 -4t9.5 -9t9 -9
t9.5 -4q14 0 22 20.5t12.5 49t5.5 59t1 51.5v24v491q0 18 -1 45.5t0.5 57.5t6 60t15.5 54t29.5 39t48.5 15q17 0 33 -8t16 -28z" />
    <glyph glyph-name="approxequal" unicode="&#x2248;" horiz-adv-x="593" 
d="M518 220q-5 -22 -14 -43t-23.5 -37t-34 -26t-44.5 -10q-31 0 -68.5 12t-76 26t-74.5 26t-63 12q-17 0 -32 -7t-26.5 -18.5t-19.5 -26.5t-11 -31h-28q5 22 14 43t23 37t33.5 26t45.5 10q31 0 68.5 -12t76 -26t74.5 -26t63 -12q36 0 59 25.5t31 57.5h27zM518 383
q-5 -23 -14.5 -43.5t-23.5 -36.5t-33.5 -25.5t-44.5 -9.5q-32 0 -69.5 12t-75.5 26t-73.5 26t-63.5 12q-35 0 -58.5 -26t-30.5 -58h-28q5 22 14 43t23 37t33.5 26t45.5 10q31 0 68 -11.5t74.5 -26t73.5 -26t66 -11.5q36 0 59 25t31 57h27z" />
    <glyph glyph-name="notequal" unicode="&#x2260;" horiz-adv-x="593" 
d="M225 133l-75 -141l-29 15l67 126h-166v33h184l80 150h-264v33h282l76 143l29 -15l-68 -128h170v-33h-188l-81 -150h269v-33h-286z" />
    <glyph glyph-name="lessequal" unicode="&#x2264;" horiz-adv-x="593" 
d="M22 -14v33h489v-33h-489zM22 260v36l489 200v-37l-445 -181l445 -180v-37z" />
    <glyph glyph-name="greaterequal" unicode="&#x2265;" horiz-adv-x="593" 
d="M22 -14v33h489v-33h-489zM22 61v37l446 180l-446 181v37l489 -200v-36z" />
    <glyph glyph-name="lozenge" unicode="&#x25ca;" horiz-adv-x="593" 
d="M296 702l-148 -346l148 -346l148 346zM311 -35h-30l-169 391l169 391h30l170 -391z" />
    <glyph glyph-name="uniF8FF" unicode="&#xf8ff;" horiz-adv-x="512" 
d="M222 117v67h56v-67h-56zM225 234l-2 17q0 55 13 81t46 59q32 31 41 47.5t9 35.5q0 36 -22.5 60.5t-53.5 24.5t-53.5 -22t-28.5 -73l-50 8q7 71 44 104t91 33q53 0 88.5 -36t35.5 -95q0 -32 -12.5 -58.5t-50.5 -61.5q-37 -33 -43 -52t-6 -72h-46zM462 50v617h-412v-617
h412zM512 718v-718h-512v718h512z" />
    </font>
</defs>
</svg>
